  0
SECTION
  2
HEADER
  9
$ACADVER
  1
AC1009
  9
$EXTMIN
 10
0.0
 20
0.0
 30
0.0
  9
$EXTMAX
 10
1000.0
 20
1000.0
 30
0.0
  9
$FILLMODE
 70
 0
  9
$SPLFRAME
 70
 1
  0
ENDSEC
  0
SECTION
  2
TABLES
  0
TABLE
  2
LAYER
 70
1
  0
LAYER
  2
0
 70
     0
 62
     7
  6
CONTINUOUS
  0
ENDTAB
  0
ENDSEC
  0
SECTION
  2
ENTITIES
  0
LINE
  8
0
 62
     0
 10
5.19764
 20
1.71744
 30
0.0
 11
5.21164
 21
1.73828
 31
0.0
  0
LINE
  8
0
 62
     0
 10
5.21164
 20
1.73828
 30
0.0
 11
5.23031
 21
1.7551
 31
0.0
  0
LINE
  8
0
 62
     0
 10
5.23031
 20
1.7551
 30
0.0
 11
5.25424
 21
1.76704
 31
0.0
  0
LINE
  8
0
 62
     0
 10
5.25424
 20
1.76704
 30
0.0
 11
5.28028
 21
1.77328
 31
0.0
  0
LINE
  8
0
 62
     0
 10
5.28028
 20
1.77328
 30
0.0
 11
5.30994
 21
1.77279
 31
0.0
  0
LINE
  8
0
 62
     0
 10
5.30994
 20
1.77279
 30
0.0
 11
5.33897
 21
1.76611
 31
0.0
  0
LINE
  8
0
 62
     0
 10
5.33897
 20
1.76611
 30
0.0
 11
5.36936
 21
1.75151
 31
0.0
  0
LINE
  8
0
 62
     0
 10
5.36936
 20
1.75151
 30
0.0
 11
5.39649
 21
1.73139
 31
0.0
  0
LINE
  8
0
 62
     0
 10
5.39649
 20
1.73139
 30
0.0
 11
5.42204
 21
1.70269
 31
0.0
  0
LINE
  8
0
 62
     0
 10
5.42204
 20
1.70269
 30
0.0
 11
5.44222
 21
1.66992
 31
0.0
  0
LINE
  8
0
 62
     0
 10
5.44222
 20
1.66992
 30
0.0
 11
5.45768
 21
1.62918
 31
0.0
  0
LINE
  8
0
 62
     0
 10
5.45768
 20
1.62918
 30
0.0
 11
5.46636
 21
1.58643
 31
0.0
  0
LINE
  8
0
 62
     0
 10
5.46636
 20
1.58643
 30
0.0
 11
5.46744
 21
1.53733
 31
0.0
  0
LINE
  8
0
 62
     0
 10
5.46744
 20
1.53733
 30
0.0
 11
5.46089
 21
1.48861
 31
0.0
  0
LINE
  8
0
 62
     0
 10
5.46089
 20
1.48861
 30
0.0
 11
5.44456
 21
1.43631
 31
0.0
  0
LINE
  8
0
 62
     0
 10
5.44456
 20
1.43631
 30
0.0
 11
5.42057
 21
1.38699
 31
0.0
  0
LINE
  8
0
 62
     0
 10
5.42057
 20
1.38699
 30
0.0
 11
5.38547
 21
1.33746
 31
0.0
  0
LINE
  8
0
 62
     0
 10
5.38547
 20
1.33746
 30
0.0
 11
5.34364
 21
1.29346
 31
0.0
  0
LINE
  8
0
 62
     0
 10
5.34364
 20
1.29346
 30
0.0
 11
5.29058
 21
1.25304
 31
0.0
  0
LINE
  8
0
 62
     0
 10
5.29058
 20
1.25304
 30
0.0
 11
5.23236
 21
1.22038
 31
0.0
  0
LINE
  8
0
 62
     0
 10
5.23236
 20
1.22038
 30
0.0
 11
5.16417
 21
1.1951
 31
0.0
  0
LINE
  8
0
 62
     0
 10
5.16417
 20
1.1951
 30
0.0
 11
5.09304
 21
1.17947
 31
0.0
  0
LINE
  8
0
 62
     0
 10
5.09304
 20
1.17947
 30
0.0
 11
5.01426
 21
1.17437
 31
0.0
  0
LINE
  8
0
 62
     0
 10
5.01426
 20
1.17437
 30
0.0
 11
4.93549
 21
1.18007
 31
0.0
  0
LINE
  8
0
 62
     0
 10
4.93549
 20
1.18007
 30
0.0
 11
4.85243
 21
1.19878
 31
0.0
  0
LINE
  8
0
 62
     0
 10
4.85243
 20
1.19878
 30
0.0
 11
4.77263
 21
1.22857
 31
0.0
  0
LINE
  8
0
 62
     0
 10
4.77263
 20
1.22857
 30
0.0
 11
4.6926
 21
1.27284
 31
0.0
  0
LINE
  8
0
 62
     0
 10
4.6926
 20
1.27284
 30
0.0
 11
4.61925
 21
1.32737
 31
0.0
  0
LINE
  8
0
 62
     0
 10
4.61925
 20
1.32737
 30
0.0
 11
4.55018
 21
1.39649
 31
0.0
  0
LINE
  8
0
 62
     0
 10
4.55018
 20
1.39649
 30
0.0
 11
4.49089
 21
1.47413
 31
0.0
  0
LINE
  8
0
 62
     0
 10
4.49089
 20
1.47413
 30
0.0
 11
4.44038
 21
1.56506
 31
0.0
  0
LINE
  8
0
 62
     0
 10
4.44038
 20
1.56506
 30
0.0
 11
4.40229
 21
1.66183
 31
0.0
  0
LINE
  8
0
 62
     0
 10
4.40229
 20
1.66183
 30
0.0
 11
4.37706
 21
1.76937
 31
0.0
  0
LINE
  8
0
 62
     0
 10
4.37706
 20
1.76937
 30
0.0
 11
4.36604
 21
1.87918
 31
0.0
  0
LINE
  8
0
 62
     0
 10
4.36604
 20
1.87918
 30
0.0
 11
4.37121
 21
1.99576
 31
0.0
  0
LINE
  8
0
 62
     0
 10
4.37121
 20
1.99576
 30
0.0
 11
4.39144
 21
2.11074
 31
0.0
  0
LINE
  8
0
 62
     0
 10
4.39144
 20
2.11074
 30
0.0
 11
4.42985
 21
2.22765
 31
0.0
  0
LINE
  8
0
 62
     0
 10
4.42985
 20
2.22765
 30
0.0
 11
4.48307
 21
2.33865
 31
0.0
  0
LINE
  8
0
 62
     0
 10
4.48307
 20
2.33865
 30
0.0
 11
4.55507
 21
2.44624
 31
0.0
  0
LINE
  8
0
 62
     0
 10
4.55507
 20
2.44624
 30
0.0
 11
4.64031
 21
2.54372
 31
0.0
  0
LINE
  8
0
 62
     0
 10
4.64031
 20
2.54372
 30
0.0
 11
4.74333
 21
2.63232
 31
0.0
  0
LINE
  8
0
 62
     0
 10
4.74333
 20
2.63232
 30
0.0
 11
4.85693
 21
2.70692
 31
0.0
  0
LINE
  8
0
 62
     0
 10
4.85693
 20
2.70692
 30
0.0
 11
4.98568
 21
2.76753
 31
0.0
  0
LINE
  8
0
 62
     0
 10
4.98568
 20
2.76753
 30
0.0
 11
5.12115
 21
2.81108
 31
0.0
  0
LINE
  8
0
 62
     0
 10
5.12115
 20
2.81108
 30
0.0
 11
5.26768
 21
2.83626
 31
0.0
  0
LINE
  8
0
 62
     0
 10
5.26768
 20
2.83626
 30
0.0
 11
5.41635
 21
2.8425
 31
0.0
  0
LINE
  8
0
 62
     0
 10
5.41635
 20
2.8425
 30
0.0
 11
5.57069
 21
2.82725
 31
0.0
  0
LINE
  8
0
 62
     0
 10
5.57069
 20
2.82725
 30
0.0
 11
5.7219
 21
2.79243
 31
0.0
  0
LINE
  8
0
 62
     0
 10
5.7219
 20
2.79243
 30
0.0
 11
5.87267
 21
2.73443
 31
0.0
  0
LINE
  8
0
 62
     0
 10
5.87267
 20
2.73443
 30
0.0
 11
6.01492
 21
2.65767
 31
0.0
  0
LINE
  8
0
 62
     0
 10
6.01492
 20
2.65767
 30
0.0
 11
6.15017
 21
2.55806
 31
0.0
  0
LINE
  8
0
 62
     0
 10
6.15017
 20
2.55806
 30
0.0
 11
6.27175
 21
2.44194
 31
0.0
  0
LINE
  8
0
 62
     0
 10
6.27175
 20
2.44194
 30
0.0
 11
6.37983
 21
2.30507
 31
0.0
  0
LINE
  8
0
 62
     0
 10
6.37983
 20
2.30507
 30
0.0
 11
6.46978
 21
2.15549
 31
0.0
  0
LINE
  8
0
 62
     0
 10
6.46978
 20
2.15549
 30
0.0
 11
6.54042
 21
1.98899
 31
0.0
  0
LINE
  8
0
 62
     0
 10
6.54042
 20
1.98899
 30
0.0
 11
6.58951
 21
1.81478
 31
0.0
  0
LINE
  8
0
 62
     0
 10
6.58951
 20
1.81478
 30
0.0
 11
6.61464
 21
1.62912
 31
0.0
  0
LINE
  8
0
 62
     0
 10
6.61464
 20
1.62912
 30
0.0
 11
6.61621
 21
1.44174
 31
0.0
  0
LINE
  8
0
 62
     0
 10
6.61621
 20
1.44174
 30
0.0
 11
6.59071
 21
1.24957
 31
0.0
  0
LINE
  8
0
 62
     0
 10
6.59071
 20
1.24957
 30
0.0
 11
6.54129
 21
1.06212
 31
0.0
  0
LINE
  8
0
 62
     0
 10
6.54129
 20
1.06212
 30
0.0
 11
6.46371
 21
0.877496
 31
0.0
  0
LINE
  8
0
 62
     0
 10
6.46371
 20
0.877496
 30
0.0
 11
6.3635
 21
0.703993
 31
0.0
  0
LINE
  8
0
 62
     0
 10
6.3635
 20
0.703993
 30
0.0
 11
6.23611
 21
0.541124
 31
0.0
  0
LINE
  8
0
 62
     0
 10
6.23611
 20
0.541124
 30
0.0
 11
6.08931
 21
0.395508
 31
0.0
  0
LINE
  8
0
 62
     0
 10
6.08931
 20
0.395508
 30
0.0
 11
5.91851
 21
0.267904
 31
0.0
  0
LINE
  8
0
 62
     0
 10
5.91851
 20
0.267904
 30
0.0
 11
5.73301
 21
0.162706
 31
0.0
  0
LINE
  8
0
 62
     0
 10
5.73301
 20
0.162706
 30
0.0
 11
5.52864
 21
0.0818685
 31
0.0
  0
LINE
  8
0
 62
     0
 10
5.52864
 20
0.0818685
 30
0.0
 11
5.31581
 21
0.0273981
 31
0.0
  0
LINE
  8
0
 62
     0
 10
5.31581
 20
0.0273981
 30
0.0
 11
5.09104
 21
0.00217014
 31
0.0
  0
LINE
  8
0
 62
     0
 10
5.09104
 20
0.00217014
 30
0.0
 11
4.86486
 21
0.00542535
 31
0.0
  0
LINE
  8
0
 62
     0
 10
4.86486
 20
0.00542535
 30
0.0
 11
4.63488
 21
0.0410156
 31
0.0
  0
LINE
  8
0
 62
     0
 10
4.63488
 20
0.0410156
 30
0.0
 11
4.41124
 21
0.105089
 31
0.0
  0
LINE
  8
0
 62
     0
 10
4.41124
 20
0.105089
 30
0.0
 11
4.19265
 21
0.202257
 31
0.0
  0
LINE
  8
0
 62
     0
 10
4.19265
 20
0.202257
 30
0.0
 11
3.98801
 21
0.32601
 31
0.0
  0
LINE
  8
0
 62
     0
 10
3.98801
 20
0.32601
 30
0.0
 11
3.79742
 21
0.480957
 31
0.0
  0
LINE
  8
0
 62
     0
 10
3.79742
 20
0.480957
 30
0.0
 11
3.62776
 21
0.658638
 31
0.0
  0
LINE
  8
0
 62
     0
 10
3.62776
 20
0.658638
 30
0.0
 11
3.48053
 21
0.863281
 31
0.0
  0
LINE
  8
0
 62
     0
 10
3.48053
 20
0.863281
 30
0.0
 11
3.36008
 21
1.08474
 31
0.0
  0
LINE
  8
0
 62
     0
 10
3.36008
 20
1.08474
 30
0.0
 11
3.2691
 21
1.32688
 31
0.0
  0
LINE
  8
0
 62
     0
 10
3.2691
 20
1.32688
 30
0.0
 11
3.20925
 21
1.5784
 31
0.0
  0
LINE
  8
0
 62
     0
 10
3.20925
 20
1.5784
 30
0.0
 11
3.15657
 21
1.77843
 31
0.0
  0
LINE
  8
0
 62
     0
 10
3.15657
 20
1.77843
 30
0.0
 11
3.07915
 21
1.97011
 31
0.0
  0
LINE
  8
0
 62
     0
 10
3.07915
 20
1.97011
 30
0.0
 11
2.97906
 21
2.14367
 31
0.0
  0
LINE
  8
0
 62
     0
 10
2.97906
 20
2.14367
 30
0.0
 11
2.85792
 21
2.30311
 31
0.0
  0
LINE
  8
0
 62
     0
 10
2.85792
 20
2.30311
 30
0.0
 11
2.72032
 21
2.43972
 31
0.0
  0
LINE
  8
0
 62
     0
 10
2.72032
 20
2.43972
 30
0.0
 11
2.56662
 21
2.55783
 31
0.0
  0
LINE
  8
0
 62
     0
 10
2.56662
 20
2.55783
 30
0.0
 11
2.40354
 21
2.65022
 31
0.0
  0
LINE
  8
0
 62
     0
 10
2.40354
 20
2.65022
 30
0.0
 11
2.23019
 21
2.72125
 31
0.0
  0
LINE
  8
0
 62
     0
 10
2.23019
 20
2.72125
 30
0.0
 11
2.05479
 21
2.7659
 31
0.0
  0
LINE
  8
0
 62
     0
 10
2.05479
 20
2.7659
 30
0.0
 11
1.87528
 21
2.78792
 31
0.0
  0
LINE
  8
0
 62
     0
 10
1.87528
 20
2.78792
 30
0.0
 11
1.70079
 21
2.78483
 31
0.0
  0
LINE
  8
0
 62
     0
 10
1.70079
 20
2.78483
 30
0.0
 11
1.52815
 21
2.75965
 31
0.0
  0
LINE
  8
0
 62
     0
 10
1.52815
 20
2.75965
 30
0.0
 11
1.36686
 21
2.71246
 31
0.0
  0
LINE
  8
0
 62
     0
 10
1.36686
 20
2.71246
 30
0.0
 11
1.21294
 21
2.64507
 31
0.0
  0
LINE
  8
0
 62
     0
 10
1.21294
 20
2.64507
 30
0.0
 11
1.07541
 21
2.56028
 31
0.0
  0
LINE
  8
0
 62
     0
 10
1.07541
 20
2.56028
 30
0.0
 11
0.949761
 21
2.45865
 31
0.0
  0
LINE
  8
0
 62
     0
 10
0.949761
 20
2.45865
 30
0.0
 11
0.843967
 21
2.34517
 31
0.0
  0
LINE
  8
0
 62
     0
 10
0.843967
 20
2.34517
 30
0.0
 11
0.753581
 21
2.21912
 31
0.0
  0
LINE
  8
0
 62
     0
 10
0.753581
 20
2.21912
 30
0.0
 11
0.684679
 21
2.08729
 31
0.0
  0
LINE
  8
0
 62
     0
 10
0.684679
 20
2.08729
 30
0.0
 11
0.633192
 21
1.94775
 31
0.0
  0
LINE
  8
0
 62
     0
 10
0.633192
 20
1.94775
 30
0.0
 11
0.60319
 21
1.80871
 31
0.0
  0
LINE
  8
0
 62
     0
 10
0.60319
 20
1.80871
 30
0.0
 11
0.591308
 21
1.66689
 31
0.0
  0
LINE
  8
0
 62
     0
 10
0.591308
 20
1.66689
 30
0.0
 11
0.599121
 21
1.53125
 31
0.0
  0
LINE
  8
0
 62
     0
 10
0.599121
 20
1.53125
 30
0.0
 11
0.624349
 21
1.39774
 31
0.0
  0
LINE
  8
0
 62
     0
 10
0.624349
 20
1.39774
 30
0.0
 11
0.666124
 21
1.27512
 31
0.0
  0
LINE
  8
0
 62
     0
 10
0.666124
 20
1.27512
 30
0.0
 11
0.723307
 21
1.15896
 31
0.0
  0
LINE
  8
0
 62
     0
 10
0.723307
 20
1.15896
 30
0.0
 11
0.79286
 21
1.0574
 31
0.0
  0
LINE
  8
0
 62
     0
 10
0.79286
 20
1.0574
 30
0.0
 11
0.874946
 21
0.965603
 31
0.0
  0
LINE
  8
0
 62
     0
 10
0.874946
 20
0.965603
 30
0.0
 11
0.964356
 21
0.890625
 31
0.0
  0
LINE
  8
0
 62
     0
 10
0.964356
 20
0.890625
 30
0.0
 11
1.06277
 21
0.827854
 31
0.0
  0
LINE
  8
0
 62
     0
 10
1.06277
 20
0.827854
 30
0.0
 11
1.16336
 21
0.782497
 31
0.0
  0
LINE
  8
0
 62
     0
 10
1.16336
 20
0.782497
 30
0.0
 11
1.26904
 21
0.750651
 31
0.0
  0
LINE
  8
0
 62
     0
 10
1.26904
 20
0.750651
 30
0.0
 11
1.37191
 21
0.735243
 31
0.0
  0
LINE
  8
0
 62
     0
 10
1.37191
 20
0.735243
 30
0.0
 11
1.47592
 21
0.733453
 31
0.0
  0
LINE
  8
0
 62
     0
 10
1.47592
 20
0.733453
 30
0.0
 11
1.57281
 21
0.746039
 31
0.0
  0
LINE
  8
0
 62
     0
 10
1.57281
 20
0.746039
 30
0.0
 11
1.66721
 21
0.771267
 31
0.0
  0
LINE
  8
0
 62
     0
 10
1.66721
 20
0.771267
 30
0.0
 11
1.75108
 21
0.807563
 31
0.0
  0
LINE
  8
0
 62
     0
 10
1.75108
 20
0.807563
 30
0.0
 11
1.82943
 21
0.85471
 31
0.0
  0
LINE
  8
0
 62
     0
 10
1.82943
 20
0.85471
 30
0.0
 11
1.89513
 21
0.908962
 31
0.0
  0
LINE
  8
0
 62
     0
 10
1.89513
 20
0.908962
 30
0.0
 11
1.9529
 21
0.971462
 31
0.0
  0
LINE
  8
0
 62
     0
 10
1.9529
 20
0.971462
 30
0.0
 11
1.99724
 21
1.03684
 31
0.0
  0
LINE
  8
0
 62
     0
 10
1.99724
 20
1.03684
 30
0.0
 11
2.03222
 21
1.10758
 31
0.0
  0
LINE
  8
0
 62
     0
 10
2.03222
 20
1.10758
 30
0.0
 11
2.05419
 21
1.17703
 31
0.0
  0
LINE
  8
0
 62
     0
 10
2.05419
 20
1.17703
 30
0.0
 11
2.0664
 21
1.24875
 31
0.0
  0
LINE
  8
0
 62
     0
 10
2.0664
 20
1.24875
 30
0.0
 11
2.06728
 21
1.31548
 31
0.0
  0
LINE
  8
0
 62
     0
 10
2.06728
 20
1.31548
 30
0.0
 11
2.05875
 21
1.38162
 31
0.0
  0
LINE
  8
0
 62
     0
 10
2.05875
 20
1.38162
 30
0.0
 11
2.04161
 21
1.43989
 31
0.0
  0
LINE
  8
0
 62
     0
 10
2.04161
 20
1.43989
 30
0.0
 11
2.01622
 21
1.49501
 31
0.0
  0
LINE
  8
0
 62
     0
 10
2.01622
 20
1.49501
 30
0.0
 11
1.98546
 21
1.54047
 31
0.0
  0
LINE
  8
0
 62
     0
 10
1.98546
 20
1.54047
 30
0.0
 11
1.94835
 21
1.58072
 31
0.0
  0
LINE
  8
0
 62
     0
 10
1.94835
 20
1.58072
 30
0.0
 11
1.90944
 21
1.61083
 31
0.0
  0
LINE
  8
0
 62
     0
 10
1.90944
 20
1.61083
 30
0.0
 11
1.86643
 21
1.63444
 31
0.0
  0
LINE
  8
0
 62
     0
 10
1.86643
 20
1.63444
 30
0.0
 11
1.82503
 21
1.64839
 31
0.0
  0
LINE
  8
0
 62
     0
 10
1.82503
 20
1.64839
 30
0.0
 11
1.78201
 21
1.65528
 31
0.0
  0
LINE
  8
0
 62
     0
 10
1.78201
 20
1.65528
 30
0.0
 11
1.74354
 21
1.65419
 31
0.0
  0
LINE
  8
0
 62
     0
 10
1.74354
 20
1.65419
 30
0.0
 11
1.70589
 21
1.64632
 31
0.0
  0
LINE
  8
0
 62
     0
 10
1.70589
 20
1.64632
 30
0.0
 11
1.67492
 21
1.63297
 31
0.0
  0
LINE
  8
0
 62
     0
 10
1.67492
 20
1.63297
 30
0.0
 11
1.64708
 21
1.61393
 31
0.0
  0
LINE
  8
0
 62
     0
 10
1.64708
 20
1.61393
 30
0.0
 11
1.62679
 21
1.59218
 31
0.0
  0
LINE
  8
0
 62
     0
 10
1.62679
 20
1.59218
 30
0.0
 11
1.6116
 21
1.56668
 31
0.0
  0
LINE
  8
0
 62
     0
 10
1.6116
 20
1.56668
 30
0.0
 11
1.60389
 21
1.54101
 31
0.0
  0
LINE
  8
0
 62
     0
 10
1.60389
 20
1.54101
 30
0.0
 11
1.60232
 21
1.51432
 31
0.0
  0
LINE
  8
0
 62
     0
 10
1.60232
 20
1.51432
 30
0.0
 11
1.60753
 21
1.48981
 31
0.0
  0
LINE
  8
0
 62
     0
 10
1.60753
 20
1.48981
 30
0.0
 11
1.61854
 21
1.46718
 31
0.0
  0
LINE
  8
0
 62
     0
 10
1.61854
 20
1.46718
 30
0.0
 11
1.6295
 21
1.44467
 31
0.0
  0
LINE
  8
0
 62
     0
 10
1.6295
 20
1.44467
 30
0.0
 11
1.63476
 21
1.42008
 31
0.0
  0
LINE
  8
0
 62
     0
 10
1.63476
 20
1.42008
 30
0.0
 11
1.63314
 21
1.39344
 31
0.0
  0
LINE
  8
0
 62
     0
 10
1.63314
 20
1.39344
 30
0.0
 11
1.62549
 21
1.36778
 31
0.0
  0
LINE
  8
0
 62
     0
 10
1.62549
 20
1.36778
 30
0.0
 11
1.61025
 21
1.34234
 31
0.0
  0
LINE
  8
0
 62
     0
 10
1.61025
 20
1.34234
 30
0.0
 11
1.59
 21
1.32042
 31
0.0
  0
LINE
  8
0
 62
     0
 10
1.59
 20
1.32042
 30
0.0
 11
1.56213
 21
1.30149
 31
0.0
  0
LINE
  8
0
 62
     0
 10
1.56213
 20
1.30149
 30
0.0
 11
1.53114
 21
1.28803
 31
0.0
  0
LINE
  8
0
 62
     0
 10
1.53114
 20
1.28803
 30
0.0
 11
1.49349
 21
1.28027
 31
0.0
  0
LINE
  8
0
 62
     0
 10
1.49349
 20
1.28027
 30
0.0
 11
1.45508
 21
1.27913
 31
0.0
  0
LINE
  8
0
 62
     0
 10
1.45508
 20
1.27913
 30
0.0
 11
1.412
 21
1.28613
 31
0.0
  0
LINE
  8
0
 62
     0
 10
1.412
 20
1.28613
 30
0.0
 11
1.37066
 21
1.30002
 31
0.0
  0
LINE
  8
0
 62
     0
 10
1.37066
 20
1.30002
 30
0.0
 11
1.32758
 21
1.32362
 31
0.0
  0
LINE
  8
0
 62
     0
 10
1.32758
 20
1.32362
 30
0.0
 11
1.28874
 21
1.35368
 31
0.0
  0
LINE
  8
0
 62
     0
 10
1.28874
 20
1.35368
 30
0.0
 11
1.25157
 21
1.39399
 31
0.0
  0
LINE
  8
0
 62
     0
 10
1.25157
 20
1.39399
 30
0.0
 11
1.22087
 21
1.4394
 31
0.0
  0
LINE
  8
0
 62
     0
 10
1.22087
 20
1.4394
 30
0.0
 11
1.19542
 21
1.49457
 31
0.0
  0
LINE
  8
0
 62
     0
 10
1.19542
 20
1.49457
 30
0.0
 11
1.17828
 21
1.55285
 31
0.0
  0
LINE
  8
0
 62
     0
 10
1.17828
 20
1.55285
 30
0.0
 11
1.16976
 21
1.61892
 31
0.0
  0
LINE
  8
0
 62
     0
 10
1.16976
 20
1.61892
 30
0.0
 11
1.17068
 21
1.68565
 31
0.0
  0
LINE
  8
0
 62
     0
 10
1.17068
 20
1.68565
 30
0.0
 11
1.18283
 21
1.75743
 31
0.0
  0
LINE
  8
0
 62
     0
 10
1.18283
 20
1.75743
 30
0.0
 11
1.20486
 21
1.82682
 31
0.0
  0
LINE
  8
0
 62
     0
 10
1.20486
 20
1.82682
 30
0.0
 11
1.2398
 21
1.89762
 31
0.0
  0
LINE
  8
0
 62
     0
 10
1.2398
 20
1.89762
 30
0.0
 11
1.28418
 21
1.96294
 31
0.0
  0
LINE
  8
0
 62
     0
 10
1.28418
 20
1.96294
 30
0.0
 11
1.34191
 21
2.0255
 31
0.0
  0
LINE
  8
0
 62
     0
 10
1.34191
 20
2.0255
 30
0.0
 11
1.40767
 21
2.07969
 31
0.0
  0
LINE
  8
0
 62
     0
 10
1.40767
 20
2.07969
 30
0.0
 11
1.48589
 21
2.1269
 31
0.0
  0
LINE
  8
0
 62
     0
 10
1.48589
 20
2.1269
 30
0.0
 11
1.56987
 21
2.16314
 31
0.0
  0
LINE
  8
0
 62
     0
 10
1.56987
 20
2.16314
 30
0.0
 11
1.66422
 21
2.18842
 31
0.0
  0
LINE
  8
0
 62
     0
 10
1.66422
 20
2.18842
 30
0.0
 11
1.76118
 21
2.20096
 31
0.0
  0
LINE
  8
0
 62
     0
 10
1.76118
 20
2.20096
 30
0.0
 11
1.86513
 21
2.19922
 31
0.0
  0
LINE
  8
0
 62
     0
 10
1.86513
 20
2.19922
 30
0.0
 11
1.96804
 21
2.18381
 31
0.0
  0
LINE
  8
0
 62
     0
 10
1.96804
 20
2.18381
 30
0.0
 11
2.07368
 21
2.15196
 31
0.0
  0
LINE
  8
0
 62
     0
 10
2.07368
 20
2.15196
 30
0.0
 11
2.17432
 21
2.10656
 31
0.0
  0
LINE
  8
0
 62
     0
 10
2.17432
 20
2.10656
 30
0.0
 11
2.27268
 21
2.04383
 31
0.0
  0
LINE
  8
0
 62
     0
 10
2.27268
 20
2.04383
 30
0.0
 11
2.36214
 21
1.96881
 31
0.0
  0
LINE
  8
0
 62
     0
 10
2.36214
 20
1.96881
 30
0.0
 11
2.44417
 21
1.87706
 31
0.0
  0
LINE
  8
0
 62
     0
 10
2.44417
 20
1.87706
 30
0.0
 11
2.51372
 21
1.77544
 31
0.0
  0
LINE
  8
0
 62
     0
 10
2.51372
 20
1.77544
 30
0.0
 11
2.5709
 21
1.65935
 31
0.0
  0
LINE
  8
0
 62
     0
 10
2.5709
 20
1.65935
 30
0.0
 11
2.61274
 21
1.53674
 31
0.0
  0
LINE
  8
0
 62
     0
 10
2.61274
 20
1.53674
 30
0.0
 11
2.63792
 21
1.40321
 31
0.0
  0
LINE
  8
0
 62
     0
 10
2.63792
 20
1.40321
 30
0.0
 11
2.64578
 21
1.26752
 31
0.0
  0
LINE
  8
0
 62
     0
 10
2.64578
 20
1.26752
 30
0.0
 11
2.63385
 21
1.12576
 31
0.0
  0
LINE
  8
0
 62
     0
 10
2.63385
 20
1.12576
 30
0.0
 11
2.60385
 21
0.9866
 31
0.0
  0
LINE
  8
0
 62
     0
 10
2.60385
 20
0.9866
 30
0.0
 11
2.55236
 21
0.847168
 31
0.0
  0
LINE
  8
0
 62
     0
 10
2.55236
 20
0.847168
 30
0.0
 11
2.4835
 21
0.715332
 31
0.0
  0
LINE
  8
0
 62
     0
 10
2.4835
 20
0.715332
 30
0.0
 11
2.39307
 21
0.589301
 31
0.0
  0
LINE
  8
0
 62
     0
 10
2.39307
 20
0.589301
 30
0.0
 11
2.28733
 21
0.475749
 31
0.0
  0
LINE
  8
0
 62
     0
 10
2.28733
 20
0.475749
 30
0.0
 11
2.16168
 21
0.374132
 31
0.0
  0
LINE
  8
0
 62
     0
 10
2.16168
 20
0.374132
 30
0.0
 11
2.02414
 21
0.289279
 31
0.0
  0
LINE
  8
0
 62
     0
 10
2.02414
 20
0.289279
 30
0.0
 11
1.87017
 21
0.222006
 31
0.0
  0
LINE
  8
0
 62
     0
 10
1.87017
 20
0.222006
 30
0.0
 11
1.70893
 21
0.17475
 31
0.0
  0
LINE
  8
0
 62
     0
 10
1.70893
 20
0.17475
 30
0.0
 11
1.53624
 21
0.149576
 31
0.0
  0
LINE
  8
0
 62
     0
 10
1.53624
 20
0.149576
 30
0.0
 11
1.36182
 21
0.146539
 31
0.0
  0
LINE
  8
0
 62
     0
 10
1.36182
 20
0.146539
 30
0.0
 11
1.18224
 21
0.168565
 31
0.0
  0
LINE
  8
0
 62
     0
 10
1.18224
 20
0.168565
 30
0.0
 11
1.00689
 21
0.213163
 31
0.0
  0
LINE
  8
0
 62
     0
 10
1.00689
 20
0.213163
 30
0.0
 11
0.833496
 21
0.284233
 31
0.0
  0
LINE
  8
0
 62
     0
 10
0.833496
 20
0.284233
 30
0.0
 11
0.670464
 21
0.376574
 31
0.0
  0
LINE
  8
0
 62
     0
 10
0.670464
 20
0.376574
 30
0.0
 11
0.516764
 21
0.494738
 31
0.0
  0
LINE
  8
0
 62
     0
 10
0.516764
 20
0.494738
 30
0.0
 11
0.379178
 21
0.631239
 31
0.0
  0
LINE
  8
0
 62
     0
 10
0.379178
 20
0.631239
 30
0.0
 11
0.257975
 21
0.790799
 31
0.0
  0
LINE
  8
0
 62
     0
 10
0.257975
 20
0.790799
 30
0.0
 11
0.157932
 21
0.964301
 31
0.0
  0
LINE
  8
0
 62
     0
 10
0.157932
 20
0.964301
 30
0.0
 11
0.0805122
 21
1.15603
 31
0.0
  0
LINE
  8
0
 62
     0
 10
0.0805122
 20
1.15603
 30
0.0
 11
0.0278321
 21
1.35601
 31
0.0
  0
LINE
  8
0
 62
     0
 10
0.0278321
 20
1.35601
 30
0.0
 11
0.00265842
 21
1.56776
 31
0.0
  0
LINE
  8
0
 62
     0
 10
0.00265842
 20
1.56776
 30
0.0
 11
0.00434028
 21
1.78097
 31
0.0
  0
LINE
  8
0
 62
     0
 10
0.00434028
 20
1.78097
 30
0.0
 11
0.0364583
 21
1.99837
 31
0.0
  0
LINE
  8
0
 62
     0
 10
0.0364583
 20
1.99837
 30
0.0
 11
0.0957574
 21
2.2099
 31
0.0
  0
LINE
  8
0
 62
     0
 10
0.0957574
 20
2.2099
 30
0.0
 11
0.186307
 21
2.41721
 31
0.0
  0
LINE
  8
0
 62
     0
 10
0.186307
 20
2.41721
 30
0.0
 11
0.302246
 21
2.61143
 31
0.0
  0
LINE
  8
0
 62
     0
 10
0.302246
 20
2.61143
 30
0.0
 11
0.447971
 21
2.79281
 31
0.0
  0
LINE
  8
0
 62
     0
 10
0.447971
 20
2.79281
 30
0.0
 11
0.615397
 21
2.95449
 31
0.0
  0
LINE
  8
0
 62
     0
 10
0.615397
 20
2.95449
 30
0.0
 11
0.808757
 21
3.09521
 31
0.0
  0
LINE
  8
0
 62
     0
 10
0.808757
 20
3.09521
 30
0.0
 11
1.01828
 21
3.2105
 31
0.0
  0
LINE
  8
0
 62
     0
 10
1.01828
 20
3.2105
 30
0.0
 11
1.24772
 21
3.29807
 31
0.0
  0
LINE
  8
0
 62
     0
 10
1.24772
 20
3.29807
 30
0.0
 11
1.48643
 21
3.35618
 31
0.0
  0
LINE
  8
0
 62
     0
 10
1.48643
 20
3.35618
 30
0.0
 11
1.73725
 21
3.3814
 31
0.0
  0
LINE
  8
0
 62
     0
 10
1.73725
 20
3.3814
 30
0.0
 11
1.98936
 21
3.37489
 31
0.0
  0
LINE
  8
0
 62
     0
 10
1.98936
 20
3.37489
 30
0.0
 11
2.24447
 21
3.33268
 31
0.0
  0
LINE
  8
0
 62
     0
 10
2.24447
 20
3.33268
 30
0.0
 11
2.49229
 21
3.25874
 31
0.0
  0
LINE
  8
0
 62
     0
 10
2.49229
 20
3.25874
 30
0.0
 11
2.69179
 21
3.20437
 31
0.0
  0
LINE
  8
0
 62
     0
 10
2.69179
 20
3.20437
 30
0.0
 11
2.8966
 21
3.17557
 31
0.0
  0
LINE
  8
0
 62
     0
 10
2.8966
 20
3.17557
 30
0.0
 11
3.0969
 21
3.17551
 31
0.0
  0
LINE
  8
0
 62
     0
 10
3.0969
 20
3.17551
 30
0.0
 11
3.29563
 21
3.20063
 31
0.0
  0
LINE
  8
0
 62
     0
 10
3.29563
 20
3.20063
 30
0.0
 11
3.48264
 21
3.25151
 31
0.0
  0
LINE
  8
0
 62
     0
 10
3.48264
 20
3.25151
 30
0.0
 11
3.66183
 21
3.32553
 31
0.0
  0
LINE
  8
0
 62
     0
 10
3.66183
 20
3.32553
 30
0.0
 11
3.82329
 21
3.42057
 31
0.0
  0
LINE
  8
0
 62
     0
 10
3.82329
 20
3.42057
 30
0.0
 11
3.97157
 21
3.53515
 31
0.0
  0
LINE
  8
0
 62
     0
 10
3.97157
 20
3.53515
 30
0.0
 11
4.09782
 21
3.66482
 31
0.0
  0
LINE
  8
0
 62
     0
 10
4.09782
 20
3.66482
 30
0.0
 11
4.20676
 21
3.80925
 31
0.0
  0
LINE
  8
0
 62
     0
 10
4.20676
 20
3.80925
 30
0.0
 11
4.29129
 21
3.96192
 31
0.0
  0
LINE
  8
0
 62
     0
 10
4.29129
 20
3.96192
 30
0.0
 11
4.35585
 21
4.12403
 31
0.0
  0
LINE
  8
0
 62
     0
 10
4.35585
 20
4.12403
 30
0.0
 11
4.39551
 21
4.28728
 31
0.0
  0
LINE
  8
0
 62
     0
 10
4.39551
 20
4.28728
 30
0.0
 11
4.41422
 21
4.45421
 31
0.0
  0
LINE
  8
0
 62
     0
 10
4.41422
 20
4.45421
 30
0.0
 11
4.4095
 21
4.61583
 31
0.0
  0
LINE
  8
0
 62
     0
 10
4.4095
 20
4.61583
 30
0.0
 11
4.38439
 21
4.77533
 31
0.0
  0
LINE
  8
0
 62
     0
 10
4.38439
 20
4.77533
 30
0.0
 11
4.33892
 21
4.92372
 31
0.0
  0
LINE
  8
0
 62
     0
 10
4.33892
 20
4.92372
 30
0.0
 11
4.27501
 21
5.06506
 31
0.0
  0
LINE
  8
0
 62
     0
 10
4.27501
 20
5.06506
 30
0.0
 11
4.19526
 21
5.19065
 31
0.0
  0
LINE
  8
0
 62
     0
 10
4.19526
 20
5.19065
 30
0.0
 11
4.10021
 21
5.30501
 31
0.0
  0
LINE
  8
0
 62
     0
 10
4.10021
 20
5.30501
 30
0.0
 11
3.99468
 21
5.4005
 31
0.0
  0
LINE
  8
0
 62
     0
 10
3.99468
 20
5.4005
 30
0.0
 11
3.87788
 21
5.48167
 31
0.0
  0
LINE
  8
0
 62
     0
 10
3.87788
 20
5.48167
 30
0.0
 11
3.75646
 21
5.54275
 31
0.0
  0
LINE
  8
0
 62
     0
 10
3.75646
 20
5.54275
 30
0.0
 11
3.62825
 21
5.58767
 31
0.0
  0
LINE
  8
0
 62
     0
 10
3.62825
 20
5.58767
 30
0.0
 11
3.50119
 21
5.61279
 31
0.0
  0
LINE
  8
0
 62
     0
 10
3.50119
 20
5.61279
 30
0.0
 11
3.37201
 21
5.62131
 31
0.0
  0
LINE
  8
0
 62
     0
 10
3.37201
 20
5.62131
 30
0.0
 11
3.24924
 21
5.61193
 31
0.0
  0
LINE
  8
0
 62
     0
 10
3.24924
 20
5.61193
 30
0.0
 11
3.12879
 21
5.58669
 31
0.0
  0
LINE
  8
0
 62
     0
 10
3.12879
 20
5.58669
 30
0.0
 11
3.0191
 21
5.54676
 31
0.0
  0
LINE
  8
0
 62
     0
 10
3.0191
 20
5.54676
 30
0.0
 11
2.91553
 21
5.49289
 31
0.0
  0
LINE
  8
0
 62
     0
 10
2.91553
 20
5.49289
 30
0.0
 11
2.8259
 21
5.42854
 31
0.0
  0
LINE
  8
0
 62
     0
 10
2.8259
 20
5.42854
 30
0.0
 11
2.7455
 21
5.35292
 31
0.0
  0
LINE
  8
0
 62
     0
 10
2.7455
 20
5.35292
 30
0.0
 11
2.68072
 21
5.27154
 31
0.0
  0
LINE
  8
0
 62
     0
 10
2.68072
 20
5.27154
 30
0.0
 11
2.62722
 21
5.18235
 31
0.0
  0
LINE
  8
0
 62
     0
 10
2.62722
 20
5.18235
 30
0.0
 11
2.58963
 21
5.09212
 31
0.0
  0
LINE
  8
0
 62
     0
 10
2.58963
 20
5.09212
 30
0.0
 11
2.56429
 21
4.99778
 31
0.0
  0
LINE
  8
0
 62
     0
 10
2.56429
 20
4.99778
 30
0.0
 11
2.55376
 21
4.90696
 31
0.0
  0
LINE
  8
0
 62
     0
 10
2.55376
 20
4.90696
 30
0.0
 11
2.55544
 21
4.8156
 31
0.0
  0
LINE
  8
0
 62
     0
 10
2.55544
 20
4.8156
 30
0.0
 11
2.5695
 21
4.73156
 31
0.0
  0
LINE
  8
0
 62
     0
 10
2.5695
 20
4.73156
 30
0.0
 11
2.59483
 21
4.65022
 31
0.0
  0
LINE
  8
0
 62
     0
 10
2.59483
 20
4.65022
 30
0.0
 11
2.62924
 21
4.57921
 31
0.0
  0
LINE
  8
0
 62
     0
 10
2.62924
 20
4.57921
 30
0.0
 11
2.67307
 21
4.51351
 31
0.0
  0
LINE
  8
0
 62
     0
 10
2.67307
 20
4.51351
 30
0.0
 11
2.72211
 21
4.45975
 31
0.0
  0
LINE
  8
0
 62
     0
 10
2.72211
 20
4.45975
 30
0.0
 11
2.77821
 21
4.41331
 31
0.0
  0
LINE
  8
0
 62
     0
 10
2.77821
 20
4.41331
 30
0.0
 11
2.83556
 21
4.37918
 31
0.0
  0
LINE
  8
0
 62
     0
 10
2.83556
 20
4.37918
 30
0.0
 11
2.89714
 21
4.35346
 31
0.0
  0
LINE
  8
0
 62
     0
 10
2.89714
 20
4.35346
 30
0.0
 11
2.95611
 21
4.33925
 31
0.0
  0
LINE
  8
0
 62
     0
 10
2.95611
 20
4.33925
 30
0.0
 11
3.0166
 21
4.33361
 31
0.0
  0
LINE
  8
0
 62
     0
 10
3.0166
 20
4.33361
 30
0.0
 11
3.07129
 21
4.33757
 31
0.0
  0
LINE
  8
0
 62
     0
 10
3.07129
 20
4.33757
 30
0.0
 11
3.12478
 21
4.3495
 31
0.0
  0
LINE
  8
0
 62
     0
 10
3.12478
 20
4.3495
 30
0.0
 11
3.17019
 21
4.36822
 31
0.0
  0
LINE
  8
0
 62
     0
 10
3.17019
 20
4.36822
 30
0.0
 11
3.21218
 21
4.39372
 31
0.0
  0
LINE
  8
0
 62
     0
 10
3.21218
 20
4.39372
 30
0.0
 11
3.2449
 21
4.42253
 31
0.0
  0
LINE
  8
0
 62
     0
 10
3.2449
 20
4.42253
 30
0.0
 11
3.27246
 21
4.45632
 31
0.0
  0
LINE
  8
0
 62
     0
 10
3.27246
 20
4.45632
 30
0.0
 11
3.29069
 21
4.49018
 31
0.0
  0
LINE
  8
0
 62
     0
 10
3.29069
 20
4.49018
 30
0.0
 11
3.30279
 21
4.52675
 31
0.0
  0
LINE
  8
0
 62
     0
 10
3.30279
 20
4.52675
 30
0.0
 11
3.30669
 21
4.56028
 31
0.0
  0
LINE
  8
0
 62
     0
 10
3.30669
 20
4.56028
 30
0.0
 11
3.30414
 21
4.59392
 31
0.0
  0
LINE
  8
0
 62
     0
 10
3.30414
 20
4.59392
 30
0.0
 11
3.29536
 21
4.62235
 31
0.0
  0
LINE
  8
0
 62
     0
 10
3.29536
 20
4.62235
 30
0.0
 11
3.28093
 21
4.64828
 31
0.0
  0
LINE
  8
0
 62
     0
 10
3.28093
 20
4.64828
 30
0.0
 11
3.26253
 21
4.66769
 31
0.0
  0
LINE
  8
0
 62
     0
 10
3.26253
 20
4.66769
 30
0.0
 11
3.24024
 21
4.68246
 31
0.0
  0
LINE
  8
0
 62
     0
 10
3.24024
 20
4.68246
 30
0.0
 11
3.21636
 21
4.69021
 31
0.0
  0
LINE
  8
0
 62
     0
 10
3.21636
 20
4.69021
 30
0.0
 11
3.19135
 21
4.69189
 31
0.0
  0
LINE
  8
0
 62
     0
 10
3.19135
 20
4.69189
 30
0.0
 11
3.16629
 21
4.69374
 31
0.0
  0
LINE
  8
0
 62
     0
 10
3.16629
 20
4.69374
 30
0.0
 11
3.14242
 21
4.7015
 31
0.0
  0
LINE
  8
0
 62
     0
 10
3.14242
 20
4.7015
 30
0.0
 11
3.12011
 21
4.71619
 31
0.0
  0
LINE
  8
0
 62
     0
 10
3.12011
 20
4.71619
 30
0.0
 11
3.10178
 21
4.73568
 31
0.0
  0
LINE
  8
0
 62
     0
 10
3.10178
 20
4.73568
 30
0.0
 11
3.08729
 21
4.76161
 31
0.0
  0
LINE
  8
0
 62
     0
 10
3.08729
 20
4.76161
 30
0.0
 11
3.0785
 21
4.79004
 31
0.0
  0
LINE
  8
0
 62
     0
 10
3.0785
 20
4.79004
 30
0.0
 11
3.07596
 21
4.82368
 31
0.0
  0
LINE
  8
0
 62
     0
 10
3.07596
 20
4.82368
 30
0.0
 11
3.07986
 21
4.85721
 31
0.0
  0
LINE
  8
0
 62
     0
 10
3.07986
 20
4.85721
 30
0.0
 11
3.0919
 21
4.89367
 31
0.0
  0
LINE
  8
0
 62
     0
 10
3.0919
 20
4.89367
 30
0.0
 11
3.11025
 21
4.92751
 31
0.0
  0
LINE
  8
0
 62
     0
 10
3.11025
 20
4.92751
 30
0.0
 11
3.13775
 21
4.96132
 31
0.0
  0
LINE
  8
0
 62
     0
 10
3.13775
 20
4.96132
 30
0.0
 11
3.17046
 21
4.99024
 31
0.0
  0
LINE
  8
0
 62
     0
 10
3.17046
 20
4.99024
 30
0.0
 11
3.2124
 21
5.01574
 31
0.0
  0
LINE
  8
0
 62
     0
 10
3.2124
 20
5.01574
 30
0.0
 11
3.25792
 21
5.03435
 31
0.0
  0
LINE
  8
0
 62
     0
 10
3.25792
 20
5.03435
 30
0.0
 11
3.31136
 21
5.04639
 31
0.0
  0
LINE
  8
0
 62
     0
 10
3.31136
 20
5.04639
 30
0.0
 11
3.3661
 21
5.05024
 31
0.0
  0
LINE
  8
0
 62
     0
 10
3.3661
 20
5.05024
 30
0.0
 11
3.42649
 21
5.04471
 31
0.0
  0
LINE
  8
0
 62
     0
 10
3.42649
 20
5.04471
 30
0.0
 11
3.48557
 21
5.03039
 31
0.0
  0
LINE
  8
0
 62
     0
 10
3.48557
 20
5.03039
 30
0.0
 11
3.5471
 21
5.00472
 31
0.0
  0
LINE
  8
0
 62
     0
 10
3.5471
 20
5.00472
 30
0.0
 11
3.60444
 21
4.9706
 31
0.0
  0
LINE
  8
0
 62
     0
 10
3.60444
 20
4.9706
 30
0.0
 11
3.66049
 21
4.92421
 31
0.0
  0
LINE
  8
0
 62
     0
 10
3.66049
 20
4.92421
 30
0.0
 11
3.70964
 21
4.87044
 31
0.0
  0
LINE
  8
0
 62
     0
 10
3.70964
 20
4.87044
 30
0.0
 11
3.75342
 21
4.80474
 31
0.0
  0
LINE
  8
0
 62
     0
 10
3.75342
 20
4.80474
 30
0.0
 11
3.78787
 21
4.73361
 31
0.0
  0
LINE
  8
0
 62
     0
 10
3.78787
 20
4.73361
 30
0.0
 11
3.8131
 21
4.65235
 31
0.0
  0
LINE
  8
0
 62
     0
 10
3.8131
 20
4.65235
 30
0.0
 11
3.82725
 21
4.56836
 31
0.0
  0
LINE
  8
0
 62
     0
 10
3.82725
 20
4.56836
 30
0.0
 11
3.82889
 21
4.47694
 31
0.0
  0
LINE
  8
0
 62
     0
 10
3.82889
 20
4.47694
 30
0.0
 11
3.81836
 21
4.38612
 31
0.0
  0
LINE
  8
0
 62
     0
 10
3.81836
 20
4.38612
 30
0.0
 11
3.79303
 21
4.29178
 31
0.0
  0
LINE
  8
0
 62
     0
 10
3.79303
 20
4.29178
 30
0.0
 11
3.75549
 21
4.20156
 31
0.0
  0
LINE
  8
0
 62
     0
 10
3.75549
 20
4.20156
 30
0.0
 11
3.70193
 21
4.11236
 31
0.0
  0
LINE
  8
0
 62
     0
 10
3.70193
 20
4.11236
 30
0.0
 11
3.63721
 21
4.03093
 31
0.0
  0
LINE
  8
0
 62
     0
 10
3.63721
 20
4.03093
 30
0.0
 11
3.55669
 21
3.9554
 31
0.0
  0
LINE
  8
0
 62
     0
 10
3.55669
 20
3.9554
 30
0.0
 11
3.46712
 21
3.89094
 31
0.0
  0
LINE
  8
0
 62
     0
 10
3.46712
 20
3.89094
 30
0.0
 11
3.36356
 21
3.83713
 31
0.0
  0
LINE
  8
0
 62
     0
 10
3.36356
 20
3.83713
 30
0.0
 11
3.2539
 21
3.79715
 31
0.0
  0
LINE
  8
0
 62
     0
 10
3.2539
 20
3.79715
 30
0.0
 11
3.1334
 21
3.77197
 31
0.0
  0
LINE
  8
0
 62
     0
 10
3.1334
 20
3.77197
 30
0.0
 11
3.01069
 21
3.76253
 31
0.0
  0
LINE
  8
0
 62
     0
 10
3.01069
 20
3.76253
 30
0.0
 11
2.88146
 21
3.77111
 31
0.0
  0
LINE
  8
0
 62
     0
 10
2.88146
 20
3.77111
 30
0.0
 11
2.75444
 21
3.79617
 31
0.0
  0
LINE
  8
0
 62
     0
 10
2.75444
 20
3.79617
 30
0.0
 11
2.62619
 21
3.84114
 31
0.0
  0
LINE
  8
0
 62
     0
 10
2.62619
 20
3.84114
 30
0.0
 11
2.50483
 21
3.90213
 31
0.0
  0
LINE
  8
0
 62
     0
 10
2.50483
 20
3.90213
 30
0.0
 11
2.38797
 21
3.9834
 31
0.0
  0
LINE
  8
0
 62
     0
 10
2.38797
 20
3.9834
 30
0.0
 11
2.2825
 21
4.07889
 31
0.0
  0
LINE
  8
0
 62
     0
 10
2.2825
 20
4.07889
 30
0.0
 11
2.18739
 21
4.19331
 31
0.0
  0
LINE
  8
0
 62
     0
 10
2.18739
 20
4.19331
 30
0.0
 11
2.10769
 21
4.31879
 31
0.0
  0
LINE
  8
0
 62
     0
 10
2.10769
 20
4.31879
 30
0.0
 11
2.04372
 21
4.46018
 31
0.0
  0
LINE
  8
0
 62
     0
 10
2.04372
 20
4.46018
 30
0.0
 11
1.99832
 21
4.6085
 31
0.0
  0
LINE
  8
0
 62
     0
 10
1.99832
 20
4.6085
 30
0.0
 11
1.97314
 21
4.76812
 31
0.0
  0
LINE
  8
0
 62
     0
 10
1.97314
 20
4.76812
 30
0.0
 11
1.96847
 21
4.92964
 31
0.0
  0
LINE
  8
0
 62
     0
 10
1.96847
 20
4.92964
 30
0.0
 11
1.98714
 21
5.09663
 31
0.0
  0
LINE
  8
0
 62
     0
 10
1.98714
 20
5.09663
 30
0.0
 11
2.02686
 21
5.25993
 31
0.0
  0
LINE
  8
0
 62
     0
 10
2.02686
 20
5.25993
 30
0.0
 11
2.09136
 21
5.42204
 31
0.0
  0
LINE
  8
0
 62
     0
 10
2.09136
 20
5.42204
 30
0.0
 11
2.17594
 21
5.5746
 31
0.0
  0
LINE
  8
0
 62
     0
 10
2.17594
 20
5.5746
 30
0.0
 11
2.28478
 21
5.71913
 31
0.0
  0
LINE
  8
0
 62
     0
 10
2.28478
 20
5.71913
 30
0.0
 11
2.41114
 21
5.84864
 31
0.0
  0
LINE
  8
0
 62
     0
 10
2.41114
 20
5.84864
 30
0.0
 11
2.55931
 21
5.96332
 31
0.0
  0
LINE
  8
0
 62
     0
 10
2.55931
 20
5.96332
 30
0.0
 11
2.72086
 21
6.05826
 31
0.0
  0
LINE
  8
0
 62
     0
 10
2.72086
 20
6.05826
 30
0.0
 11
2.89996
 21
6.13238
 31
0.0
  0
LINE
  8
0
 62
     0
 10
2.89996
 20
6.13238
 30
0.0
 11
3.08708
 21
6.18321
 31
0.0
  0
LINE
  8
0
 62
     0
 10
3.08708
 20
6.18321
 30
0.0
 11
3.28575
 21
6.20844
 31
0.0
  0
LINE
  8
0
 62
     0
 10
3.28575
 20
6.20844
 30
0.0
 11
3.48611
 21
6.20828
 31
0.0
  0
LINE
  8
0
 62
     0
 10
3.48611
 20
6.20828
 30
0.0
 11
3.69081
 21
6.17953
 31
0.0
  0
LINE
  8
0
 62
     0
 10
3.69081
 20
6.17953
 30
0.0
 11
3.89035
 21
6.12517
 31
0.0
  0
LINE
  8
0
 62
     0
 10
3.89035
 20
6.12517
 30
0.0
 11
4.08632
 21
6.04107
 31
0.0
  0
LINE
  8
0
 62
     0
 10
4.08632
 20
6.04107
 30
0.0
 11
4.27018
 21
5.93306
 31
0.0
  0
LINE
  8
0
 62
     0
 10
4.27018
 20
5.93306
 30
0.0
 11
4.44228
 21
5.79644
 31
0.0
  0
LINE
  8
0
 62
     0
 10
4.44228
 20
5.79644
 30
0.0
 11
4.59592
 21
5.63932
 31
0.0
  0
LINE
  8
0
 62
     0
 10
4.59592
 20
5.63932
 30
0.0
 11
4.73008
 21
5.45725
 31
0.0
  0
LINE
  8
0
 62
     0
 10
4.73008
 20
5.45725
 30
0.0
 11
4.84039
 21
5.25971
 31
0.0
  0
LINE
  8
0
 62
     0
 10
4.84039
 20
5.25971
 30
0.0
 11
4.92458
 21
5.04286
 31
0.0
  0
LINE
  8
0
 62
     0
 10
4.92458
 20
5.04286
 30
0.0
 11
4.9809
 21
4.81706
 31
0.0
  0
LINE
  8
0
 62
     0
 10
4.9809
 20
4.81706
 30
0.0
 11
5.00608
 21
4.57926
 31
0.0
  0
LINE
  8
0
 62
     0
 10
5.00608
 20
4.57926
 30
0.0
 11
5.00119
 21
4.34011
 31
0.0
  0
LINE
  8
0
 62
     0
 10
5.00119
 20
4.34011
 30
0.0
 11
4.96229
 21
4.09765
 31
0.0
  0
LINE
  8
0
 62
     0
 10
4.96229
 20
4.09765
 30
0.0
 11
4.89328
 21
3.86187
 31
0.0
  0
LINE
  8
0
 62
     0
 10
4.89328
 20
3.86187
 30
0.0
 11
4.78965
 21
3.632
 31
0.0
  0
LINE
  8
0
 62
     0
 10
4.78965
 20
3.632
 30
0.0
 11
4.65804
 21
3.41694
 31
0.0
  0
LINE
  8
0
 62
     0
 10
4.65804
 20
3.41694
 30
0.0
 11
4.49387
 21
3.21718
 31
0.0
  0
LINE
  8
0
 62
     0
 10
4.49387
 20
3.21718
 30
0.0
 11
4.30593
 21
3.0395
 31
0.0
  0
LINE
  8
0
 62
     0
 10
4.30593
 20
3.0395
 30
0.0
 11
4.15907
 21
2.89387
 31
0.0
  0
LINE
  8
0
 62
     0
 10
4.15907
 20
2.89387
 30
0.0
 11
4.03179
 21
2.73096
 31
0.0
  0
LINE
  8
0
 62
     0
 10
4.03179
 20
2.73096
 30
0.0
 11
3.93153
 21
2.55751
 31
0.0
  0
LINE
  8
0
 62
     0
 10
3.93153
 20
2.55751
 30
0.0
 11
3.854
 21
2.37283
 31
0.0
  0
LINE
  8
0
 62
     0
 10
3.854
 20
2.37283
 30
0.0
 11
3.80447
 21
2.18539
 31
0.0
  0
LINE
  8
0
 62
     0
 10
3.80447
 20
2.18539
 30
0.0
 11
3.77908
 21
1.99322
 31
0.0
  0
LINE
  8
0
 62
     0
 10
3.77908
 20
1.99322
 30
0.0
 11
3.78054
 21
1.80587
 31
0.0
  0
LINE
  8
0
 62
     0
 10
3.78054
 20
1.80587
 30
0.0
 11
3.80578
 21
1.62011
 31
0.0
  0
LINE
  8
0
 62
     0
 10
3.80578
 20
1.62011
 30
0.0
 11
3.85482
 21
1.44601
 31
0.0
  0
LINE
  8
0
 62
     0
 10
3.85482
 20
1.44601
 30
0.0
 11
3.92551
 21
1.27946
 31
0.0
  0
LINE
  8
0
 62
     0
 10
3.92551
 20
1.27946
 30
0.0
 11
4.0154
 21
1.12994
 31
0.0
  0
LINE
  8
0
 62
     0
 10
4.0154
 20
1.12994
 30
0.0
 11
4.12354
 21
0.992947
 31
0.0
  0
LINE
  8
0
 62
     0
 10
4.12354
 20
0.992947
 30
0.0
 11
4.24507
 21
0.876953
 31
0.0
  0
LINE
  8
0
 62
     0
 10
4.24507
 20
0.876953
 30
0.0
 11
4.38032
 21
0.777344
 31
0.0
  0
LINE
  8
0
 62
     0
 10
4.38032
 20
0.777344
 30
0.0
 11
4.52251
 21
0.700629
 31
0.0
  0
LINE
  8
0
 62
     0
 10
4.52251
 20
0.700629
 30
0.0
 11
4.67333
 21
0.642578
 31
0.0
  0
LINE
  8
0
 62
     0
 10
4.67333
 20
0.642578
 30
0.0
 11
4.82454
 21
0.607747
 31
0.0
  0
LINE
  8
0
 62
     0
 10
4.82454
 20
0.607747
 30
0.0
 11
4.97894
 21
0.592393
 31
0.0
  0
LINE
  8
0
 62
     0
 10
4.97894
 20
0.592393
 30
0.0
 11
5.1275
 21
0.598742
 31
0.0
  0
LINE
  8
0
 62
     0
 10
5.1275
 20
0.598742
 30
0.0
 11
5.27408
 21
0.623915
 31
0.0
  0
LINE
  8
0
 62
     0
 10
5.27408
 20
0.623915
 30
0.0
 11
5.4095
 21
0.667481
 31
0.0
  0
LINE
  8
0
 62
     0
 10
5.4095
 20
0.667481
 30
0.0
 11
5.53831
 21
0.728082
 31
0.0
  0
LINE
  8
0
 62
     0
 10
5.53831
 20
0.728082
 30
0.0
 11
5.65186
 21
0.802735
 31
0.0
  0
LINE
  8
0
 62
     0
 10
5.65186
 20
0.802735
 30
0.0
 11
5.75493
 21
0.891276
 31
0.0
  0
LINE
  8
0
 62
     0
 10
5.75493
 20
0.891276
 30
0.0
 11
5.84017
 21
0.988769
 31
0.0
  0
LINE
  8
0
 62
     0
 10
5.84017
 20
0.988769
 30
0.0
 11
5.91217
 21
1.0963
 31
0.0
  0
LINE
  8
0
 62
     0
 10
5.91217
 20
1.0963
 30
0.0
 11
5.96539
 21
1.20736
 31
0.0
  0
LINE
  8
0
 62
     0
 10
5.96539
 20
1.20736
 30
0.0
 11
6.00379
 21
1.32427
 31
0.0
  0
LINE
  8
0
 62
     0
 10
6.00379
 20
1.32427
 30
0.0
 11
6.02403
 21
1.43924
 31
0.0
  0
LINE
  8
0
 62
     0
 10
6.02403
 20
1.43924
 30
0.0
 11
6.02919
 21
1.55583
 31
0.0
  0
LINE
  8
0
 62
     0
 10
6.02919
 20
1.55583
 30
0.0
 11
6.01818
 21
1.66569
 31
0.0
  0
LINE
  8
0
 62
     0
 10
6.01818
 20
1.66569
 30
0.0
 11
5.993
 21
1.77306
 31
0.0
  0
LINE
  8
0
 62
     0
 10
5.993
 20
1.77306
 30
0.0
 11
5.95486
 21
1.8699
 31
0.0
  0
LINE
  8
0
 62
     0
 10
5.95486
 20
1.8699
 30
0.0
 11
5.90435
 21
1.96083
 31
0.0
  0
LINE
  8
0
 62
     0
 10
5.90435
 20
1.96083
 30
0.0
 11
5.845
 21
2.03847
 31
0.0
  0
LINE
  8
0
 62
     0
 10
5.845
 20
2.03847
 30
0.0
 11
5.77599
 21
2.10758
 31
0.0
  0
LINE
  8
0
 62
     0
 10
5.77599
 20
2.10758
 30
0.0
 11
5.70258
 21
2.16211
 31
0.0
  0
LINE
  8
0
 62
     0
 10
5.70258
 20
2.16211
 30
0.0
 11
5.62261
 21
2.20637
 31
0.0
  0
LINE
  8
0
 62
     0
 10
5.62261
 20
2.20637
 30
0.0
 11
5.54281
 21
2.23617
 31
0.0
  0
LINE
  8
0
 62
     0
 10
5.54281
 20
2.23617
 30
0.0
 11
5.45979
 21
2.25493
 31
0.0
  0
LINE
  8
0
 62
     0
 10
5.45979
 20
2.25493
 30
0.0
 11
5.38103
 21
2.26069
 31
0.0
  0
LINE
  8
0
 62
     0
 10
5.38103
 20
2.26069
 30
0.0
 11
5.30225
 21
2.25553
 31
0.0
  0
LINE
  8
0
 62
     0
 10
5.30225
 20
2.25553
 30
0.0
 11
5.23107
 21
2.23996
 31
0.0
  0
LINE
  8
0
 62
     0
 10
5.23107
 20
2.23996
 30
0.0
 11
5.16287
 21
2.21457
 31
0.0
  0
LINE
  8
0
 62
     0
 10
5.16287
 20
2.21457
 30
0.0
 11
5.10465
 21
2.18201
 31
0.0
  0
LINE
  8
0
 62
     0
 10
5.10465
 20
2.18201
 30
0.0
 11
5.05165
 21
2.1415
 31
0.0
  0
LINE
  8
0
 62
     0
 10
5.05165
 20
2.1415
 30
0.0
 11
5.00971
 21
2.09754
 31
0.0
  0
LINE
  8
0
 62
     0
 10
5.00971
 20
2.09754
 30
0.0
 11
4.97472
 21
2.04796
 31
0.0
  0
LINE
  8
0
 62
     0
 10
4.97472
 20
2.04796
 30
0.0
 11
4.95068
 21
1.99869
 31
0.0
  0
LINE
  8
0
 62
     0
 10
4.95068
 20
1.99869
 30
0.0
 11
4.93435
 21
1.94635
 31
0.0
  0
LINE
  8
0
 62
     0
 10
4.93435
 20
1.94635
 30
0.0
 11
4.92779
 21
1.89762
 31
0.0
  0
LINE
  8
0
 62
     0
 10
4.92779
 20
1.89762
 30
0.0
 11
4.92893
 21
1.84858
 31
0.0
  0
LINE
  8
0
 62
     0
 10
4.92893
 20
1.84858
 30
0.0
 11
4.9375
 21
1.80578
 31
0.0
  0
LINE
  8
0
 62
     0
 10
4.9375
 20
1.80578
 30
0.0
 11
4.95307
 21
1.76503
 31
0.0
  0
LINE
  8
0
 62
     0
 10
4.95307
 20
1.76503
 30
0.0
 11
4.97319
 21
1.73232
 31
0.0
  0
LINE
  8
0
 62
     0
 10
4.97319
 20
1.73232
 30
0.0
 11
4.99881
 21
1.70356
 31
0.0
  0
LINE
  8
0
 62
     0
 10
4.99881
 20
1.70356
 30
0.0
 11
5.02588
 21
1.68343
 31
0.0
  0
LINE
  8
0
 62
     0
 10
5.02588
 20
1.68343
 30
0.0
 11
5.05626
 21
1.66878
 31
0.0
  0
LINE
  8
0
 62
     0
 10
5.05626
 20
1.66878
 30
0.0
 11
5.08529
 21
1.66217
 31
0.0
  0
LINE
  8
0
 62
     0
 10
5.08529
 20
1.66217
 30
0.0
 11
5.11501
 21
1.66174
 31
0.0
  0
LINE
  8
0
 62
     0
 10
5.11501
 20
1.66174
 30
0.0
 11
5.141
 21
1.66797
 31
0.0
  0
LINE
  8
0
 62
     0
 10
5.141
 20
1.66797
 30
0.0
 11
5.16493
 21
1.67985
 31
0.0
  0
LINE
  8
0
 62
     0
 10
5.16493
 20
1.67985
 30
0.0
 11
5.1836
 21
1.69672
 31
0.0
  0
LINE
  8
0
 62
     0
 10
5.1836
 20
1.69672
 30
0.0
 11
5.19764
 21
1.71744
 31
0.0
  0
ENDSEC
  0
EOF
