  0
SECTION
  2
HEADER
  9
$ACADVER
  1
AC1027
  9
$ACADMAINTVER
 70
    67
  9
$DWGCODEPAGE
  3
ANSI_1252
  9
$LASTSAVEDBY
  1
Santi
  9
$REQUIREDVERSIONS
160
                 0
  9
$INSBASE
 10
0.0
 20
0.0
 30
0.0
  9
$EXTMIN
 10
-5.0
 20
-5.0
 30
0.0
  9
$EXTMAX
 10
10.0
 20
10.0
 30
0.0
  9
$LIMMIN
 10
0.0
 20
0.0
  9
$LIMMAX
 10
12.0
 20
9.0
  9
$ORTHOMODE
 70
     0
  9
$REGENMODE
 70
     1
  9
$FILLMODE
 70
     0
  9
$QTEXTMODE
 70
     0
  9
$MIRRTEXT
 70
     0
  9
$LTSCALE
 40
1.0
  9
$ATTMODE
 70
     1
  9
$TEXTSIZE
 40
0.2
  9
$TRACEWID
 40
0.05
  9
$TEXTSTYLE
  7
Standard
  9
$CLAYER
  8
0
  9
$CELTYPE
  6
Continuous
  9
$CECOLOR
 62
   256
  9
$CELTSCALE
 40
1.0
  9
$DISPSILH
 70
     0
  9
$DIMSCALE
 40
1.0
  9
$DIMASZ
 40
0.18
  9
$DIMEXO
 40
0.0625
  9
$DIMDLI
 40
0.38
  9
$DIMRND
 40
0.0
  9
$DIMDLE
 40
0.0
  9
$DIMEXE
 40
0.18
  9
$DIMTP
 40
0.0
  9
$DIMTM
 40
0.0
  9
$DIMTXT
 40
0.18
  9
$DIMCEN
 40
0.09
  9
$DIMTSZ
 40
0.0
  9
$DIMTOL
 70
     0
  9
$DIMLIM
 70
     0
  9
$DIMTIH
 70
     1
  9
$DIMTOH
 70
     1
  9
$DIMSE1
 70
     0
  9
$DIMSE2
 70
     0
  9
$DIMTAD
 70
     0
  9
$DIMZIN
 70
     0
  9
$DIMBLK
  1

  9
$DIMASO
 70
     1
  9
$DIMSHO
 70
     1
  9
$DIMPOST
  1

  9
$DIMAPOST
  1

  9
$DIMALT
 70
     0
  9
$DIMALTD
 70
     2
  9
$DIMALTF
 40
25.4
  9
$DIMLFAC
 40
1.0
  9
$DIMTOFL
 70
     0
  9
$DIMTVP
 40
0.0
  9
$DIMTIX
 70
     0
  9
$DIMSOXD
 70
     0
  9
$DIMSAH
 70
     0
  9
$DIMBLK1
  1

  9
$DIMBLK2
  1

  9
$DIMSTYLE
  2
Standard
  9
$DIMCLRD
 70
     0
  9
$DIMCLRE
 70
     0
  9
$DIMCLRT
 70
     0
  9
$DIMTFAC
 40
1.0
  9
$DIMGAP
 40
0.09
  9
$DIMJUST
 70
     0
  9
$DIMSD1
 70
     0
  9
$DIMSD2
 70
     0
  9
$DIMTOLJ
 70
     1
  9
$DIMTZIN
 70
     0
  9
$DIMALTZ
 70
     0
  9
$DIMALTTZ
 70
     0
  9
$DIMUPT
 70
     0
  9
$DIMDEC
 70
     4
  9
$DIMTDEC
 70
     4
  9
$DIMALTU
 70
     2
  9
$DIMALTTD
 70
     2
  9
$DIMTXSTY
  7
Standard
  9
$DIMAUNIT
 70
     0
  9
$DIMADEC
 70
     0
  9
$DIMALTRND
 40
0.0
  9
$DIMAZIN
 70
     0
  9
$DIMDSEP
 70
    46
  9
$DIMATFIT
 70
     3
  9
$DIMFRAC
 70
     0
  9
$DIMLDRBLK
  1

  9
$DIMLUNIT
 70
     2
  9
$DIMLWD
 70
    -2
  9
$DIMLWE
 70
    -2
  9
$DIMTMOVE
 70
     0
  9
$DIMFXL
 40
1.0
  9
$DIMFXLON
 70
     0
  9
$DIMJOGANG
 40
0.7853981633974483
  9
$DIMTFILL
 70
     0
  9
$DIMTFILLCLR
 70
     0
  9
$DIMARCSYM
 70
     0
  9
$DIMLTYPE
  6

  9
$DIMLTEX1
  6

  9
$DIMLTEX2
  6

  9
$DIMTXTDIRECTION
 70
     0
  9
$LUNITS
 70
     2
  9
$LUPREC
 70
     4
  9
$SKETCHINC
 40
0.1
  9
$FILLETRAD
 40
0.15
  9
$AUNITS
 70
     0
  9
$AUPREC
 70
     0
  9
$MENU
  1
.
  9
$ELEVATION
 40
0.0
  9
$PELEVATION
 40
0.0
  9
$THICKNESS
 40
0.0
  9
$LIMCHECK
 70
     0
  9
$CHAMFERA
 40
0.0
  9
$CHAMFERB
 40
0.0
  9
$CHAMFERC
 40
0.0
  9
$CHAMFERD
 40
0.0
  9
$SKPOLY
 70
     0
  9
$TDCREATE
 40
2456718.008523055
  9
$TDUCREATE
 40
2456717.966856389
  9
$TDUPDATE
 40
2456718.138017593
  9
$TDUUPDATE
 40
2456718.096350926
  9
$TDINDWG
 40
0.1294947569
  9
$TDUSRTIMER
 40
0.1294947569
  9
$USRTIMER
 70
     1
  9
$ANGBASE
 50
0.0
  9
$ANGDIR
 70
     0
  9
$PDMODE
 70
     0
  9
$PDSIZE
 40
0.0
  9
$PLINEWID
 40
0.0
  9
$SPLFRAME
 70
     1
  9
$SPLINETYPE
 70
     6
  9
$SPLINESEGS
 70
     8
  9
$HANDSEED
  5
3EF
  9
$SURFTAB1
 70
     6
  9
$SURFTAB2
 70
     6
  9
$SURFTYPE
 70
     6
  9
$SURFU
 70
     6
  9
$SURFV
 70
     6
  9
$UCSBASE
  2

  9
$UCSNAME
  2

  9
$UCSORG
 10
0.0
 20
0.0
 30
0.0
  9
$UCSXDIR
 10
1.0
 20
0.0
 30
0.0
  9
$UCSYDIR
 10
0.0
 20
1.0
 30
0.0
  9
$UCSORTHOREF
  2

  9
$UCSORTHOVIEW
 70
     0
  9
$UCSORGTOP
 10
0.0
 20
0.0
 30
0.0
  9
$UCSORGBOTTOM
 10
0.0
 20
0.0
 30
0.0
  9
$UCSORGLEFT
 10
0.0
 20
0.0
 30
0.0
  9
$UCSORGRIGHT
 10
0.0
 20
0.0
 30
0.0
  9
$UCSORGFRONT
 10
0.0
 20
0.0
 30
0.0
  9
$UCSORGBACK
 10
0.0
 20
0.0
 30
0.0
  9
$PUCSBASE
  2

  9
$PUCSNAME
  2

  9
$PUCSORG
 10
0.0
 20
0.0
 30
0.0
  9
$PUCSXDIR
 10
1.0
 20
0.0
 30
0.0
  9
$PUCSYDIR
 10
0.0
 20
1.0
 30
0.0
  9
$PUCSORTHOREF
  2

  9
$PUCSORTHOVIEW
 70
     0
  9
$PUCSORGTOP
 10
0.0
 20
0.0
 30
0.0
  9
$PUCSORGBOTTOM
 10
0.0
 20
0.0
 30
0.0
  9
$PUCSORGLEFT
 10
0.0
 20
0.0
 30
0.0
  9
$PUCSORGRIGHT
 10
0.0
 20
0.0
 30
0.0
  9
$PUCSORGFRONT
 10
0.0
 20
0.0
 30
0.0
  9
$PUCSORGBACK
 10
0.0
 20
0.0
 30
0.0
  9
$USERI1
 70
     0
  9
$USERI2
 70
     0
  9
$USERI3
 70
     0
  9
$USERI4
 70
     0
  9
$USERI5
 70
     0
  9
$USERR1
 40
0.0
  9
$USERR2
 40
0.0
  9
$USERR3
 40
0.0
  9
$USERR4
 40
0.0
  9
$USERR5
 40
0.0
  9
$WORLDVIEW
 70
     1
  9
$SHADEDGE
 70
     3
  9
$SHADEDIF
 70
    70
  9
$TILEMODE
 70
     1
  9
$MAXACTVP
 70
    64
  9
$PINSBASE
 10
0.0
 20
0.0
 30
0.0
  9
$PLIMCHECK
 70
     0
  9
$PEXTMIN
 10
1.000000000000000E+20
 20
1.000000000000000E+20
 30
1.000000000000000E+20
  9
$PEXTMAX
 10
-1.000000000000000E+20
 20
-1.000000000000000E+20
 30
-1.000000000000000E+20
  9
$PLIMMIN
 10
0.0
 20
0.0
  9
$PLIMMAX
 10
12.0
 20
9.0
  9
$UNITMODE
 70
     0
  9
$VISRETAIN
 70
     1
  9
$PLINEGEN
 70
     0
  9
$PSLTSCALE
 70
     1
  9
$TREEDEPTH
 70
  3020
  9
$CMLSTYLE
  2
Standard
  9
$CMLJUST
 70
     0
  9
$CMLSCALE
 40
1.0
  9
$PROXYGRAPHICS
 70
     1
  9
$MEASUREMENT
 70
     0
  9
$CELWEIGHT
370
    -1
  9
$ENDCAPS
280
     0
  9
$JOINSTYLE
280
     0
  9
$LWDISPLAY
290
     0
  9
$INSUNITS
 70
     0
  9
$HYPERLINKBASE
  1

  9
$STYLESHEET
  1

  9
$XEDIT
290
     1
  9
$CEPSNTYPE
380
     0
  9
$PSTYLEMODE
290
     1
  9
$FINGERPRINTGUID
  2
{E1A5B1D6-72C6-8B4A-8693-D3C3E47E4014}
  9
$VERSIONGUID
  2
{4EB63886-E46F-D54F-8782-35A6FC697255}
  9
$EXTNAMES
290
     1
  9
$PSVPSCALE
 40
0.0
  9
$OLESTARTUP
290
     0
  9
$SORTENTS
280
   127
  9
$INDEXCTL
280
     0
  9
$HIDETEXT
280
     0
  9
$XCLIPFRAME
280
     2
  9
$HALOGAP
280
     0
  9
$OBSCOLOR
 70
   257
  9
$OBSLTYPE
280
     0
  9
$INTERSECTIONDISPLAY
280
     0
  9
$INTERSECTIONCOLOR
 70
   257
  9
$DIMASSOC
280
     1
  9
$PROJECTNAME
  1

  9
$CAMERADISPLAY
290
     0
  9
$LENSLENGTH
 40
50.0
  9
$CAMERAHEIGHT
 40
0.0
  9
$STEPSPERSEC
 40
2.0
  9
$STEPSIZE
 40
6.0
  9
$3DDWFPREC
 40
2.0
  9
$PSOLWIDTH
 40
0.25
  9
$PSOLHEIGHT
 40
4.0
  9
$LOFTANG1
 40
1.570796326794896
  9
$LOFTANG2
 40
1.570796326794896
  9
$LOFTMAG1
 40
0.0
  9
$LOFTMAG2
 40
0.0
  9
$LOFTPARAM
 70
     7
  9
$LOFTNORMALS
280
     1
  9
$LATITUDE
 40
37.795
  9
$LONGITUDE
 40
-122.394
  9
$NORTHDIRECTION
 40
0.0
  9
$TIMEZONE
 70
 -8000
  9
$LIGHTGLYPHDISPLAY
280
     1
  9
$TILEMODELIGHTSYNCH
280
     1
  9
$CMATERIAL
347
11
  9
$SOLIDHIST
280
     0
  9
$SHOWHIST
280
     1
  9
$DWFFRAME
280
     2
  9
$DGNFRAME
280
     0
  9
$REALWORLDSCALE
290
     1
  9
$INTERFERECOLOR
 62
     1
  9
$INTERFEREOBJVS
345
33
  9
$INTERFEREVPVS
346
30
  9
$CSHADOW
280
     0
  9
$SHADOWPLANELOCATION
 40
0.0
  0
ENDSEC
  0
SECTION
  2
CLASSES
  0
CLASS
  1
ACDBDICTIONARYWDFLT
  2
AcDbDictionaryWithDefault
  3
ObjectDBX Classes
 90
        0
 91
        1
280
     0
281
     0
  0
CLASS
  1
MATERIAL
  2
AcDbMaterial
  3
ObjectDBX Classes
 90
     1153
 91
        3
280
     0
281
     0
  0
CLASS
  1
VISUALSTYLE
  2
AcDbVisualStyle
  3
ObjectDBX Classes
 90
     4095
 91
       24
280
     0
281
     0
  0
CLASS
  1
SCALE
  2
AcDbScale
  3
ObjectDBX Classes
 90
     1153
 91
       17
280
     0
281
     0
  0
CLASS
  1
TABLESTYLE
  2
AcDbTableStyle
  3
ObjectDBX Classes
 90
     4095
 91
        1
280
     0
281
     0
  0
CLASS
  1
MLEADERSTYLE
  2
AcDbMLeaderStyle
  3
ACDB_MLEADERSTYLE_CLASS
 90
     4095
 91
        1
280
     0
281
     0
  0
CLASS
  1
ACDBSECTIONVIEWSTYLE
  2
AcDbSectionViewStyle
  3
ObjectDBX Classes
 90
     1025
 91
        1
280
     0
281
     0
  0
CLASS
  1
ACDBDETAILVIEWSTYLE
  2
AcDbDetailViewStyle
  3
ObjectDBX Classes
 90
     1025
 91
        1
280
     0
281
     0
  0
CLASS
  1
DICTIONARYVAR
  2
AcDbDictionaryVar
  3
ObjectDBX Classes
 90
        0
 91
       83
280
     0
281
     0
  0
CLASS
  1
SORTENTSTABLE
  2
AcDbSortentsTable
  3
ObjectDBX Classes
 90
        0
 91
        1
280
     0
281
     0
  0
CLASS
  1
CELLSTYLEMAP
  2
AcDbCellStyleMap
  3
ObjectDBX Classes
 90
     1152
 91
        9
280
     0
281
     0
  0
CLASS
  1
ACARRAYJIGENTITY
  2
AcArrayJigEntity
  3
ACAD_ARRAY
 90
      129
 91
        2
280
     0
281
     1
  0
CLASS
  1
ACDBASSOCNETWORK
  2
AcDbAssocNetwork
  3
ObjectDBX Classes
 90
     1025
 91
        2
280
     0
281
     0
  0
CLASS
  1
ACDBASSOCACTION
  2
AcDbAssocAction
  3
ObjectDBX Classes
 90
     1025
 91
        1
280
     0
281
     0
  0
CLASS
  1
ACDBASSOCARRAYACTIONBODY
  2
AcDbAssocArrayActionBody
  3
ObjectDBX Classes
 90
     1025
 91
        1
280
     0
281
     0
  0
CLASS
  1
ACDBASSOCVERTEXACTIONPARAM
  2
AcDbAssocVertexActionParam
  3
ObjectDBX Classes
 90
     1025
 91
        3
280
     0
281
     0
  0
CLASS
  1
ACDBASSOCDEPENDENCY
  2
AcDbAssocDependency
  3
ObjectDBX Classes
 90
     1025
 91
        3
280
     0
281
     0
  0
CLASS
  1
ACDBASSOCARRAYPOLARPARAMETERS
  2
AcDbAssocArrayPolarParameters
  3
ObjectDBX Classes
 90
     1025
 91
        0
280
     0
281
     0
  0
ENDSEC
  0
SECTION
  2
TABLES
  0
TABLE
  2
VPORT
  5
8
330
0
100
AcDbSymbolTable
 70
     1
  0
VPORT
  5
74
330
8
100
AcDbSymbolTableRecord
100
AcDbViewportTableRecord
  2
*Active
 70
     0
 10
0.0
 20
0.0
 11
1.0
 21
1.0
 12
-1.140665225492057
 22
1.314005521688453
 13
0.0
 23
0.0
 14
1.0
 24
1.0
 15
0.0
 25
0.0
 16
0.0
 26
0.0
 36
1.0
 17
0.0
 27
0.0
 37
0.0
 40
12.21642818376053
 41
1.434615384615384
 42
50.0
 43
0.0
 44
0.0
 50
0.0
 51
0.0
 71
     0
 72
   100
 73
     1
 74
     1
 75
     0
 76
     0
 77
     0
 78
     0
281
     0
 65
     1
110
0.0
120
0.0
130
0.0
111
1.0
121
0.0
131
0.0
112
0.0
122
1.0
132
0.0
 79
     0
146
0.0
348
2F
 60
     3
 61
     5
292
     1
282
     1
141
0.0
142
0.0
 63
   250
421
  3355443
1001
ACAD_NAV_VCDISPLAY
1070
     3
  0
ENDTAB
  0
TABLE
  2
LTYPE
  5
5
330
0
100
AcDbSymbolTable
 70
     2
  0
LTYPE
  5
5A
330
5
100
AcDbSymbolTableRecord
100
AcDbLinetypeTableRecord
  2
ByBlock
 70
     0
  3

 72
    65
 73
     0
 40
0.0
  0
LTYPE
  5
5B
330
5
100
AcDbSymbolTableRecord
100
AcDbLinetypeTableRecord
  2
ByLayer
 70
     0
  3

 72
    65
 73
     0
 40
0.0
  0
LTYPE
  5
5C
330
5
100
AcDbSymbolTableRecord
100
AcDbLinetypeTableRecord
  2
Continuous
 70
     0
  3
Solid line
 72
    65
 73
     0
 40
0.0
  0
ENDTAB
  0
TABLE
  2
LAYER
  5
2
102
{ACAD_XDICTIONARY
360
28F
102
}
330
0
100
AcDbSymbolTable
 70
     1
  0
LAYER
  5
54
102
{ACAD_XDICTIONARY
360
28A
102
}
330
2
100
AcDbSymbolTableRecord
100
AcDbLayerTableRecord
  2
0
 70
     0
 62
     7
  6
Continuous
370
    -3
390
F
347
21
348
0
  0
ENDTAB
  0
TABLE
  2
STYLE
  5
3
330
0
100
AcDbSymbolTable
 70
     2
  0
STYLE
  5
55
330
3
100
AcDbSymbolTableRecord
100
AcDbTextStyleTableRecord
  2
Standard
 70
     0
 40
0.0
 41
1.0
 50
0.0
 71
     0
 42
0.2
  3
txt
  4

  0
STYLE
  5
59
330
3
100
AcDbSymbolTableRecord
100
AcDbTextStyleTableRecord
  2
Annotative
 70
     0
 40
0.0
 41
1.0
 50
0.0
 71
     0
 42
0.2
  3
txt
  4

1001
AcadAnnotative
1000
AnnotativeData
1002
{
1070
     1
1070
     1
1002
}
  0
ENDTAB
  0
TABLE
  2
VIEW
  5
6
330
0
100
AcDbSymbolTable
 70
    12
  0
ENDTAB
  0
TABLE
  2
UCS
  5
7
330
0
100
AcDbSymbolTable
 70
     0
  0
ENDTAB
  0
TABLE
  2
APPID
  5
9
330
0
100
AcDbSymbolTable
 70
     6
  0
APPID
  5
56
330
9
100
AcDbSymbolTableRecord
100
AcDbRegAppTableRecord
  2
ACAD
 70
     0
  0
APPID
  5
5D
330
9
100
AcDbSymbolTableRecord
100
AcDbRegAppTableRecord
  2
AcadAnnotative
 70
     0
  0
APPID
  5
227
330
9
100
AcDbSymbolTableRecord
100
AcDbRegAppTableRecord
  2
ACAD_EXEMPT_FROM_CAD_STANDARDS
 70
     0
  0
APPID
  5
22E
330
9
100
AcDbSymbolTableRecord
100
AcDbRegAppTableRecord
  2
ACAD_NAV_VCDISPLAY
 70
     0
  0
APPID
  5
253
330
9
100
AcDbSymbolTableRecord
100
AcDbRegAppTableRecord
  2
GradientColor1ACI
 70
     0
  0
APPID
  5
254
330
9
100
AcDbSymbolTableRecord
100
AcDbRegAppTableRecord
  2
GradientColor2ACI
 70
     0
  0
ENDTAB
  0
TABLE
  2
DIMSTYLE
  5
A
330
0
100
AcDbSymbolTable
 70
     3
100
AcDbDimStyleTable
 71
     1
340
57
  0
DIMSTYLE
105
57
330
A
100
AcDbSymbolTableRecord
100
AcDbDimStyleTableRecord
  2
Standard
 70
     0
340
55
  0
DIMSTYLE
105
58
330
A
100
AcDbSymbolTableRecord
100
AcDbDimStyleTableRecord
  2
Annotative
 70
     0
340
55
1001
AcadAnnotative
1000
AnnotativeData
1002
{
1070
     1
1070
     1
1002
}
  0
ENDTAB
  0
TABLE
  2
BLOCK_RECORD
  5
1
330
0
100
AcDbSymbolTable
 70
     3
  0
BLOCK_RECORD
  5
6F
102
{ACAD_XDICTIONARY
360
251
102
}
330
1
100
AcDbSymbolTableRecord
100
AcDbBlockTableRecord
  2
*Model_Space
340
72
 70
     0
280
     1
281
     0
  0
BLOCK_RECORD
  5
6B
330
1
100
AcDbSymbolTableRecord
100
AcDbBlockTableRecord
  2
*Paper_Space
340
6E
 70
     0
280
     1
281
     0
  0
BLOCK_RECORD
  5
30D
330
1
100
AcDbSymbolTableRecord
100
AcDbBlockTableRecord
  2
*U1
340
0
102
{BLKREFS
331
32A
331
32B
331
32C
102
}
 70
     0
280
     1
281
     0
  0
BLOCK_RECORD
  5
310
330
1
100
AcDbSymbolTableRecord
100
AcDbBlockTableRecord
  2
*U2
340
0
 70
     0
280
     1
281
     1
  0
ENDTAB
  0
ENDSEC
  0
SECTION
  2
BLOCKS
  0
BLOCK
  5
70
330
6F
100
AcDbEntity
  8
0
100
AcDbBlockBegin
  2
*Model_Space
 70
     0
 10
0.0
 20
0.0
 30
0.0
  3
*Model_Space
  1

  0
ENDBLK
  5
71
330
6F
100
AcDbEntity
  8
0
100
AcDbBlockEnd
  0
BLOCK
  5
6C
330
6B
100
AcDbEntity
 67
     1
  8
0
100
AcDbBlockBegin
  2
*Paper_Space
 70
     0
 10
0.0
 20
0.0
 30
0.0
  3
*Paper_Space
  1

  0
ENDBLK
  5
6D
330
6B
100
AcDbEntity
 67
     1
  8
0
100
AcDbBlockEnd
  0
BLOCK
  5
30E
330
30D
100
AcDbEntity
  8
0
100
AcDbBlockBegin
  2
*U1
 70
     1
 10
0.0
 20
0.0
 30
0.0
  3
*U1
  1

  0
LINE
  5
314
330
30D
100
AcDbEntity
  8
0
 62
     0
100
AcDbLine
 10
-0.1710723264865739
 20
0.367776761923067
 30
0.0
 11
-0.0072942945777741
 21
0.3676459749141561
 31
0.0
  0
ARC
  5
315
330
30D
100
AcDbEntity
  8
0
  6
Continuous
100
AcDbCircle
 10
-0.1711921108364821
 20
0.2177768097507098
 30
0.0
 40
0.15
100
AcDbArc
 50
89.95424574379399
 51
174.4423587959303
  0
ARC
  5
316
330
30D
100
AcDbEntity
  8
0
  6
Continuous
100
AcDbCircle
 10
0.4981675569267957
 20
-0.1948161833108459
 30
0.0
 40
0.15
100
AcDbArc
 50
185.5576412040695
 51
254.7609181471346
  0
LINE
  5
317
330
30D
100
AcDbEntity
  8
0
  6
Continuous
100
AcDbLine
 10
-0.3204870014983716
 20
0.2323038749138604
 30
0.0
 11
-0.3668047103028705
 21
-0.2437039899931763
 31
0.0
  0
ARC
  5
318
330
30D
100
AcDbEntity
  8
0
  6
Continuous
100
AcDbCircle
 10
-0.5160996009647602
 20
-0.2291769248300253
 30
0.0
 40
0.15
100
AcDbArc
 50
292.4820715698164
 51
354.4423587959304
  0
LINE
  5
319
330
30D
100
AcDbEntity
  8
0
 62
     0
100
AcDbLine
 10
0.1564837373310258
 20
0.367776761923067
 30
0.0
 11
-0.007294294577774
 21
0.3676459749141561
 31
0.0
  0
ARC
  5
31A
330
30D
100
AcDbEntity
  8
0
  6
Continuous
100
AcDbCircle
 10
0.156603521680934
 20
0.2177768097507098
 30
0.0
 40
0.15
100
AcDbArc
 50
5.557641204069634
 51
90.045754256206
  0
LINE
  5
31B
330
30D
100
AcDbEntity
  8
0
  6
Continuous
100
AcDbLine
 10
0.3058984123428235
 20
0.2323038749138604
 30
0.0
 11
0.3488726662649061
 21
-0.209343248473997
 31
0.0
  0
ENDBLK
  5
30F
330
30D
100
AcDbEntity
  8
0
100
AcDbBlockEnd
  0
BLOCK
  5
311
330
310
100
AcDbEntity
  8
0
100
AcDbBlockBegin
  2
*U2
 70
     1
 10
0.0
 20
0.0
 30
0.0
  3
*U2
  1

  0
INSERT
  5
32A
330
310
100
AcDbEntity
  8
0
  6
ByBlock
347
19
 62
     0
440
 16777216
370
    -2
380
     1
100
AcDbBlockReference
  2
*U1
 10
0.0072942945777742
 20
3.85935967536185
 30
0.0
  0
INSERT
  5
32B
330
310
100
AcDbEntity
  8
0
  6
ByBlock
347
19
 62
     0
440
 16777216
370
    -2
380
     1
100
AcDbBlockReference
  2
*U1
 10
-3.345950668493512
 20
-1.923362793273885
 30
0.0
 50
120.0
  0
INSERT
  5
32C
330
310
100
AcDbEntity
  8
0
  6
ByBlock
347
19
 62
     0
440
 16777216
370
    -2
380
     1
100
AcDbBlockReference
  2
*U1
 10
3.338656373915739
 20
-1.935996882087964
 30
0.0
 50
240.0
  0
ENDBLK
  5
312
330
310
100
AcDbEntity
  8
0
100
AcDbBlockEnd
  0
ENDSEC
  0
SECTION
  2
ENTITIES
  0
HATCH
  5
255
330
6F
100
AcDbEntity
  8
0
  6
Continuous
100
AcDbHatch
 10
0.0
 20
0.0
 30
0.0
210
0.0
220
0.0
230
1.0
  2
ANSI31
 70
     0
 71
     0
 91
        2
 92
       23
 72
     0
 73
     1
 93
      432
 10
1.113580000000041
 20
3.165039741285949
 10
0.9414800000000397
 20
3.301659741285947
 10
0.757620000000038
 20
3.409669741285947
 10
0.5616500000000398
 20
3.493769741285947
 10
0.3621100000000368
 20
3.548129741285948
 10
0.1574100000000396
 20
3.576879741285948
 10
-0.0429499999999625
 20
3.577039741285948
 10
-0.2416199999999624
 20
3.551809741285947
 10
-0.4287399999999626
 20
3.500979741285948
 10
-0.6078399999999613
 20
3.426859741285947
 10
-0.7693899999999632
 20
3.331919741285946
 10
-0.9175599999999608
 20
3.217239741285947
 10
-1.043919999999962
 20
3.087729741285946
 10
-1.152759999999962
 20
2.943199741285947
 10
-1.237339999999961
 20
2.790639741285946
 10
-1.301839999999961
 20
2.628529741285948
 10
-1.341559999999961
 20
2.465229741285945
 10
-1.360229999999961
 20
2.298239741285945
 10
-1.355559999999961
 20
2.136719741285949
 10
-1.330379999999961
 20
1.977099741285947
 10
-1.28497999999996
 20
1.828779741285941
 10
-1.221009999999962
 20
1.687389741285948
 10
-1.141309999999961
 20
1.561909741285939
 10
-1.046199999999964
 20
1.44748974128595
 10
-0.9407299999999665
 20
1.351999741285949
 10
-0.8238699999999594
 20
1.270729741285946
 10
-0.7025099999999616
 20
1.209739741285944
 10
-0.5742599999999634
 20
1.164769741285948
 10
-0.4472399999999635
 20
1.139709741285948
 10
-0.3180099999999606
 20
1.131129741285948
 10
-0.1952999999999574
 20
1.140569741285947
 10
-0.0747999999999598
 20
1.165749741285948
 10
0.0348600000000423
 20
1.205729741285949
 10
0.1384200000000408
 20
1.25953974128595
 10
0.2279900000000405
 20
1.323999741285949
 10
0.3085100000000405
 20
1.399529741285951
 10
0.3732300000000399
 20
1.480959741285948
 10
0.4267900000000396
 20
1.570159741285949
 10
0.4643300000000381
 20
1.660379741285946
 10
0.489660000000038
 20
1.754719741285947
 10
0.500190000000039
 20
1.845539741285947
 10
0.4985500000000389
 20
1.936959741285948
 10
0.4844000000000382
 20
2.020949741285947
 10
0.4591700000000385
 20
2.102209741285949
 10
0.4247200000000376
 20
2.173339741285947
 10
0.3809400000000389
 20
2.239039741285949
 10
0.3317900000000389
 20
2.292809741285946
 10
0.2757400000000452
 20
2.339199741285943
 10
0.2184000000000359
 20
2.373319741285949
 10
0.1568700000000369
 20
2.398989741285948
 10
0.0977900000000411
 20
2.413309741285948
 10
0.0374000000000407
 20
2.418839741285948
 10
-0.0173399999999622
 20
2.414989741285946
 10
-0.0707799999999619
 20
2.402949741285947
 10
-0.1162999999999594
 20
2.384339741285948
 10
-0.158239999999962
 20
2.358839741285946
 10
-0.1909499999999617
 20
2.329919741285947
 10
-0.2184499999999621
 20
2.296109741285946
 10
-0.2367999999999619
 20
2.262269741285945
 10
-0.2488399999999609
 20
2.225809741285949
 10
-0.2527399999999615
 20
2.19227974128595
 10
-0.2501999999999618
 20
2.158639741285949
 10
-0.241409999999961
 20
2.130209741285951
 10
-0.2269199999999611
 20
2.104279741285948
 10
-0.2085899999999619
 20
2.084789741285946
 10
-0.1862799999999591
 20
2.070099741285948
 10
-0.1624099999999617
 20
2.062339741285948
 10
-0.1373499999998908
 20
2.060489741285941
 10
-0.1123399999999615
 20
2.058809741285946
 10
-0.0884599999999605
 20
2.051059741285948
 10
-0.0661699999999592
 20
2.036289741285947
 10
-0.0477699999999608
 20
2.016879741285951
 10
-0.0333399999999617
 20
1.990949741285949
 10
-0.0245599999999615
 20
1.962519741285948
 10
-0.0220099999999608
 20
1.92887974128595
 10
-0.025909999999961
 20
1.895349741285949
 10
-0.0380099999999613
 20
1.858779741285948
 10
-0.0562399999999608
 20
1.824919741285949
 10
-0.0837999999999615
 20
1.791129741285948
 10
-0.1165199999999609
 20
1.762319741285948
 10
-0.1585099999999628
 20
1.736819741285946
 10
-0.2039199999999628
 20
1.718099741285947
 10
-0.2574099999999588
 20
1.706169741285948
 10
-0.3120999999999596
 20
1.702209741285948
 10
-0.3725899999999629
 20
1.707849741285947
 10
-0.4315599999999647
 20
1.722059741285948
 10
-0.4931399999999595
 20
1.747779741285947
 10
-0.5504899999999609
 20
1.781909741285948
 10
-0.6065899999999576
 20
1.828349741285942
 10
-0.6556299999999613
 20
1.882109741285945
 10
-0.6994599999999616
 20
1.947809741285949
 10
-0.7338699999999605
 20
2.018819741285942
 10
-0.7591999999999635
 20
2.100159741285951
 10
-0.7732599999999615
 20
2.184199741285952
 10
-0.7749399999999609
 20
2.275559741285949
 10
-0.7644099999999617
 20
2.366379741285945
 10
-0.7390699999999609
 20
2.460719741285947
 10
-0.7014799999999624
 20
2.550949741285946
 10
-0.6479799999999605
 20
2.640139741285948
 10
-0.5831999999999638
 20
2.721519741285946
 10
-0.5027999999999615
 20
2.797139741285947
 10
-0.4131699999999614
 20
2.861489741285947
 10
-0.3095999999999615
 20
2.915359741285947
 10
-0.1999099999999614
 20
2.955289741285947
 10
-0.0794599999999592
 20
2.980529741285947
 10
0.0433100000000404
 20
2.989909741285948
 10
0.1724900000000402
 20
2.981389741285947
 10
0.2995500000000373
 20
2.956269741285947
 10
0.4277600000000397
 20
2.911349741285948
 10
0.5491800000000362
 20
2.850269741285949
 10
0.6659800000000367
 20
2.769099741285949
 10
0.7715100000000417
 20
2.673609741285948
 10
0.8665600000000399
 20
2.559249741285946
 10
0.9463100000000368
 20
2.433659741285948
 10
1.010220000000039
 20
2.292319741285947
 10
1.055690000000038
 20
2.143929741285948
 10
1.080800000000039
 20
1.984429741285945
 10
1.085520000000037
 20
1.822809741285946
 10
1.066810000000038
 20
1.655879741285946
 10
1.027150000000039
 20
1.492629741285948
 10
0.9625900000000388
 20
1.330519741285948
 10
0.8780600000000394
 20
1.177849741285948
 10
0.76912000000004
 20
1.03341974128595
 10
0.6428700000000392
 20
0.903749741285949
 10
0.4945900000000428
 20
0.7891697412859498
 10
0.3331300000000414
 20
0.6941297412859489
 10
0.1539400000000377
 20
0.6201097412859458
 10
-0.0330699999999609
 20
0.5692297412859482
 10
-0.2317999999999669
 20
0.544109741285948
 10
-0.4320999999999576
 20
0.5441697412859483
 10
-0.6369099999999604
 20
0.5729697412859487
 10
-0.8364099999999673
 20
0.6273397412859545
 10
-1.084229999999968
 20
0.7012797412859504
 10
-1.33933999999996
 20
0.7434897412859476
 10
-1.591449999999961
 20
0.7499997412859472
 10
-1.84226999999996
 20
0.7247797412859485
 10
-2.080979999999958
 20
0.666669741285948
 10
-2.310419999999961
 20
0.5790997412859467
 10
-2.519942999999964
 20
0.4638097412859459
 10
-2.713302999999964
 20
0.3230897412859459
 10
-2.880728999999959
 20
0.161409741285949
 10
-3.026453999999962
 20
-0.0199702587140545
 10
-3.142392999999956
 20
-0.2141902587140434
 10
-3.232942599999962
 20
-0.4215002587140538
 10
-3.292241699999959
 20
-0.6330302587140447
 10
-3.324359719999962
 20
-0.8504302587140513
 10
-3.32604157999996
 20
-1.063640258714046
 10
-3.30086789999996
 20
-1.275390258714053
 10
-3.248187799999954
 20
-1.475370258714069
 10
-3.170767999999963
 20
-1.667099258714051
 10
-3.070724999999963
 20
-1.840601258714039
 10
-2.94952199999996
 20
-2.000161258714054
 10
-2.811935999999964
 20
-2.136662258714046
 10
-2.658235999999956
 20
-2.254826258714055
 10
-2.495203999999965
 20
-2.347167258714052
 10
-2.321809999999963
 20
-2.418237258714054
 10
-2.146459999999957
 20
-2.462835258714052
 10
-1.966879999999958
 20
-2.48486125871405
 10
-1.792459999999969
 20
-2.481824258714054
 10
-1.619769999999969
 20
-2.456650258714053
 10
-1.458529999999957
 20
-2.409394258714047
 10
-1.304559999999964
 20
-2.342121258714051
 10
-1.167019999999962
 20
-2.25726825871405
 10
-1.041369999999965
 20
-2.155651258714056
 10
-0.9356299999999615
 20
-2.042099258714052
 10
-0.8451999999999614
 20
-1.916068258714051
 10
-0.7763399999999603
 20
-1.784232258714047
 10
-0.7248499999999605
 20
-1.644800258714049
 10
-0.6948499999999625
 20
-1.505640258714055
 10
-0.6829199999999607
 20
-1.363880258714048
 10
-0.6907799999999607
 20
-1.22819025871405
 10
-0.7159599999999622
 20
-1.094660258714048
 10
-0.7577999999999614
 20
-0.9720502587140487
 10
-0.8149799999999597
 20
-0.855960258714056
 10
-0.8845299999999634
 20
-0.7543402587140529
 10
-0.9665599999999582
 20
-0.6625902587140633
 10
-1.056019999999954
 20
-0.587570258714055
 10
-1.154379999999965
 20
-0.5248402587140504
 10
-1.255019999999974
 20
-0.4794402587140479
 10
-1.360659999999963
 20
-0.4475902587140528
 10
-1.463569999999966
 20
-0.4321802587140518
 10
-1.567519999999952
 20
-0.430440258714051
 10
-1.664479999999965
 20
-0.4429802587140533
 10
-1.758829999999959
 20
-0.4682602587140519
 10
-1.842809999999962
 20
-0.5045002587140539
 10
-1.921029999999961
 20
-0.5517102587140519
 10
-1.986789999999962
 20
-0.6059002587140521
 10
-2.044519999999961
 20
-0.6684602587140534
 10
-2.088899999999963
 20
-0.7337802587140541
 10
-2.12383999999996
 20
-0.8045802587140524
 10
-2.145869999999961
 20
-0.8739702587140545
 10
-2.158019999999961
 20
-0.9457502587140567
 10
-2.158939999999961
 20
-1.012480258714055
 10
-2.150419999999959
 20
-1.078550258714055
 10
-2.133279999999966
 20
-1.136830258714044
 10
-2.107829999999961
 20
-1.192000258714049
 10
-2.077129999999961
 20
-1.237410258714046
 10
-2.039959999999958
 20
-1.277720258714055
 10
-2.001119999999964
 20
-1.307780258714052
 10
-1.95803999999996
 20
-1.331380258714052
 10
-1.916699999999969
 20
-1.345270258714048
 10
-1.873619999999961
 20
-1.35227025871405
 10
-1.835209999999966
 20
-1.351130258714053
 10
-1.797559999999961
 20
-1.343370258714051
 10
-1.766569999999958
 20
-1.329910258714049
 10
-1.738699999999963
 20
-1.310980258714054
 10
-1.718449999999961
 20
-1.289060258714051
 10
-1.703209999999962
 20
-1.263620258714053
 10
-1.69555999999996
 20
-1.237960258714053
 10
-1.693939999999961
 20
-1.211320258714053
 10
-1.699199999999961
 20
-1.186730258714048
 10
-1.710159999999961
 20
-1.164220258714052
 10
-1.72116999999996
 20
-1.141590258714051
 10
-1.726379999999961
 20
-1.117080258714054
 10
-1.724809999999961
 20
-1.090390258714053
 10
-1.71709999999996
 20
-1.064720258714051
 10
-1.701909999999962
 20
-1.039220258714053
 10
-1.681619999999959
 20
-1.01747025871405
 10
-1.653779999999962
 20
-0.9984302587140536
 10
-1.622809999999959
 20
-0.985080258714051
 10
-1.585159999999961
 20
-0.9772102587140523
 10
-1.546689999999964
 20
-0.9761202587140527
 10
-1.503669999999966
 20
-0.9830102587140503
 10
-1.462269999999957
 20
-0.9969602587140524
 10
-1.419259999999961
 20
-1.020570258714052
 10
-1.380349999999956
 20
-1.050680258714057
 10
-1.343239999999957
 20
-1.09093025871406
 10
-1.312479999999964
 20
-1.136390258714049
 10
-1.287089999999962
 20
-1.191510258714046
 10
-1.269949999999961
 20
-1.249780258714049
 10
-1.261419999999961
 20
-1.315920258714056
 10
-1.262299999999961
 20
-1.38265025871405
 10
-1.274509999999961
 20
-1.454370258714048
 10
-1.296479999999959
 20
-1.523820258714049
 10
-1.331459999999959
 20
-1.594560258714049
 10
-1.375799999999961
 20
-1.659938258714052
 10
-1.433569999999961
 20
-1.722438258714053
 10
-1.499269999999962
 20
-1.776690258714052
 10
-1.577619999999958
 20
-1.823837258714051
 10
-1.661489999999958
 20
-1.86013325871405
 10
-1.755889999999964
 20
-1.885361258714052
 10
-1.852779999999963
 20
-1.897947258714052
 10
-1.956789999999952
 20
-1.896157258714051
 10
-2.05965999999996
 20
-1.880749258714052
 10
-2.165339999999956
 20
-1.848903258714049
 10
-2.265929999999969
 20
-1.80354625871405
 10
-2.364343999999959
 20
-1.740775258714053
 10
-2.453753999999959
 20
-1.665797258714047
 10
-2.535839999999966
 20
-1.574000258714046
 10
-2.605392999999963
 20
-1.472440258714045
 10
-2.66257599999996
 20
-1.356280258714054
 10
-2.704350999999962
 20
-1.233660258714047
 10
-2.729578999999961
 20
-1.10015025871405
 10
-2.73739199999996
 20
-0.9645102587140499
 10
-2.72550999999996
 20
-0.8226902587140552
 10
-2.69550799999996
 20
-0.6836502587140476
 10
-2.644020999999962
 20
-0.544110258714051
 10
-2.575118999999961
 20
-0.4122802587140502
 10
-2.484732999999961
 20
-0.2862302587140517
 10
-2.378938999999959
 20
-0.1727502587140499
 10
-2.253289999999963
 20
-0.0711202587140552
 10
-2.115759999999962
 20
0.0136697412859457
 10
-1.961839999999961
 20
0.0810597412859471
 10
-1.800549999999962
 20
0.1282497412859485
 10
-1.627909999999955
 20
0.1534297412859482
 10
-1.453419999999956
 20
0.1565197412859476
 10
-1.27390999999996
 20
0.1344997412859463
 10
-1.098509999999966
 20
0.0898497412859492
 10
-0.9251599999999635
 20
0.0188197412859506
 10
-0.7620799999999659
 20
-0.0735702587140477
 10
-0.6083799999999609
 20
-0.1916802587140536
 10
-0.4707799999999596
 20
-0.3282902587140466
 10
-0.3496399999999622
 20
-0.4877302587140529
 10
-0.2495499999999637
 20
-0.6612902587140477
 10
-0.1721299999999624
 20
-0.8529702587140528
 10
-0.1194499999999605
 20
-1.053000258714056
 10
-0.0595999999999615
 20
-1.304520258714056
 10
0.0313800000000404
 20
-1.546660258714054
 10
0.1518300000000385
 20
-1.76811925871404
 10
0.2990600000000359
 20
-1.972762258714046
 10
0.4687200000000376
 20
-2.150443258714052
 10
0.6593100000000432
 20
-2.305390258714048
 10
0.8639500000000365
 20
-2.429143258714052
 10
1.082540000000038
 20
-2.526311258714051
 10
1.306180000000045
 20
-2.590384658714054
 10
1.536160000000042
 20
-2.625974908714052
 10
1.762340000000024
 20
-2.629230118714052
 10
1.987110000000048
 20
-2.604002158714052
 10
2.199940000000037
 20
-2.549531758714053
 10
2.404310000000034
 20
-2.46869425871405
 10
2.589810000000035
 20
-2.363496258714054
 10
2.760610000000037
 20
-2.235892258714053
 10
2.907410000000036
 20
-2.090276258714052
 10
3.034800000000037
 20
-1.927407258714052
 10
3.135010000000039
 20
-1.753904258714049
 10
3.212590000000037
 20
-1.569280258714053
 10
3.262010000000038
 20
-1.381830258714051
 10
3.287510000000039
 20
-1.189660258714052
 10
3.285940000000038
 20
-1.002280258714052
 10
3.260810000000039
 20
-0.8166202587140523
 10
3.211720000000038
 20
-0.6424102587140501
 10
3.14108000000004
 20
-0.4759102587140554
 10
3.051130000000037
 20
-0.3263302587140497
 10
2.943050000000039
 20
-0.1894602587140515
 10
2.821470000000044
 20
-0.0733402587140537
 10
2.686220000000037
 20
0.0262697412859474
 10
2.543970000000035
 20
0.1030297412859493
 10
2.393200000000042
 20
0.1610297412859474
 10
2.241990000000035
 20
0.1958497412859472
 10
2.087650000000039
 20
0.2110997412859463
 10
1.938980000000039
 20
0.2048597412859481
 10
1.792450000000038
 20
0.1796797412859492
 10
1.656980000000037
 20
0.1361297412859477
 10
1.528230000000042
 20
0.0755197412859499
 10
1.414630000000037
 20
0.0009197412859514
 10
1.311610000000039
 20
-0.0876802587140517
 10
1.226370000000038
 20
-0.1851602587140508
 10
1.154370000000037
 20
-0.2927502587140536
 10
1.101150000000039
 20
-0.4037502587140507
 10
1.062740000000038
 20
-0.5206602587140532
 10
1.042510000000038
 20
-0.6356402587140542
 10
1.037340000000038
 20
-0.7522202587140532
 10
1.048360000000038
 20
-0.8620302587140464
 10
1.073590000000038
 20
-0.969570258714052
 10
1.111680000000036
 20
-1.066340258714053
 10
1.162190000000037
 20
-1.157270258714052
 10
1.221480000000037
 20
-1.234910258714044
 10
1.290550000000034
 20
-1.304030258714046
 10
1.36390000000004
 20
-1.358560258714052
 10
1.44393000000004
 20
-1.402830258714049
 10
1.523730000000039
 20
-1.432620258714052
 10
1.606790000000036
 20
-1.451330258714052
 10
1.685560000000032
 20
-1.457030258714051
 10
1.764340000000036
 20
-1.451930258714051
 10
1.835470000000036
 20
-1.436300258714051
 10
1.903660000000036
 20
-1.411020258714054
 10
1.961880000000041
 20
-1.378360258714049
 10
2.014940000000041
 20
-1.33794025871405
 10
2.056770000000038
 20
-1.29394025871405
 10
2.091870000000039
 20
-1.244410258714052
 10
2.115860000000038
 20
-1.195090258714052
 10
2.132190000000038
 20
-1.142790258714053
 10
2.138740000000038
 20
-1.094070258714051
 10
2.137660000000038
 20
-1.04497025871405
 10
2.128980000000037
 20
-1.002220258714051
 10
2.113520000000039
 20
-0.9614802587140518
 10
2.093340000000039
 20
-0.9287102587140543
 10
2.06779000000004
 20
-0.900010258714051
 10
2.040660000000037
 20
-0.8798902587140524
 10
2.010270000000041
 20
-0.8652902587140527
 10
1.98124000000004
 20
-0.8586102587140516
 10
1.951580000000037
 20
-0.8581202587140532
 10
1.925540000000042
 20
-0.8643602587140515
 10
1.901610000000039
 20
-0.8763002587140498
 10
1.882940000000036
 20
-0.8931202587140543
 10
1.868940000000103
 20
-0.9139602587139812
 10
1.854900000000037
 20
-0.9346802587140548
 10
1.836230000000038
 20
-0.9515502587140538
 10
1.812300000000039
 20
-0.9634302587140517
 10
1.786310000000038
 20
-0.969660258714053
 10
1.756590000000035
 20
-0.9692302587140524
 10
1.727560000000035
 20
-0.9626202587140522
 10
1.697180000000033
 20
-0.9479702587140526
 10
1.670110000000038
 20
-0.9278402587140535
 10
1.644490000000039
 20
-0.8990802587140525
 10
1.624370000000038
 20
-0.8663702587140553
 10
1.608800000000039
 20
-0.8256202587140535
 10
1.600230000000038
 20
-0.7828202587140503
 10
1.599090000000038
 20
-0.7337802587140514
 10
1.605650000000039
 20
-0.6850502587140515
 10
1.621980000000038
 20
-0.6327102587140505
 10
1.646020000000038
 20
-0.5834402587140515
 10
1.681010000000038
 20
-0.5338602587140518
 10
1.722950000000038
 20
-0.4899002587140516
 10
1.775950000000037
 20
-0.4493902587140486
 10
1.83417000000004
 20
-0.4168302587140503
 10
1.902370000000045
 20
-0.3914402587140513
 10
1.973550000000032
 20
-0.3758702587140537
 10
2.052330000000035
 20
-0.3707102587140509
 10
2.13109000000004
 20
-0.3764702587140514
 10
2.214110000000035
 20
-0.3952302587140526
 10
2.293910000000035
 20
-0.4250302587140516
 10
2.373880000000039
 20
-0.4692902587140555
 10
2.447290000000041
 20
-0.5238202587140562
 10
2.516300000000038
 20
-0.5929302587140546
 10
2.575650000000037
 20
-0.6705702587140534
 10
2.626160000000037
 20
-0.761500258714051
 10
2.664300000000038
 20
-0.858340258714052
 10
2.689480000000038
 20
-0.9657102587140524
 10
2.700490000000038
 20
-1.075570258714051
 10
2.695330000000039
 20
-1.192160258714051
 10
2.675090000000038
 20
-1.30713025871405
 10
2.636690000000039
 20
-1.42404025871405
 10
2.583470000000038
 20
-1.53510025871405
 10
2.51147000000004
 20
-1.642631258714055
 10
2.426230000000036
 20
-1.740124258714055
 10
2.323160000000036
 20
-1.828665258714051
 10
2.209610000000033
 20
-1.903318258714055
 10
2.08080000000004
 20
-1.963919258714051
 10
1.945380000000043
 20
-2.007485258714051
 10
1.798800000000035
 20
-2.032658258714052
 10
1.650240000000032
 20
-2.039007258714052
 10
1.495840000000043
 20
-2.023653258714054
 10
1.344630000000032
 20
-1.988822258714051
 10
1.193810000000031
 20
-1.930771258714043
 10
1.051620000000041
 20
-1.854056258714047
 10
0.9163700000000417
 20
-1.754447258714057
 10
0.7948400000000393
 20
-1.638453258714055
 10
0.6867000000000408
 20
-1.501460258714051
 10
0.5968100000000407
 20
-1.351940258714052
 10
0.5261200000000366
 20
-1.185390258714043
 10
0.4770800000000382
 20
-1.011290258714052
 10
0.4518400000000389
 20
-0.8255302587140533
 10
0.4503800000000391
 20
-0.6381802587140513
 10
0.4757700000000385
 20
-0.4460102587140513
 10
0.5253000000000383
 20
-0.2585702587140517
 10
0.6028300000000393
 20
-0.0738902587140507
 10
0.7030900000000388
 20
0.0995597412859475
 10
0.8303700000000384
 20
0.2624697412859493
 10
0.9772300000000395
 20
0.4080997412859544
 10
1.16517000000004
 20
0.5857797412859523
 10
1.329340000000037
 20
0.7855397412859478
 10
1.460950000000038
 20
1.000599741285948
 10
1.564580000000038
 20
1.230469741285947
 10
1.633590000000038
 20
1.466249741285947
 10
1.672490000000038
 20
1.708709741285947
 10
1.677380000000038
 20
1.947859741285946
 10
1.652200000000038
 20
2.185659741285946
 10
1.595880000000039
 20
2.411459741285947
 10
1.511690000000039
 20
2.628309741285948
 10
1.401380000000038
 20
2.825849741285948
 10
1.267220000000036
 20
3.007919741285949
 97
        0
 92
        1
 93
      432
 72
     1
 10
1.595880000000039
 20
2.411459741285947
 11
1.652200000000038
 21
2.185659741285947
 72
     1
 10
1.652200000000038
 20
2.185659741285947
 11
1.677380000000038
 21
1.947859741285947
 72
     1
 10
1.677380000000038
 20
1.947859741285947
 11
1.672490000000038
 21
1.708709741285947
 72
     1
 10
1.672490000000038
 20
1.708709741285947
 11
1.633590000000038
 21
1.466249741285947
 72
     1
 10
1.633590000000038
 20
1.466249741285947
 11
1.564580000000038
 21
1.230469741285947
 72
     1
 10
1.564580000000038
 20
1.230469741285947
 11
1.460950000000038
 21
1.000599741285947
 72
     1
 10
1.460950000000038
 20
1.000599741285947
 11
1.329340000000038
 21
0.7855397412859482
 72
     1
 10
1.329340000000038
 20
0.7855397412859482
 11
1.165170000000038
 21
0.5857797412859478
 72
     1
 10
1.165170000000038
 20
0.5857797412859478
 11
0.9772300000000386
 21
0.4080997412859478
 72
     1
 10
0.9772300000000386
 20
0.4080997412859478
 11
0.8303700000000384
 21
0.262469741285948
 72
     1
 10
0.8303700000000384
 20
0.262469741285948
 11
0.7030900000000387
 21
0.0995597412859479
 72
     1
 10
0.7030900000000387
 20
0.0995597412859479
 11
0.6028300000000391
 21
-0.0738902587140524
 72
     1
 10
0.6028300000000391
 20
-0.0738902587140524
 11
0.5253000000000383
 21
-0.2585702587140521
 72
     1
 10
0.5253000000000383
 20
-0.2585702587140521
 11
0.4757700000000385
 21
-0.4460102587140522
 72
     1
 10
0.4757700000000385
 20
-0.4460102587140522
 11
0.4503800000000391
 21
-0.6381802587140522
 72
     1
 10
0.4503800000000391
 20
-0.6381802587140522
 11
0.4518400000000389
 21
-0.8255302587140519
 72
     1
 10
0.4518400000000389
 20
-0.8255302587140519
 11
0.4770800000000391
 21
-1.011290258714052
 72
     1
 10
0.4770800000000391
 20
-1.011290258714052
 11
0.5261200000000384
 21
-1.185390258714052
 72
     1
 10
0.5261200000000384
 20
-1.185390258714052
 11
0.5968100000000387
 21
-1.351940258714052
 72
     1
 10
0.5968100000000387
 20
-1.351940258714052
 11
0.6867000000000383
 21
-1.501460258714052
 72
     1
 10
0.6867000000000383
 20
-1.501460258714052
 11
0.7948400000000389
 21
-1.638453258714052
 72
     1
 10
0.7948400000000389
 20
-1.638453258714052
 11
0.9163700000000387
 21
-1.754447258714052
 72
     1
 10
0.9163700000000387
 20
-1.754447258714052
 11
1.051620000000037
 21
-1.854056258714052
 72
     1
 10
1.051620000000037
 20
-1.854056258714052
 11
1.193810000000038
 21
-1.930771258714052
 72
     1
 10
1.193810000000038
 20
-1.930771258714052
 11
1.344630000000038
 21
-1.988822258714052
 72
     1
 10
1.344630000000038
 20
-1.988822258714052
 11
1.495840000000038
 21
-2.023653258714052
 72
     1
 10
1.495840000000038
 20
-2.023653258714052
 11
1.650240000000039
 21
-2.039007258714052
 72
     1
 10
1.650240000000039
 20
-2.039007258714052
 11
1.798800000000039
 21
-2.032658258714052
 72
     1
 10
1.798800000000039
 20
-2.032658258714052
 11
1.945380000000039
 21
-2.007485258714051
 72
     1
 10
1.945380000000039
 20
-2.007485258714051
 11
2.080800000000039
 21
-1.963919258714052
 72
     1
 10
2.080800000000039
 20
-1.963919258714052
 11
2.209610000000038
 21
-1.903318258714051
 72
     1
 10
2.209610000000038
 20
-1.903318258714051
 11
2.323160000000038
 21
-1.828665258714051
 72
     1
 10
2.323160000000038
 20
-1.828665258714051
 11
2.426230000000038
 21
-1.740124258714052
 72
     1
 10
2.426230000000038
 20
-1.740124258714052
 11
2.511470000000038
 21
-1.642631258714052
 72
     1
 10
2.511470000000038
 20
-1.642631258714052
 11
2.583470000000038
 21
-1.535100258714052
 72
     1
 10
2.583470000000038
 20
-1.535100258714052
 11
2.636690000000038
 21
-1.424040258714052
 72
     1
 10
2.636690000000038
 20
-1.424040258714052
 11
2.675090000000039
 21
-1.307130258714052
 72
     1
 10
2.675090000000039
 20
-1.307130258714052
 11
2.695330000000039
 21
-1.192160258714052
 72
     1
 10
2.695330000000039
 20
-1.192160258714052
 11
2.700490000000038
 21
-1.075570258714052
 72
     1
 10
2.700490000000038
 20
-1.075570258714052
 11
2.689480000000038
 21
-0.9657102587140521
 72
     1
 10
2.689480000000038
 20
-0.9657102587140521
 11
2.664300000000038
 21
-0.8583402587140522
 72
     1
 10
2.664300000000038
 20
-0.8583402587140522
 11
2.626160000000038
 21
-0.7615002587140523
 72
     1
 10
2.626160000000038
 20
-0.7615002587140523
 11
2.575650000000038
 21
-0.6705702587140524
 72
     1
 10
2.575650000000038
 20
-0.6705702587140524
 11
2.516300000000038
 21
-0.592930258714052
 72
     1
 10
2.516300000000038
 20
-0.592930258714052
 11
2.447290000000038
 21
-0.5238202587140522
 72
     1
 10
2.447290000000038
 20
-0.5238202587140522
 11
2.373880000000038
 21
-0.4692902587140524
 72
     1
 10
2.373880000000038
 20
-0.4692902587140524
 11
2.293910000000038
 21
-0.425030258714052
 72
     1
 10
2.293910000000038
 20
-0.425030258714052
 11
2.214110000000038
 21
-0.3952302587140522
 72
     1
 10
2.214110000000038
 20
-0.3952302587140522
 11
2.131090000000038
 21
-0.3764702587140523
 72
     1
 10
2.131090000000038
 20
-0.3764702587140523
 11
2.052330000000038
 21
-0.3707102587140518
 72
     1
 10
2.052330000000038
 20
-0.3707102587140518
 11
1.973550000000038
 21
-0.3758702587140523
 72
     1
 10
1.973550000000038
 20
-0.3758702587140523
 11
1.902370000000038
 21
-0.3914402587140522
 72
     1
 10
1.902370000000038
 20
-0.3914402587140522
 11
1.834170000000038
 21
-0.416830258714052
 72
     1
 10
1.834170000000038
 20
-0.416830258714052
 11
1.775950000000038
 21
-0.4493902587140522
 72
     1
 10
1.775950000000038
 20
-0.4493902587140522
 11
1.722950000000039
 21
-0.489900258714052
 72
     1
 10
1.722950000000039
 20
-0.489900258714052
 11
1.681010000000038
 21
-0.5338602587140522
 72
     1
 10
1.681010000000038
 20
-0.5338602587140522
 11
1.646020000000038
 21
-0.5834402587140524
 72
     1
 10
1.646020000000038
 20
-0.5834402587140524
 11
1.621980000000038
 21
-0.6327102587140521
 72
     1
 10
1.621980000000038
 20
-0.6327102587140521
 11
1.605650000000038
 21
-0.6850502587140522
 72
     1
 10
1.605650000000038
 20
-0.6850502587140522
 11
1.599090000000038
 21
-0.7337802587140521
 72
     1
 10
1.599090000000038
 20
-0.7337802587140521
 11
1.600230000000038
 21
-0.7828202587140522
 72
     1
 10
1.600230000000038
 20
-0.7828202587140522
 11
1.608800000000038
 21
-0.8256202587140521
 72
     1
 10
1.608800000000038
 20
-0.8256202587140521
 11
1.624370000000038
 21
-0.8663702587140523
 72
     1
 10
1.624370000000038
 20
-0.8663702587140523
 11
1.644490000000038
 21
-0.8990802587140521
 72
     1
 10
1.644490000000038
 20
-0.8990802587140521
 11
1.670110000000038
 21
-0.9278402587140522
 72
     1
 10
1.670110000000038
 20
-0.9278402587140522
 11
1.697180000000038
 21
-0.9479702587140522
 72
     1
 10
1.697180000000038
 20
-0.9479702587140522
 11
1.727560000000038
 21
-0.9626202587140522
 72
     1
 10
1.727560000000038
 20
-0.9626202587140522
 11
1.756590000000039
 21
-0.969230258714052
 72
     1
 10
1.756590000000039
 20
-0.969230258714052
 11
1.786310000000038
 21
-0.9696602587140519
 72
     1
 10
1.786310000000038
 20
-0.9696602587140519
 11
1.812300000000038
 21
-0.9634302587140519
 72
     1
 10
1.812300000000038
 20
-0.9634302587140519
 11
1.836230000000038
 21
-0.951550258714052
 72
     1
 10
1.836230000000038
 20
-0.951550258714052
 11
1.854900000000038
 21
-0.9346802587140521
 72
     1
 10
1.854900000000038
 20
-0.9346802587140521
 11
1.868940000000038
 21
-0.9139602587140521
 72
     1
 10
1.868940000000038
 20
-0.9139602587140521
 11
1.882940000000038
 21
-0.8931202587140523
 72
     1
 10
1.882940000000038
 20
-0.8931202587140523
 11
1.901610000000038
 21
-0.8763002587140519
 72
     1
 10
1.901610000000038
 20
-0.8763002587140519
 11
1.925540000000038
 21
-0.864360258714052
 72
     1
 10
1.925540000000038
 20
-0.864360258714052
 11
1.951580000000038
 21
-0.8581202587140522
 72
     1
 10
1.951580000000038
 20
-0.8581202587140522
 11
1.981240000000038
 21
-0.8586102587140519
 72
     1
 10
1.981240000000038
 20
-0.8586102587140519
 11
2.010270000000038
 21
-0.8652902587140523
 72
     1
 10
2.010270000000038
 20
-0.8652902587140523
 11
2.040660000000038
 21
-0.8798902587140522
 72
     1
 10
2.040660000000038
 20
-0.8798902587140522
 11
2.067790000000038
 21
-0.9000102587140519
 72
     1
 10
2.067790000000038
 20
-0.9000102587140519
 11
2.093340000000038
 21
-0.928710258714052
 72
     1
 10
2.093340000000038
 20
-0.928710258714052
 11
2.113520000000038
 21
-0.961480258714052
 72
     1
 10
2.113520000000038
 20
-0.961480258714052
 11
2.128980000000038
 21
-1.002220258714052
 72
     1
 10
2.128980000000038
 20
-1.002220258714052
 11
2.137660000000038
 21
-1.044970258714052
 72
     1
 10
2.137660000000038
 20
-1.044970258714052
 11
2.138740000000038
 21
-1.094070258714052
 72
     1
 10
2.138740000000038
 20
-1.094070258714052
 11
2.132190000000038
 21
-1.142790258714052
 72
     1
 10
2.132190000000038
 20
-1.142790258714052
 11
2.115860000000038
 21
-1.195090258714052
 72
     1
 10
2.115860000000038
 20
-1.195090258714052
 11
2.091870000000038
 21
-1.244410258714052
 72
     1
 10
2.091870000000038
 20
-1.244410258714052
 11
2.056770000000038
 21
-1.293940258714052
 72
     1
 10
2.056770000000038
 20
-1.293940258714052
 11
2.014940000000038
 21
-1.337940258714052
 72
     1
 10
2.014940000000038
 20
-1.337940258714052
 11
1.961880000000038
 21
-1.378360258714052
 72
     1
 10
1.961880000000038
 20
-1.378360258714052
 11
1.903660000000038
 21
-1.411020258714052
 72
     1
 10
1.903660000000038
 20
-1.411020258714052
 11
1.835470000000038
 21
-1.436300258714052
 72
     1
 10
1.835470000000038
 20
-1.436300258714052
 11
1.764340000000038
 21
-1.451930258714052
 72
     1
 10
1.764340000000038
 20
-1.451930258714052
 11
1.685560000000038
 21
-1.457030258714052
 72
     1
 10
1.685560000000038
 20
-1.457030258714052
 11
1.606790000000038
 21
-1.451330258714051
 72
     1
 10
1.606790000000038
 20
-1.451330258714051
 11
1.523730000000038
 21
-1.432620258714052
 72
     1
 10
1.523730000000038
 20
-1.432620258714052
 11
1.443930000000039
 21
-1.402830258714051
 72
     1
 10
1.443930000000039
 20
-1.402830258714051
 11
1.363900000000038
 21
-1.358560258714052
 72
     1
 10
1.363900000000038
 20
-1.358560258714052
 11
1.290550000000038
 21
-1.304030258714051
 72
     1
 10
1.290550000000038
 20
-1.304030258714051
 11
1.221480000000038
 21
-1.234910258714052
 72
     1
 10
1.221480000000038
 20
-1.234910258714052
 11
1.162190000000038
 21
-1.157270258714052
 72
     1
 10
1.162190000000038
 20
-1.157270258714052
 11
1.111680000000038
 21
-1.066340258714052
 72
     1
 10
1.111680000000038
 20
-1.066340258714052
 11
1.073590000000038
 21
-0.9695702587140521
 72
     1
 10
1.073590000000038
 20
-0.9695702587140521
 11
1.048360000000038
 21
-0.8620302587140519
 72
     1
 10
1.048360000000038
 20
-0.8620302587140519
 11
1.037340000000038
 21
-0.7522202587140523
 72
     1
 10
1.037340000000038
 20
-0.7522202587140523
 11
1.042510000000038
 21
-0.6356402587140524
 72
     1
 10
1.042510000000038
 20
-0.6356402587140524
 11
1.062740000000038
 21
-0.5206602587140519
 72
     1
 10
1.062740000000038
 20
-0.5206602587140519
 11
1.101150000000038
 21
-0.4037502587140521
 72
     1
 10
1.101150000000038
 20
-0.4037502587140521
 11
1.154370000000038
 21
-0.2927502587140523
 72
     1
 10
1.154370000000038
 20
-0.2927502587140523
 11
1.226370000000038
 21
-0.1851602587140522
 72
     1
 10
1.226370000000038
 20
-0.1851602587140522
 11
1.311610000000038
 21
-0.0876802587140522
 72
     1
 10
1.311610000000038
 20
-0.0876802587140522
 11
1.414630000000038
 21
0.0009197412859479
 72
     1
 10
1.414630000000038
 20
0.0009197412859479
 11
1.528230000000038
 21
0.0755197412859481
 72
     1
 10
1.528230000000038
 20
0.0755197412859481
 11
1.656980000000038
 21
0.1361297412859477
 72
     1
 10
1.656980000000038
 20
0.1361297412859477
 11
1.792450000000038
 21
0.1796797412859479
 72
     1
 10
1.792450000000038
 20
0.1796797412859479
 11
1.938980000000039
 21
0.2048597412859476
 72
     1
 10
1.938980000000039
 20
0.2048597412859476
 11
2.087650000000039
 21
0.2110997412859477
 72
     1
 10
2.087650000000039
 20
0.2110997412859477
 11
2.241990000000038
 21
0.1958497412859477
 72
     1
 10
2.241990000000038
 20
0.1958497412859477
 11
2.393200000000038
 21
0.1610297412859478
 72
     1
 10
2.393200000000038
 20
0.1610297412859478
 11
2.543970000000038
 21
0.103029741285948
 72
     1
 10
2.543970000000038
 20
0.103029741285948
 11
2.686220000000038
 21
0.0262697412859478
 72
     1
 10
2.686220000000038
 20
0.0262697412859478
 11
2.821470000000038
 21
-0.0733402587140524
 72
     1
 10
2.821470000000038
 20
-0.0733402587140524
 11
2.943050000000038
 21
-0.1894602587140519
 72
     1
 10
2.943050000000038
 20
-0.1894602587140519
 11
3.051130000000038
 21
-0.326330258714052
 72
     1
 10
3.051130000000038
 20
-0.326330258714052
 11
3.141080000000038
 21
-0.4759102587140518
 72
     1
 10
3.141080000000038
 20
-0.4759102587140518
 11
3.211720000000038
 21
-0.6424102587140521
 72
     1
 10
3.211720000000038
 20
-0.6424102587140521
 11
3.260810000000039
 21
-0.8166202587140523
 72
     1
 10
3.260810000000039
 20
-0.8166202587140523
 11
3.285940000000038
 21
-1.002280258714052
 72
     1
 10
3.285940000000038
 20
-1.002280258714052
 11
3.287510000000039
 21
-1.189660258714052
 72
     1
 10
3.287510000000039
 20
-1.189660258714052
 11
3.262010000000039
 21
-1.381830258714052
 72
     1
 10
3.262010000000039
 20
-1.381830258714052
 11
3.212590000000038
 21
-1.569280258714051
 72
     1
 10
3.212590000000038
 20
-1.569280258714051
 11
3.135010000000038
 21
-1.753904258714052
 72
     1
 10
3.135010000000038
 20
-1.753904258714052
 11
3.034800000000038
 21
-1.927407258714051
 72
     1
 10
3.034800000000038
 20
-1.927407258714051
 11
2.907410000000038
 21
-2.090276258714052
 72
     1
 10
2.907410000000038
 20
-2.090276258714052
 11
2.760610000000038
 21
-2.235892258714052
 72
     1
 10
2.760610000000038
 20
-2.235892258714052
 11
2.589810000000038
 21
-2.363496258714052
 72
     1
 10
2.589810000000038
 20
-2.363496258714052
 11
2.404310000000038
 21
-2.468694258714052
 72
     1
 10
2.404310000000038
 20
-2.468694258714052
 11
2.199940000000038
 21
-2.549531758714052
 72
     1
 10
2.199940000000038
 20
-2.549531758714052
 11
1.987110000000038
 21
-2.604002158714052
 72
     1
 10
1.987110000000038
 20
-2.604002158714052
 11
1.762340000000039
 21
-2.629230118714052
 72
     1
 10
1.762340000000039
 20
-2.629230118714052
 11
1.536160000000038
 21
-2.625974908714052
 72
     1
 10
1.536160000000038
 20
-2.625974908714052
 11
1.306180000000038
 21
-2.590384658714051
 72
     1
 10
1.306180000000038
 20
-2.590384658714051
 11
1.082540000000038
 21
-2.526311258714052
 72
     1
 10
1.082540000000038
 20
-2.526311258714052
 11
0.863950000000039
 21
-2.429143258714052
 72
     1
 10
0.863950000000039
 20
-2.429143258714052
 11
0.6593100000000387
 21
-2.305390258714052
 72
     1
 10
0.6593100000000387
 20
-2.305390258714052
 11
0.4687200000000385
 21
-2.150443258714052
 72
     1
 10
0.4687200000000385
 20
-2.150443258714052
 11
0.2990600000000385
 21
-1.972762258714052
 72
     1
 10
0.2990600000000385
 20
-1.972762258714052
 11
0.151830000000039
 21
-1.768119258714052
 72
     1
 10
0.151830000000039
 20
-1.768119258714052
 11
0.0313800000000391
 21
-1.546660258714052
 72
     1
 10
0.0313800000000391
 20
-1.546660258714052
 11
-0.0595999999999615
 21
-1.304520258714052
 72
     1
 10
-0.0595999999999615
 20
-1.304520258714052
 11
-0.1194499999999614
 21
-1.053000258714052
 72
     1
 10
-0.1194499999999614
 20
-1.053000258714052
 11
-0.1721299999999615
 21
-0.8529702587140521
 72
     1
 10
-0.1721299999999615
 20
-0.8529702587140521
 11
-0.2495499999999615
 21
-0.6612902587140523
 72
     1
 10
-0.2495499999999615
 20
-0.6612902587140523
 11
-0.3496399999999613
 21
-0.487730258714052
 72
     1
 10
-0.3496399999999613
 20
-0.487730258714052
 11
-0.4707799999999614
 21
-0.3282902587140524
 72
     1
 10
-0.4707799999999614
 20
-0.3282902587140524
 11
-0.6083799999999613
 21
-0.1916802587140523
 72
     1
 10
-0.6083799999999613
 20
-0.1916802587140523
 11
-0.7620799999999615
 21
-0.0735702587140521
 72
     1
 10
-0.7620799999999615
 20
-0.0735702587140521
 11
-0.9251599999999612
 21
0.0188197412859479
 72
     1
 10
-0.9251599999999612
 20
0.0188197412859479
 11
-1.098509999999961
 21
0.0898497412859478
 72
     1
 10
-1.098509999999961
 20
0.0898497412859478
 11
-1.273909999999961
 21
0.1344997412859477
 72
     1
 10
-1.273909999999961
 20
0.1344997412859477
 11
-1.453419999999961
 21
0.156519741285948
 72
     1
 10
-1.453419999999961
 20
0.156519741285948
 11
-1.627909999999961
 21
0.1534297412859478
 72
     1
 10
-1.627909999999961
 20
0.1534297412859478
 11
-1.800549999999961
 21
0.128249741285948
 72
     1
 10
-1.800549999999961
 20
0.128249741285948
 11
-1.961839999999961
 21
0.0810597412859475
 72
     1
 10
-1.961839999999961
 20
0.0810597412859475
 11
-2.115759999999961
 21
0.0136697412859479
 72
     1
 10
-2.115759999999961
 20
0.0136697412859479
 11
-2.253289999999961
 21
-0.071120258714052
 72
     1
 10
-2.253289999999961
 20
-0.071120258714052
 11
-2.378938999999961
 21
-0.1727502587140521
 72
     1
 10
-2.378938999999961
 20
-0.1727502587140521
 11
-2.484732999999961
 21
-0.2862302587140522
 72
     1
 10
-2.484732999999961
 20
-0.2862302587140522
 11
-2.575118999999961
 21
-0.412280258714052
 72
     1
 10
-2.575118999999961
 20
-0.412280258714052
 11
-2.644020999999961
 21
-0.5441102587140519
 72
     1
 10
-2.644020999999961
 20
-0.5441102587140519
 11
-2.695507999999961
 21
-0.6836502587140521
 72
     1
 10
-2.695507999999961
 20
-0.6836502587140521
 11
-2.725509999999961
 21
-0.8226902587140523
 72
     1
 10
-2.725509999999961
 20
-0.8226902587140523
 11
-2.737391999999961
 21
-0.9645102587140518
 72
     1
 10
-2.737391999999961
 20
-0.9645102587140518
 11
-2.729578999999961
 21
-1.100150258714052
 72
     1
 10
-2.729578999999961
 20
-1.100150258714052
 11
-2.704350999999961
 21
-1.233660258714052
 72
     1
 10
-2.704350999999961
 20
-1.233660258714052
 11
-2.662575999999961
 21
-1.356280258714052
 72
     1
 10
-2.662575999999961
 20
-1.356280258714052
 11
-2.605392999999961
 21
-1.472440258714052
 72
     1
 10
-2.605392999999961
 20
-1.472440258714052
 11
-2.535839999999961
 21
-1.574000258714052
 72
     1
 10
-2.535839999999961
 20
-1.574000258714052
 11
-2.453753999999961
 21
-1.665797258714051
 72
     1
 10
-2.453753999999961
 20
-1.665797258714051
 11
-2.364343999999961
 21
-1.740775258714052
 72
     1
 10
-2.364343999999961
 20
-1.740775258714052
 11
-2.265929999999961
 21
-1.803546258714052
 72
     1
 10
-2.265929999999961
 20
-1.803546258714052
 11
-2.165339999999961
 21
-1.848903258714052
 72
     1
 10
-2.165339999999961
 20
-1.848903258714052
 11
-2.059659999999961
 21
-1.880749258714052
 72
     1
 10
-2.059659999999961
 20
-1.880749258714052
 11
-1.956789999999961
 21
-1.896157258714051
 72
     1
 10
-1.956789999999961
 20
-1.896157258714051
 11
-1.852779999999961
 21
-1.897947258714052
 72
     1
 10
-1.852779999999961
 20
-1.897947258714052
 11
-1.755889999999961
 21
-1.885361258714052
 72
     1
 10
-1.755889999999961
 20
-1.885361258714052
 11
-1.661489999999961
 21
-1.860133258714052
 72
     1
 10
-1.661489999999961
 20
-1.860133258714052
 11
-1.577619999999961
 21
-1.823837258714052
 72
     1
 10
-1.577619999999961
 20
-1.823837258714052
 11
-1.499269999999961
 21
-1.776690258714052
 72
     1
 10
-1.499269999999961
 20
-1.776690258714052
 11
-1.433569999999961
 21
-1.722438258714052
 72
     1
 10
-1.433569999999961
 20
-1.722438258714052
 11
-1.375799999999961
 21
-1.659938258714052
 72
     1
 10
-1.375799999999961
 20
-1.659938258714052
 11
-1.331459999999961
 21
-1.594560258714052
 72
     1
 10
-1.331459999999961
 20
-1.594560258714052
 11
-1.296479999999961
 21
-1.523820258714052
 72
     1
 10
-1.296479999999961
 20
-1.523820258714052
 11
-1.274509999999961
 21
-1.454370258714052
 72
     1
 10
-1.274509999999961
 20
-1.454370258714052
 11
-1.262299999999961
 21
-1.382650258714052
 72
     1
 10
-1.262299999999961
 20
-1.382650258714052
 11
-1.261419999999961
 21
-1.315920258714052
 72
     1
 10
-1.261419999999961
 20
-1.315920258714052
 11
-1.269949999999961
 21
-1.249780258714052
 72
     1
 10
-1.269949999999961
 20
-1.249780258714052
 11
-1.287089999999961
 21
-1.191510258714052
 72
     1
 10
-1.287089999999961
 20
-1.191510258714052
 11
-1.312479999999961
 21
-1.136390258714052
 72
     1
 10
-1.312479999999961
 20
-1.136390258714052
 11
-1.343239999999961
 21
-1.090930258714052
 72
     1
 10
-1.343239999999961
 20
-1.090930258714052
 11
-1.380349999999961
 21
-1.050680258714052
 72
     1
 10
-1.380349999999961
 20
-1.050680258714052
 11
-1.419259999999961
 21
-1.020570258714052
 72
     1
 10
-1.419259999999961
 20
-1.020570258714052
 11
-1.462269999999961
 21
-0.9969602587140522
 72
     1
 10
-1.462269999999961
 20
-0.9969602587140522
 11
-1.503669999999961
 21
-0.9830102587140519
 72
     1
 10
-1.503669999999961
 20
-0.9830102587140519
 11
-1.546689999999961
 21
-0.9761202587140523
 72
     1
 10
-1.546689999999961
 20
-0.9761202587140523
 11
-1.585159999999961
 21
-0.9772102587140521
 72
     1
 10
-1.585159999999961
 20
-0.9772102587140521
 11
-1.622809999999961
 21
-0.985080258714052
 72
     1
 10
-1.622809999999961
 20
-0.985080258714052
 11
-1.653779999999961
 21
-0.998430258714052
 72
     1
 10
-1.653779999999961
 20
-0.998430258714052
 11
-1.681619999999961
 21
-1.017470258714052
 72
     1
 10
-1.681619999999961
 20
-1.017470258714052
 11
-1.701909999999961
 21
-1.039220258714052
 72
     1
 10
-1.701909999999961
 20
-1.039220258714052
 11
-1.717099999999961
 21
-1.064720258714052
 72
     1
 10
-1.717099999999961
 20
-1.064720258714052
 11
-1.724809999999961
 21
-1.090390258714052
 72
     1
 10
-1.724809999999961
 20
-1.090390258714052
 11
-1.726379999999961
 21
-1.117080258714052
 72
     1
 10
-1.726379999999961
 20
-1.117080258714052
 11
-1.721169999999961
 21
-1.141590258714052
 72
     1
 10
-1.721169999999961
 20
-1.141590258714052
 11
-1.710159999999961
 21
-1.164220258714052
 72
     1
 10
-1.710159999999961
 20
-1.164220258714052
 11
-1.699199999999961
 21
-1.186730258714052
 72
     1
 10
-1.699199999999961
 20
-1.186730258714052
 11
-1.693939999999961
 21
-1.211320258714052
 72
     1
 10
-1.693939999999961
 20
-1.211320258714052
 11
-1.695559999999961
 21
-1.237960258714052
 72
     1
 10
-1.695559999999961
 20
-1.237960258714052
 11
-1.703209999999961
 21
-1.263620258714052
 72
     1
 10
-1.703209999999961
 20
-1.263620258714052
 11
-1.718449999999961
 21
-1.289060258714052
 72
     1
 10
-1.718449999999961
 20
-1.289060258714052
 11
-1.738699999999961
 21
-1.310980258714051
 72
     1
 10
-1.738699999999961
 20
-1.310980258714051
 11
-1.766569999999961
 21
-1.329910258714052
 72
     1
 10
-1.766569999999961
 20
-1.329910258714052
 11
-1.797559999999961
 21
-1.343370258714052
 72
     1
 10
-1.797559999999961
 20
-1.343370258714052
 11
-1.835209999999961
 21
-1.351130258714052
 72
     1
 10
-1.835209999999961
 20
-1.351130258714052
 11
-1.873619999999961
 21
-1.352270258714052
 72
     1
 10
-1.873619999999961
 20
-1.352270258714052
 11
-1.916699999999961
 21
-1.345270258714052
 72
     1
 10
-1.916699999999961
 20
-1.345270258714052
 11
-1.958039999999961
 21
-1.331380258714051
 72
     1
 10
-1.958039999999961
 20
-1.331380258714051
 11
-2.001119999999961
 21
-1.307780258714052
 72
     1
 10
-2.001119999999961
 20
-1.307780258714052
 11
-2.039959999999961
 21
-1.277720258714052
 72
     1
 10
-2.039959999999961
 20
-1.277720258714052
 11
-2.077129999999961
 21
-1.237410258714052
 72
     1
 10
-2.077129999999961
 20
-1.237410258714052
 11
-2.107829999999961
 21
-1.192000258714052
 72
     1
 10
-2.107829999999961
 20
-1.192000258714052
 11
-2.13327999999996
 21
-1.136830258714051
 72
     1
 10
-2.13327999999996
 20
-1.136830258714051
 11
-2.150419999999961
 21
-1.078550258714052
 72
     1
 10
-2.150419999999961
 20
-1.078550258714052
 11
-2.158939999999961
 21
-1.012480258714052
 72
     1
 10
-2.158939999999961
 20
-1.012480258714052
 11
-2.158019999999961
 21
-0.945750258714052
 72
     1
 10
-2.158019999999961
 20
-0.945750258714052
 11
-2.145869999999961
 21
-0.8739702587140524
 72
     1
 10
-2.145869999999961
 20
-0.8739702587140524
 11
-2.123839999999961
 21
-0.8045802587140521
 72
     1
 10
-2.123839999999961
 20
-0.8045802587140521
 11
-2.088899999999961
 21
-0.7337802587140521
 72
     1
 10
-2.088899999999961
 20
-0.7337802587140521
 11
-2.044519999999961
 21
-0.6684602587140521
 72
     1
 10
-2.044519999999961
 20
-0.6684602587140521
 11
-1.986789999999961
 21
-0.6059002587140521
 72
     1
 10
-1.986789999999961
 20
-0.6059002587140521
 11
-1.921029999999961
 21
-0.5517102587140519
 72
     1
 10
-1.921029999999961
 20
-0.5517102587140519
 11
-1.842809999999961
 21
-0.5045002587140522
 72
     1
 10
-1.842809999999961
 20
-0.5045002587140522
 11
-1.758829999999961
 21
-0.4682602587140519
 72
     1
 10
-1.758829999999961
 20
-0.4682602587140519
 11
-1.664479999999961
 21
-0.4429802587140519
 72
     1
 10
-1.664479999999961
 20
-0.4429802587140519
 11
-1.567519999999961
 21
-0.4304402587140524
 72
     1
 10
-1.567519999999961
 20
-0.4304402587140524
 11
-1.463569999999961
 21
-0.4321802587140522
 72
     1
 10
-1.463569999999961
 20
-0.4321802587140522
 11
-1.360659999999961
 21
-0.4475902587140524
 72
     1
 10
-1.360659999999961
 20
-0.4475902587140524
 11
-1.255019999999961
 21
-0.4794402587140523
 72
     1
 10
-1.255019999999961
 20
-0.4794402587140523
 11
-1.154379999999961
 21
-0.5248402587140522
 72
     1
 10
-1.154379999999961
 20
-0.5248402587140522
 11
-1.056019999999961
 21
-0.5875702587140524
 72
     1
 10
-1.056019999999961
 20
-0.5875702587140524
 11
-0.9665599999999612
 21
-0.6625902587140522
 72
     1
 10
-0.9665599999999612
 20
-0.6625902587140522
 11
-0.884529999999961
 21
-0.7543402587140522
 72
     1
 10
-0.884529999999961
 20
-0.7543402587140522
 11
-0.8149799999999611
 21
-0.8559602587140521
 72
     1
 10
-0.8149799999999611
 20
-0.8559602587140521
 11
-0.7577999999999614
 21
-0.972050258714052
 72
     1
 10
-0.7577999999999614
 20
-0.972050258714052
 11
-0.7159599999999613
 21
-1.094660258714052
 72
     1
 10
-0.7159599999999613
 20
-1.094660258714052
 11
-0.6907799999999611
 21
-1.228190258714052
 72
     1
 10
-0.6907799999999611
 20
-1.228190258714052
 11
-0.6829199999999616
 21
-1.363880258714052
 72
     1
 10
-0.6829199999999616
 20
-1.363880258714052
 11
-0.6948499999999616
 21
-1.505640258714052
 72
     1
 10
-0.6948499999999616
 20
-1.505640258714052
 11
-0.7248499999999614
 21
-1.644800258714051
 72
     1
 10
-0.7248499999999614
 20
-1.644800258714051
 11
-0.7763399999999617
 21
-1.784232258714052
 72
     1
 10
-0.7763399999999617
 20
-1.784232258714052
 11
-0.8451999999999614
 21
-1.916068258714052
 72
     1
 10
-0.8451999999999614
 20
-1.916068258714052
 11
-0.935629999999961
 21
-2.042099258714052
 72
     1
 10
-0.935629999999961
 20
-2.042099258714052
 11
-1.041369999999961
 21
-2.155651258714052
 72
     1
 10
-1.041369999999961
 20
-2.155651258714052
 11
-1.167019999999961
 21
-2.257268258714052
 72
     1
 10
-1.167019999999961
 20
-2.257268258714052
 11
-1.304559999999961
 21
-2.342121258714052
 72
     1
 10
-1.304559999999961
 20
-2.342121258714052
 11
-1.458529999999961
 21
-2.409394258714052
 72
     1
 10
-1.458529999999961
 20
-2.409394258714052
 11
-1.619769999999961
 21
-2.456650258714052
 72
     1
 10
-1.619769999999961
 20
-2.456650258714052
 11
-1.792459999999961
 21
-2.481824258714051
 72
     1
 10
-1.792459999999961
 20
-2.481824258714051
 11
-1.966879999999961
 21
-2.484861258714051
 72
     1
 10
-1.966879999999961
 20
-2.484861258714051
 11
-2.146459999999961
 21
-2.462835258714052
 72
     1
 10
-2.146459999999961
 20
-2.462835258714052
 11
-2.321809999999961
 21
-2.418237258714051
 72
     1
 10
-2.321809999999961
 20
-2.418237258714051
 11
-2.495203999999961
 21
-2.347167258714052
 72
     1
 10
-2.495203999999961
 20
-2.347167258714052
 11
-2.658235999999961
 21
-2.254826258714052
 72
     1
 10
-2.658235999999961
 20
-2.254826258714052
 11
-2.811935999999961
 21
-2.136662258714052
 72
     1
 10
-2.811935999999961
 20
-2.136662258714052
 11
-2.949521999999961
 21
-2.000161258714052
 72
     1
 10
-2.949521999999961
 20
-2.000161258714052
 11
-3.070724999999961
 21
-1.840601258714052
 72
     1
 10
-3.070724999999961
 20
-1.840601258714052
 11
-3.170767999999961
 21
-1.667099258714052
 72
     1
 10
-3.170767999999961
 20
-1.667099258714052
 11
-3.248187799999961
 21
-1.475370258714052
 72
     1
 10
-3.248187799999961
 20
-1.475370258714052
 11
-3.300867899999961
 21
-1.275390258714052
 72
     1
 10
-3.300867899999961
 20
-1.275390258714052
 11
-3.326041579999961
 21
-1.063640258714052
 72
     1
 10
-3.326041579999961
 20
-1.063640258714052
 11
-3.324359719999961
 21
-0.850430258714052
 72
     1
 10
-3.324359719999961
 20
-0.850430258714052
 11
-3.292241699999961
 21
-0.6330302587140522
 72
     1
 10
-3.292241699999961
 20
-0.6330302587140522
 11
-3.232942599999961
 21
-0.421500258714052
 72
     1
 10
-3.232942599999961
 20
-0.421500258714052
 11
-3.142392999999961
 21
-0.2141902587140523
 72
     1
 10
-3.142392999999961
 20
-0.2141902587140523
 11
-3.026453999999961
 21
-0.0199702587140522
 72
     1
 10
-3.026453999999961
 20
-0.0199702587140522
 11
-2.880728999999961
 21
0.1614097412859476
 72
     1
 10
-2.880728999999961
 20
0.1614097412859476
 11
-2.713302999999961
 21
0.3230897412859481
 72
     1
 10
-2.713302999999961
 20
0.3230897412859481
 11
-2.519942999999961
 21
0.4638097412859477
 72
     1
 10
-2.519942999999961
 20
0.4638097412859477
 11
-2.310419999999961
 21
0.579099741285948
 72
     1
 10
-2.310419999999961
 20
0.579099741285948
 11
-2.080979999999961
 21
0.6666697412859475
 72
     1
 10
-2.080979999999961
 20
0.6666697412859475
 11
-1.842269999999961
 21
0.7247797412859481
 72
     1
 10
-1.842269999999961
 20
0.7247797412859481
 11
-1.591449999999961
 21
0.7499997412859481
 72
     1
 10
-1.591449999999961
 20
0.7499997412859481
 11
-1.339339999999961
 21
0.7434897412859481
 72
     1
 10
-1.339339999999961
 20
0.7434897412859481
 11
-1.084229999999961
 21
0.7012797412859482
 72
     1
 10
-1.084229999999961
 20
0.7012797412859482
 11
-0.8364099999999613
 21
0.6273397412859479
 72
     1
 10
-0.8364099999999613
 20
0.6273397412859479
 11
-0.6369099999999613
 21
0.5729697412859478
 72
     1
 10
-0.6369099999999613
 20
0.5729697412859478
 11
-0.4320999999999616
 21
0.5441697412859479
 72
     1
 10
-0.4320999999999616
 20
0.5441697412859479
 11
-0.2317999999999611
 21
0.544109741285948
 72
     1
 10
-0.2317999999999611
 20
0.544109741285948
 11
-0.0330699999999609
 21
0.5692297412859478
 72
     1
 10
-0.0330699999999609
 20
0.5692297412859478
 11
0.1539400000000386
 21
0.6201097412859476
 72
     1
 10
0.1539400000000386
 20
0.6201097412859476
 11
0.3331300000000388
 21
0.694129741285948
 72
     1
 10
0.3331300000000388
 20
0.694129741285948
 11
0.4945900000000388
 21
0.7891697412859476
 72
     1
 10
0.4945900000000388
 20
0.7891697412859476
 11
0.6428700000000385
 21
0.9037497412859476
 72
     1
 10
0.6428700000000385
 20
0.9037497412859476
 11
0.7691200000000383
 21
1.033419741285947
 72
     1
 10
0.7691200000000383
 20
1.033419741285947
 11
0.8780600000000386
 21
1.177849741285947
 72
     1
 10
0.8780600000000386
 20
1.177849741285947
 11
0.9625900000000386
 21
1.330519741285947
 72
     1
 10
0.9625900000000386
 20
1.330519741285947
 11
1.027150000000038
 21
1.492629741285948
 72
     1
 10
1.027150000000038
 20
1.492629741285948
 11
1.066810000000038
 21
1.655879741285947
 72
     1
 10
1.066810000000038
 20
1.655879741285947
 11
1.085520000000038
 21
1.822809741285947
 72
     1
 10
1.085520000000038
 20
1.822809741285947
 11
1.080800000000039
 21
1.984429741285947
 72
     1
 10
1.080800000000039
 20
1.984429741285947
 11
1.055690000000038
 21
2.143929741285948
 72
     1
 10
1.055690000000038
 20
2.143929741285948
 11
1.010220000000038
 21
2.292319741285947
 72
     1
 10
1.010220000000038
 20
2.292319741285947
 11
0.9463100000000386
 21
2.433659741285947
 72
     1
 10
0.9463100000000386
 20
2.433659741285947
 11
0.8665600000000388
 21
2.559249741285947
 72
     1
 10
0.8665600000000388
 20
2.559249741285947
 11
0.7715100000000384
 21
2.673609741285948
 72
     1
 10
0.7715100000000384
 20
2.673609741285948
 11
0.6659800000000389
 21
2.769099741285947
 72
     1
 10
0.6659800000000389
 20
2.769099741285947
 11
0.5491800000000389
 21
2.850269741285947
 72
     1
 10
0.5491800000000389
 20
2.850269741285947
 11
0.4277600000000384
 21
2.911349741285947
 72
     1
 10
0.4277600000000384
 20
2.911349741285947
 11
0.2995500000000386
 21
2.956269741285947
 72
     1
 10
0.2995500000000386
 20
2.956269741285947
 11
0.1724900000000389
 21
2.981389741285948
 72
     1
 10
0.1724900000000389
 20
2.981389741285948
 11
0.0433100000000386
 21
2.989909741285948
 72
     1
 10
0.0433100000000386
 20
2.989909741285948
 11
-0.079459999999961
 21
2.980529741285947
 72
     1
 10
-0.079459999999961
 20
2.980529741285947
 11
-0.1999099999999614
 21
2.955289741285947
 72
     1
 10
-0.1999099999999614
 20
2.955289741285947
 11
-0.3095999999999615
 21
2.915359741285947
 72
     1
 10
-0.3095999999999615
 20
2.915359741285947
 11
-0.4131699999999614
 21
2.861489741285947
 72
     1
 10
-0.4131699999999614
 20
2.861489741285947
 11
-0.5027999999999615
 21
2.797139741285947
 72
     1
 10
-0.5027999999999615
 20
2.797139741285947
 11
-0.5831999999999616
 21
2.721519741285947
 72
     1
 10
-0.5831999999999616
 20
2.721519741285947
 11
-0.6479799999999614
 21
2.640139741285947
 72
     1
 10
-0.6479799999999614
 20
2.640139741285947
 11
-0.7014799999999615
 21
2.550949741285947
 72
     1
 10
-0.7014799999999615
 20
2.550949741285947
 11
-0.7390699999999613
 21
2.460719741285947
 72
     1
 10
-0.7390699999999613
 20
2.460719741285947
 11
-0.7644099999999612
 21
2.366379741285948
 72
     1
 10
-0.7644099999999612
 20
2.366379741285948
 11
-0.7749399999999614
 21
2.275559741285947
 72
     1
 10
-0.7749399999999614
 20
2.275559741285947
 11
-0.7732599999999615
 21
2.184199741285947
 72
     1
 10
-0.7732599999999615
 20
2.184199741285947
 11
-0.7591999999999613
 21
2.100159741285947
 72
     1
 10
-0.7591999999999613
 20
2.100159741285947
 11
-0.7338699999999614
 21
2.018819741285947
 72
     1
 10
-0.7338699999999614
 20
2.018819741285947
 11
-0.6994599999999612
 21
1.947809741285947
 72
     1
 10
-0.6994599999999612
 20
1.947809741285947
 11
-0.6556299999999613
 21
1.882109741285947
 72
     1
 10
-0.6556299999999613
 20
1.882109741285947
 11
-0.6065899999999616
 21
1.828349741285947
 72
     1
 10
-0.6065899999999616
 20
1.828349741285947
 11
-0.5504899999999613
 21
1.781909741285947
 72
     1
 10
-0.5504899999999613
 20
1.781909741285947
 11
-0.4931399999999618
 21
1.747779741285947
 72
     1
 10
-0.4931399999999618
 20
1.747779741285947
 11
-0.4315599999999611
 21
1.722059741285947
 72
     1
 10
-0.4315599999999611
 20
1.722059741285947
 11
-0.3725899999999616
 21
1.707849741285947
 72
     1
 10
-0.3725899999999616
 20
1.707849741285947
 11
-0.3120999999999614
 21
1.702209741285948
 72
     1
 10
-0.3120999999999614
 20
1.702209741285948
 11
-0.2574099999999611
 21
1.706169741285947
 72
     1
 10
-0.2574099999999611
 20
1.706169741285947
 11
-0.2039199999999615
 21
1.718099741285947
 72
     1
 10
-0.2039199999999615
 20
1.718099741285947
 11
-0.1585099999999611
 21
1.736819741285947
 72
     1
 10
-0.1585099999999611
 20
1.736819741285947
 11
-0.1165199999999613
 21
1.762319741285947
 72
     1
 10
-0.1165199999999613
 20
1.762319741285947
 11
-0.0837999999999615
 21
1.791129741285947
 72
     1
 10
-0.0837999999999615
 20
1.791129741285947
 11
-0.0562399999999617
 21
1.824919741285947
 72
     1
 10
-0.0562399999999617
 20
1.824919741285947
 11
-0.0380099999999613
 21
1.858779741285948
 72
     1
 10
-0.0380099999999613
 20
1.858779741285948
 11
-0.025909999999961
 21
1.895349741285947
 72
     1
 10
-0.025909999999961
 20
1.895349741285947
 11
-0.0220099999999612
 21
1.928879741285948
 72
     1
 10
-0.0220099999999612
 20
1.928879741285948
 11
-0.0245599999999611
 21
1.962519741285947
 72
     1
 10
-0.0245599999999611
 20
1.962519741285947
 11
-0.0333399999999613
 21
1.990949741285947
 72
     1
 10
-0.0333399999999613
 20
1.990949741285947
 11
-0.0477699999999612
 21
2.016879741285948
 72
     1
 10
-0.0477699999999612
 20
2.016879741285948
 11
-0.0661699999999614
 21
2.036289741285948
 72
     1
 10
-0.0661699999999614
 20
2.036289741285948
 11
-0.0884599999999614
 21
2.051059741285947
 72
     1
 10
-0.0884599999999614
 20
2.051059741285947
 11
-0.1123399999999615
 21
2.058809741285947
 72
     1
 10
-0.1123399999999615
 20
2.058809741285947
 11
-0.1373499999999614
 21
2.060489741285947
 72
     1
 10
-0.1373499999999614
 20
2.060489741285947
 11
-0.1624099999999613
 21
2.062339741285947
 72
     1
 10
-0.1624099999999613
 20
2.062339741285947
 11
-0.1862799999999614
 21
2.070099741285948
 72
     1
 10
-0.1862799999999614
 20
2.070099741285948
 11
-0.2085899999999614
 21
2.084789741285947
 72
     1
 10
-0.2085899999999614
 20
2.084789741285947
 11
-0.2269199999999616
 21
2.104279741285948
 72
     1
 10
-0.2269199999999616
 20
2.104279741285948
 11
-0.241409999999961
 21
2.130209741285947
 72
     1
 10
-0.241409999999961
 20
2.130209741285947
 11
-0.2501999999999613
 21
2.158639741285948
 72
     1
 10
-0.2501999999999613
 20
2.158639741285948
 11
-0.2527399999999615
 21
2.192279741285948
 72
     1
 10
-0.2527399999999615
 20
2.192279741285948
 11
-0.2488399999999613
 21
2.225809741285948
 72
     1
 10
-0.2488399999999613
 20
2.225809741285948
 11
-0.2367999999999615
 21
2.262269741285947
 72
     1
 10
-0.2367999999999615
 20
2.262269741285947
 11
-0.2184499999999612
 21
2.296109741285947
 72
     1
 10
-0.2184499999999612
 20
2.296109741285947
 11
-0.1909499999999613
 21
2.329919741285947
 72
     1
 10
-0.1909499999999613
 20
2.329919741285947
 11
-0.1582399999999615
 21
2.358839741285947
 72
     1
 10
-0.1582399999999615
 20
2.358839741285947
 11
-0.1162999999999612
 21
2.384339741285947
 72
     1
 10
-0.1162999999999612
 20
2.384339741285947
 11
-0.0707799999999614
 21
2.402949741285947
 72
     1
 10
-0.0707799999999614
 20
2.402949741285947
 11
-0.0173399999999617
 21
2.414989741285947
 72
     1
 10
-0.0173399999999617
 20
2.414989741285947
 11
0.0374000000000385
 21
2.418839741285948
 72
     1
 10
0.0374000000000385
 20
2.418839741285948
 11
0.0977900000000389
 21
2.413309741285948
 72
     1
 10
0.0977900000000389
 20
2.413309741285948
 11
0.1568700000000383
 21
2.398989741285948
 72
     1
 10
0.1568700000000383
 20
2.398989741285948
 11
0.2184000000000386
 21
2.373319741285947
 72
     1
 10
0.2184000000000386
 20
2.373319741285947
 11
0.2757400000000389
 21
2.339199741285947
 72
     1
 10
0.2757400000000389
 20
2.339199741285947
 11
0.3317900000000389
 21
2.292809741285947
 72
     1
 10
0.3317900000000389
 20
2.292809741285947
 11
0.3809400000000389
 21
2.239039741285948
 72
     1
 10
0.3809400000000389
 20
2.239039741285948
 11
0.4247200000000384
 21
2.173339741285947
 72
     1
 10
0.4247200000000384
 20
2.173339741285947
 11
0.4591700000000385
 21
2.102209741285947
 72
     1
 10
0.4591700000000385
 20
2.102209741285947
 11
0.4844000000000386
 21
2.020949741285948
 72
     1
 10
0.4844000000000386
 20
2.020949741285948
 11
0.4985500000000385
 21
1.936959741285948
 72
     1
 10
0.4985500000000385
 20
1.936959741285948
 11
0.500190000000039
 21
1.845539741285947
 72
     1
 10
0.500190000000039
 20
1.845539741285947
 11
0.4896600000000384
 21
1.754719741285947
 72
     1
 10
0.4896600000000384
 20
1.754719741285947
 11
0.464330000000039
 21
1.660379741285948
 72
     1
 10
0.464330000000039
 20
1.660379741285948
 11
0.4267900000000387
 21
1.570159741285947
 72
     1
 10
0.4267900000000387
 20
1.570159741285947
 11
0.373230000000039
 21
1.480959741285947
 72
     1
 10
0.373230000000039
 20
1.480959741285947
 11
0.3085100000000387
 21
1.399529741285948
 72
     1
 10
0.3085100000000387
 20
1.399529741285948
 11
0.2279900000000388
 21
1.323999741285947
 72
     1
 10
0.2279900000000388
 20
1.323999741285947
 11
0.1384200000000382
 21
1.259539741285947
 72
     1
 10
0.1384200000000382
 20
1.259539741285947
 11
0.0348600000000383
 21
1.205729741285948
 72
     1
 10
0.0348600000000383
 20
1.205729741285948
 11
-0.0747999999999616
 21
1.165749741285947
 72
     1
 10
-0.0747999999999616
 20
1.165749741285947
 11
-0.1952999999999614
 21
1.140569741285947
 72
     1
 10
-0.1952999999999614
 20
1.140569741285947
 11
-0.318009999999961
 21
1.131129741285948
 72
     1
 10
-0.318009999999961
 20
1.131129741285948
 11
-0.4472399999999617
 21
1.139709741285947
 72
     1
 10
-0.4472399999999617
 20
1.139709741285947
 11
-0.5742599999999612
 21
1.164769741285947
 72
     1
 10
-0.5742599999999612
 20
1.164769741285947
 11
-0.7025099999999611
 21
1.209739741285948
 72
     1
 10
-0.7025099999999611
 20
1.209739741285948
 11
-0.8238699999999612
 21
1.270729741285947
 72
     1
 10
-0.8238699999999612
 20
1.270729741285947
 11
-0.9407299999999612
 21
1.351999741285947
 72
     1
 10
-0.9407299999999612
 20
1.351999741285947
 11
-1.046199999999961
 21
1.447489741285948
 72
     1
 10
-1.046199999999961
 20
1.447489741285948
 11
-1.141309999999961
 21
1.561909741285947
 72
     1
 10
-1.141309999999961
 20
1.561909741285947
 11
-1.221009999999961
 21
1.687389741285947
 72
     1
 10
-1.221009999999961
 20
1.687389741285947
 11
-1.284979999999961
 21
1.828779741285948
 72
     1
 10
-1.284979999999961
 20
1.828779741285948
 11
-1.330379999999961
 21
1.977099741285948
 72
     1
 10
-1.330379999999961
 20
1.977099741285948
 11
-1.355559999999961
 21
2.136719741285947
 72
     1
 10
-1.355559999999961
 20
2.136719741285947
 11
-1.360229999999961
 21
2.298239741285947
 72
     1
 10
-1.360229999999961
 20
2.298239741285947
 11
-1.341559999999961
 21
2.465229741285948
 72
     1
 10
-1.341559999999961
 20
2.465229741285948
 11
-1.301839999999961
 21
2.628529741285948
 72
     1
 10
-1.301839999999961
 20
2.628529741285948
 11
-1.237339999999961
 21
2.790639741285947
 72
     1
 10
-1.237339999999961
 20
2.790639741285947
 11
-1.152759999999961
 21
2.943199741285948
 72
     1
 10
-1.152759999999961
 20
2.943199741285948
 11
-1.043919999999961
 21
3.087729741285948
 72
     1
 10
-1.043919999999961
 20
3.087729741285948
 11
-0.9175599999999612
 21
3.217239741285948
 72
     1
 10
-0.9175599999999612
 20
3.217239741285948
 11
-0.7693899999999614
 21
3.331919741285947
 72
     1
 10
-0.7693899999999614
 20
3.331919741285947
 11
-0.6078399999999613
 21
3.426859741285947
 72
     1
 10
-0.6078399999999613
 20
3.426859741285947
 11
-0.4287399999999617
 21
3.500979741285948
 72
     1
 10
-0.4287399999999617
 20
3.500979741285948
 11
-0.2416199999999615
 21
3.551809741285947
 72
     1
 10
-0.2416199999999615
 20
3.551809741285947
 11
-0.0429499999999612
 21
3.577039741285948
 72
     1
 10
-0.0429499999999612
 20
3.577039741285948
 11
0.1574100000000387
 21
3.576879741285948
 72
     1
 10
0.1574100000000387
 20
3.576879741285948
 11
0.3621100000000386
 21
3.548129741285948
 72
     1
 10
0.3621100000000386
 20
3.548129741285948
 11
0.5616500000000389
 21
3.493769741285947
 72
     1
 10
0.5616500000000389
 20
3.493769741285947
 11
0.7576200000000384
 21
3.409669741285947
 72
     1
 10
0.7576200000000384
 20
3.409669741285947
 11
0.9414800000000385
 21
3.301659741285948
 72
     1
 10
0.9414800000000385
 20
3.301659741285948
 11
1.113580000000038
 21
3.165039741285948
 72
     1
 10
1.113580000000038
 20
3.165039741285948
 11
1.267220000000038
 21
3.007919741285947
 72
     1
 10
1.267220000000038
 20
3.007919741285947
 11
1.401380000000038
 21
2.825849741285948
 72
     1
 10
1.401380000000038
 20
2.825849741285948
 11
1.511690000000038
 21
2.628309741285947
 72
     1
 10
1.511690000000038
 20
2.628309741285947
 11
1.595880000000039
 21
2.411459741285947
 97
        0
 75
     1
 76
     1
 52
0.0
 41
1.0
 77
     0
 78
     1
 53
45.0
 43
0.0
 44
0.0
 45
-0.0883883476483184
 46
0.0883883476483185
 79
     0
 47
0.0087661099642666
 98
        1
 10
2.562604581679352
 20
4.681002120190214
1001
GradientColor1ACI
1070
     5
1001
GradientColor2ACI
1070
     2
1001
ACAD
1010
0.0
1020
0.0
1030
0.0
  0
LINE
  5
257
330
6F
100
AcDbEntity
  8
0
  6
Continuous
100
AcDbLine
 10
0.0000000000000004
 20
-2.648900249987406
 30
0.0
 11
0.0000000000000004
 21
3.125136673012482
 31
0.0
  0
LINE
  5
26C
330
6F
100
AcDbEntity
  8
0
  6
Continuous
100
AcDbLine
 10
-2.8091257617352
 20
-1.4045628808676
 30
0.0
 11
0.0
 21
0.0
 31
0.0
  0
LINE
  5
27B
330
6F
100
AcDbEntity
  8
0
  6
Continuous
100
AcDbLine
 10
0.0000000000000009
 20
0.0000000000000004
 30
0.0
 11
2.989776667432241
 21
-1.49488833371612
 31
0.0
  0
LINE
  5
3B7
330
6F
100
AcDbEntity
  8
0
  6
Continuous
100
AcDbLine
 10
0.8254545199019037
 20
3.543787924385786
 30
0.0
 11
0.6111812871635198
 21
3.635742707634744
 31
0.0
  0
LINE
  5
3B8
330
6F
100
AcDbEntity
  8
0
  6
Continuous
100
AcDbLine
 10
0.6111812871635198
 20
3.635742707634744
 30
0.0
 11
0.50546185150457
 21
3.664543492051004
 31
0.0
  0
LINE
  5
3B9
330
6F
100
AcDbEntity
  8
0
  6
Continuous
100
AcDbLine
 10
0.50546185150457
 20
3.664543492051004
 30
0.0
 11
0.4624875975824875
 21
4.106190615438862
 31
0.0
  0
ARC
  5
3BA
330
6F
100
AcDbEntity
  8
0
  6
Continuous
100
AcDbCircle
 10
0.1638978162587084
 20
4.077136485112559
 30
0.0
 40
0.2999999999999999
100
AcDbArc
 50
5.557641204069805
 51
90.04575425620588
  0
LINE
  5
3BB
330
6F
100
AcDbEntity
  8
0
  6
Continuous
100
AcDbLine
 10
0.1636582475588925
 20
4.377136389457274
 30
0.0
 11
-0.0000000000000326
 21
4.377005698103664
 31
0.0
  0
LINE
  5
3BC
330
6F
100
AcDbEntity
  8
0
  6
Continuous
100
AcDbLine
 10
-0.0000000000000326
 20
4.377005698103664
 30
0.0
 11
-0.1636582475588919
 21
4.377136389457274
 31
0.0
  0
ARC
  5
3BD
330
6F
100
AcDbEntity
  8
0
  6
Continuous
100
AcDbCircle
 10
-0.1638978162587077
 20
4.077136485112558
 30
0.0
 40
0.3000000000000012
100
AcDbArc
 50
89.95424574379413
 51
174.44235879593
  0
LINE
  5
3BE
330
6F
100
AcDbEntity
  8
0
  6
Continuous
100
AcDbLine
 10
-0.4624875975824875
 20
4.106190615438862
 30
0.0
 11
-0.508805306386986
 21
3.630182750531825
 31
0.0
  0
LINE
  5
3BF
330
6F
100
AcDbEntity
  8
0
  6
Continuous
100
AcDbLine
 10
-0.508805306386986
 20
3.630182750531825
 30
0.0
 11
-0.6748422694359402
 21
3.561468849352658
 31
0.0
  0
LINE
  5
3C0
330
6F
100
AcDbEntity
  8
0
  6
Continuous
100
AcDbLine
 10
-0.6748422694359402
 20
3.561468849352658
 30
0.0
 11
-0.8536359869499573
 21
3.456395029849217
 31
0.0
  0
LINE
  5
3C1
330
6F
100
AcDbEntity
  8
0
  6
Continuous
100
AcDbLine
 10
-0.8536359869499573
 20
3.456395029849217
 30
0.0
 11
-1.017629593390883
 21
3.329467940784999
 31
0.0
  0
LINE
  5
3C2
330
6F
100
AcDbEntity
  8
0
  6
Continuous
100
AcDbLine
 10
-1.017629593390883
 20
3.329467940784999
 30
0.0
 11
-1.412831420295736
 21
2.924414216485795
 31
0.0
  0
LINE
  5
3C3
330
6F
100
AcDbEntity
  8
0
  6
Continuous
100
AcDbLine
 10
-1.412831420295736
 20
2.924414216485795
 30
0.0
 11
1.525325143903615
 21
3.029697592605494
 31
0.0
  0
LINE
  5
3C4
330
6F
100
AcDbEntity
  8
0
  6
Continuous
100
AcDbLine
 10
1.525325143903615
 20
3.029697592605494
 30
0.0
 11
1.026515310414395
 21
3.425673185001178
 31
0.0
  0
LINE
  5
3C5
330
6F
100
AcDbEntity
  8
0
  6
Continuous
100
AcDbLine
 10
1.026515310414395
 20
3.425673185001178
 30
0.0
 11
0.8254545199019037
 21
3.543787924385786
 31
0.0
  0
LINE
  5
3C6
330
6F
100
AcDbEntity
  8
0
  6
Continuous
100
AcDbLine
 10
-3.381139742618085
 20
-0.2084237283404029
 30
0.0
 11
-3.474272814034427
 21
-0.8388215463227266
 31
0.0
  0
LINE
  5
3C7
330
6F
100
AcDbEntity
  8
0
  6
Continuous
100
AcDbLine
 10
-3.474272814034427
 20
-0.8388215463227266
 30
0.0
 11
-3.476111682756485
 21
-1.071935598758779
 31
0.0
  0
LINE
  5
3C8
330
6F
100
AcDbEntity
  8
0
  6
Continuous
100
AcDbLine
 10
-3.476111682756485
 20
-1.071935598758779
 30
0.0
 11
-3.448584121999021
 21
-1.303485415487724
 31
0.0
  0
LINE
  5
3C9
330
6F
100
AcDbEntity
  8
0
  6
Continuous
100
AcDbLine
 10
-3.448584121999021
 20
-1.303485415487724
 30
0.0
 11
-3.424873030620325
 21
-1.393495572148621
 31
0.0
  0
LINE
  5
3CA
330
6F
100
AcDbEntity
  8
0
  6
Continuous
100
AcDbLine
 10
-3.424873030620325
 20
-1.393495572148621
 30
0.0
 11
-3.787309184542555
 21
-1.652569299277761
 31
0.0
  0
ARC
  5
3CB
330
6F
100
AcDbEntity
  8
0
  6
Continuous
100
AcDbCircle
 10
-3.612852678933224
 20
-1.896628570051444
 30
0.0
 40
0.3000000000000003
100
AcDbArc
 50
125.5576412040696
 51
210.0457542562058
  0
LINE
  5
3CC
330
6F
100
AcDbEntity
  8
0
  6
Continuous
100
AcDbLine
 10
-3.872540432878741
 20
-2.046835994803793
 30
0.0
 11
-3.790598127067077
 21
-2.188502849051742
 31
0.0
  0
LINE
  5
3CD
330
6F
100
AcDbEntity
  8
0
  6
Continuous
100
AcDbLine
 10
-3.790598127067077
 20
-2.188502849051742
 30
0.0
 11
-3.708882185319839
 21
-2.330300394653497
 31
0.0
  0
ARC
  5
3CE
330
6F
100
AcDbEntity
  8
0
  6
Continuous
100
AcDbCircle
 10
-3.448954862674517
 20
-2.180507915061114
 30
0.0
 40
0.2999999999999996
100
AcDbArc
 50
209.9542457437979
 51
294.4423587959305
  0
LINE
  5
3CF
330
6F
100
AcDbEntity
  8
0
  6
Continuous
100
AcDbLine
 10
-3.324821586960068
 20
-2.453621316161098
 30
0.0
 11
-2.898061993256296
 21
-2.259654026033059
 31
0.0
  0
LINE
  5
3D0
330
6F
100
AcDbEntity
  8
0
  6
Continuous
100
AcDbLine
 10
-2.898061993256296
 20
-2.259654026033059
 30
0.0
 11
-2.741317630907057
 21
-2.380158520715138
 31
0.0
  0
LINE
  5
3D1
330
6F
100
AcDbEntity
  8
0
  6
Continuous
100
AcDbLine
 10
-2.741317630907057
 20
-2.380158520715138
 30
0.0
 11
-2.560872546420851
 21
-2.482362257076962
 31
0.0
  0
LINE
  5
3D2
330
6F
100
AcDbEntity
  8
0
  6
Continuous
100
AcDbLine
 10
-2.560872546420851
 20
-2.482362257076962
 30
0.0
 11
-2.368971332159564
 21
-2.561017915851484
 31
0.0
  0
LINE
  5
3D3
330
6F
100
AcDbEntity
  8
0
  6
Continuous
100
AcDbLine
 10
-2.368971332159564
 20
-2.561017915851484
 30
0.0
 11
-1.820678377051039
 21
-2.700469123219207
 31
0.0
  0
LINE
  5
3D4
330
6F
100
AcDbEntity
  8
0
  6
Continuous
100
AcDbLine
 10
-1.820678377051039
 20
-2.700469123219207
 30
0.0
 11
-3.381139742618085
 21
-0.2084237283404029
 31
0.0
  0
LINE
  5
3D5
330
6F
100
AcDbEntity
  8
0
  6
Continuous
100
AcDbLine
 10
3.787309184542556
 20
-1.652569299277763
 30
0.0
 11
3.412911482551643
 21
-1.384945313553137
 31
0.0
  0
LINE
  5
3D6
330
6F
100
AcDbEntity
  8
0
  6
Continuous
100
AcDbLine
 10
3.412911482551643
 20
-1.384945313553137
 30
0.0
 11
3.437593043489795
 21
-1.198943134514521
 31
0.0
  0
LINE
  5
3D7
330
6F
100
AcDbEntity
  8
0
  6
Continuous
100
AcDbLine
 10
3.437593043489795
 20
-1.198943134514521
 30
0.0
 11
3.431477849988417
 21
-0.4690928426116973
 31
0.0
  0
LINE
  5
3D8
330
6F
100
AcDbEntity
  8
0
  6
Continuous
100
AcDbLine
 10
3.431477849988417
 20
-0.4690928426116973
 30
0.0
 11
1.981431814836781
 21
-2.880952473739102
 31
0.0
  0
LINE
  5
3D9
330
6F
100
AcDbEntity
  8
0
  6
Continuous
100
AcDbLine
 10
1.981431814836781
 20
-2.880952473739102
 30
0.0
 11
2.672020465329297
 21
-2.48931611333742
 31
0.0
  0
LINE
  5
3DA
330
6F
100
AcDbEntity
  8
0
  6
Continuous
100
AcDbLine
 10
2.672020465329297
 20
-2.48931611333742
 30
0.0
 11
2.858794425583021
 21
-2.349778031228426
 31
0.0
  0
LINE
  5
3DB
330
6F
100
AcDbEntity
  8
0
  6
Continuous
100
AcDbLine
 10
2.858794425583021
 20
-2.349778031228426
 30
0.0
 11
2.933440521087671
 21
-2.275733985976348
 31
0.0
  0
LINE
  5
3DC
330
6F
100
AcDbEntity
  8
0
  6
Continuous
100
AcDbLine
 10
2.933440521087671
 20
-2.275733985976348
 30
0.0
 11
3.324821586960069
 21
-2.453621316161099
 31
0.0
  0
ARC
  5
3DD
330
6F
100
AcDbEntity
  8
0
  6
Continuous
100
AcDbCircle
 10
3.448954862674518
 20
-2.180507915061116
 30
0.0
 40
0.2999999999999998
100
AcDbArc
 50
245.5576412040694
 51
330.0457542562058
  0
LINE
  5
3DE
330
6F
100
AcDbEntity
  8
0
  6
Continuous
100
AcDbLine
 10
3.70888218531985
 20
-2.330300394653481
 30
0.0
 11
3.790598127067056
 21
-2.188502849051778
 31
0.0
  0
LINE
  5
3DF
330
6F
100
AcDbEntity
  8
0
  6
Continuous
100
AcDbLine
 10
3.790598127067056
 20
-2.188502849051778
 30
0.0
 11
3.87254043287875
 21
-2.046835994803779
 31
0.0
  0
ARC
  5
3E0
330
6F
100
AcDbEntity
  8
0
  6
Continuous
100
AcDbCircle
 10
3.612852678933226
 20
-1.896628570051444
 30
0.0
 40
0.2999999999999991
100
AcDbArc
 50
329.9542457437973
 51
54.44235879593045
  0
ENDSEC
  0
SECTION
  2
OBJECTS
  0
DICTIONARY
  5
C
330
0
100
AcDbDictionary
281
     1
  3
ACAD_CIP_PREVIOUS_PRODUCT_INFO
350
226
  3
ACAD_COLOR
350
62
  3
ACAD_DETAILVIEWSTYLE
350
69
  3
ACAD_GROUP
350
D
  3
ACAD_LAYOUT
350
61
  3
ACAD_MATERIAL
350
10
  3
ACAD_MLEADERSTYLE
350
65
  3
ACAD_MLINESTYLE
350
5E
  3
ACAD_PLOTSETTINGS
350
60
  3
ACAD_PLOTSTYLENAME
350
E
  3
ACAD_SCALELIST
350
42
  3
ACAD_SECTIONVIEWSTYLE
350
67
  3
ACAD_TABLESTYLE
350
63
  3
ACAD_VISUALSTYLE
350
29
  3
ACDB_RECOMPOSE_DATA
350
3EE
  3
AcDbVariableDictionary
350
24E
  0
DICTIONARY
  5
28F
330
2
100
AcDbDictionary
280
     1
281
     1
  3
ACAD_LAYERSTATES
360
290
  0
DICTIONARY
  5
28A
330
54
100
AcDbDictionary
280
     1
281
     1
  3
ADSK_XREC_LAYER_RECONCILED
360
28B
  0
DICTIONARY
  5
251
330
6F
100
AcDbDictionary
280
     1
281
     1
  3
ACAD_SORTENTS
360
252
  0
XRECORD
  5
226
102
{ACAD_REACTORS
330
C
102
}
330
C
100
AcDbXrecord
280
     1
300
ACDMAC
300
2014
300
ACDMAC_F_S
  0
DICTIONARY
  5
62
102
{ACAD_REACTORS
330
C
102
}
330
C
100
AcDbDictionary
281
     1
  0
DICTIONARY
  5
69
102
{ACAD_REACTORS
330
C
102
}
330
C
100
AcDbDictionary
281
     1
  3
Imperial24
350
6A
  0
DICTIONARY
  5
D
102
{ACAD_REACTORS
330
C
102
}
330
C
100
AcDbDictionary
281
     1
  0
DICTIONARY
  5
61
102
{ACAD_REACTORS
330
C
102
}
330
C
100
AcDbDictionary
281
     1
  3
Layout1
350
6E
  3
Model
350
72
  0
DICTIONARY
  5
10
102
{ACAD_REACTORS
330
C
102
}
330
C
100
AcDbDictionary
281
     1
  3
ByBlock
350
19
  3
ByLayer
350
11
  3
Global
350
21
  0
DICTIONARY
  5
65
102
{ACAD_REACTORS
330
C
102
}
330
C
100
AcDbDictionary
281
     1
  3
Standard
350
66
  0
DICTIONARY
  5
5E
102
{ACAD_REACTORS
330
C
102
}
330
C
100
AcDbDictionary
281
     1
  3
Standard
350
5F
  0
DICTIONARY
  5
60
102
{ACAD_REACTORS
330
C
102
}
330
C
100
AcDbDictionary
281
     1
  0
ACDBDICTIONARYWDFLT
  5
E
102
{ACAD_REACTORS
330
C
102
}
330
C
100
AcDbDictionary
281
     1
  3
Normal
350
F
100
AcDbDictionaryWithDefault
340
F
  0
DICTIONARY
  5
42
102
{ACAD_REACTORS
330
C
102
}
330
C
100
AcDbDictionary
281
     1
  3
A0
350
43
  3
A1
350
44
  3
A2
350
45
  3
A3
350
46
  3
A4
350
47
  3
A5
350
48
  3
A6
350
49
  3
A7
350
4A
  3
A8
350
4B
  3
A9
350
4C
  3
B0
350
4D
  3
B1
350
4E
  3
B2
350
4F
  3
B3
350
50
  3
B4
350
51
  3
B5
350
52
  3
B6
350
53
  0
DICTIONARY
  5
67
102
{ACAD_REACTORS
330
C
102
}
330
C
100
AcDbDictionary
281
     1
  3
Imperial24
350
68
  0
DICTIONARY
  5
63
102
{ACAD_REACTORS
330
C
102
}
330
C
100
AcDbDictionary
281
     1
  3
Standard
350
64
  0
DICTIONARY
  5
29
102
{ACAD_REACTORS
330
C
102
}
330
C
100
AcDbDictionary
281
     1
  3
2dWireframe
350
2F
  3
Basic
350
2E
  3
Brighten
350
35
  3
ColorChange
350
39
  3
Conceptual
350
32
  3
Dim
350
34
  3
EdgeColorOff
350
41
  3
Facepattern
350
38
  3
Flat
350
2A
  3
FlatWithEdges
350
2B
  3
Gouraud
350
2C
  3
GouraudWithEdges
350
2D
  3
Hidden
350
31
  3
JitterOff
350
3F
  3
Linepattern
350
37
  3
OverhangOff
350
40
  3
Realistic
350
33
  3
Shaded
350
3E
  3
Shaded with edges
350
3D
  3
Shades of Gray
350
3A
  3
Sketchy
350
3B
  3
Thicken
350
36
  3
Wireframe
350
30
  3
X-Ray
350
3C
  0
XRECORD
  5
3EE
102
{ACAD_REACTORS
330
C
102
}
330
C
100
AcDbXrecord
280
     1
 90
        1
330
64
330
68
330
6A
  0
DICTIONARY
  5
24E
102
{ACAD_REACTORS
330
C
102
}
330
C
100
AcDbDictionary
281
     1
  3
CANNOSCALE
350
2DA
  3
CMLEADERSTYLE
350
2D6
  3
CTABLESTYLE
350
2D5
  3
CVIEWDETAILSTYLE
350
2D7
  3
CVIEWSECTIONSTYLE
350
2D8
  3
LAYEREVAL
350
2DC
  3
LAYERNOTIFY
350
2DD
  3
LIGHTINGUNITS
350
2DB
  3
MSLTSCALE
350
2D9
  0
DICTIONARY
  5
290
102
{ACAD_REACTORS
330
28F
102
}
330
28F
100
AcDbDictionary
281
     1
  0
XRECORD
  5
28B
102
{ACAD_REACTORS
330
28A
102
}
330
28A
100
AcDbXrecord
280
     1
290
     1
  0
SORTENTSTABLE
  5
252
102
{ACAD_REACTORS
330
251
102
}
330
251
100
AcDbSortentsTable
330
6F
331
3D9
  5
3D9
331
3C8
  5
3C7
331
3BF
  5
3BD
331
27B
  5
32F
331
3D8
  5
3D8
331
3C7
  5
3C6
331
3BE
  5
3BC
331
3D7
  5
3D7
331
3C6
  5
3C5
331
3BD
  5
3BB
331
3D6
  5
3D6
331
3C5
  5
3C3
331
3BC
  5
3BA
331
3D5
  5
3D5
331
3C4
  5
3C2
331
3BB
  5
3B9
331
3D4
  5
3D3
331
3C3
  5
3C1
331
3BA
  5
3B8
331
3D3
  5
3D2
331
3C2
  5
3C0
331
3B9
  5
3B7
331
3D2
  5
3D1
331
3C1
  5
3BF
331
3B8
  5
38C
331
3D1
  5
3D0
331
3C0
  5
3BE
331
3B7
  5
38A
331
3D0
  5
3CF
331
3E0
  5
3E0
331
3CF
  5
3CE
331
257
  5
32D
331
3DF
  5
3DF
331
3CE
  5
3CD
331
3DE
  5
3DE
331
3CD
  5
3CC
331
255
  5
76
331
3DD
  5
3DD
331
3CC
  5
3CB
331
3DC
  5
3DC
331
3CB
  5
3CA
331
3DB
  5
3DB
331
3CA
  5
3C9
331
26C
  5
32E
331
3DA
  5
3DA
331
3C9
  5
3C8
  0
ACDBDETAILVIEWSTYLE
  5
6A
102
{ACAD_XDICTIONARY
360
3EC
102
}
102
{ACAD_REACTORS
330
69
102
}
330
69
100
AcDbModelDocViewStyle
 70
     0
  3
Imperial24
290
     0
100
AcDbDetailViewStyle
 70
     0
 71
     0
 90
        3
 71
     1
340
55
 62
   256
 40
0.24
340
0
 62
   256
 40
0.24
300

 40
0.36
280
     3
 71
     2
340
5C
 90
       25
 62
   256
 71
     3
340
55
 62
   256
 40
0.24
 90
        1
 40
0.75
 90
        1
300
%<\AcVar ViewType \f "%tc1">% %<\AcVar ViewDetailId>%\PSCALE %<\AcVar ViewScale \f "%sn">%
 71
     4
340
5C
 90
       25
 62
   256
340
5C
 90
       25
 62
   256
280
     0
  0
LAYOUT
  5
6E
102
{ACAD_REACTORS
330
61
102
}
330
61
100
AcDbPlotSettings
  1

  2
HP_Deskjet_460
  4

  6

 40
0.0
 41
0.0
 42
0.0
 43
0.0
 44
0.0
 45
0.0
 46
0.0
 47
0.0
 48
0.0
 49
0.0
140
0.0
141
0.0
142
1.0
143
1.0
 70
   688
 72
     0
 73
     0
 74
     5
  7

 75
    16
147
1.0
 76
     0
 77
     2
 78
   300
148
0.0
149
0.0
100
AcDbLayout
  1
Layout1
 70
     1
 71
     1
 10
0.0
 20
0.0
 11
12.0
 21
9.0
 12
0.0
 22
0.0
 32
0.0
 14
1.000000000000000E+20
 24
1.000000000000000E+20
 34
1.000000000000000E+20
 15
-1.000000000000000E+20
 25
-1.000000000000000E+20
 35
-1.000000000000000E+20
146
0.0
 13
0.0
 23
0.0
 33
0.0
 16
1.0
 26
0.0
 36
0.0
 17
0.0
 27
1.0
 37
0.0
 76
     0
330
6B
  0
LAYOUT
  5
72
102
{ACAD_REACTORS
330
61
102
}
330
61
100
AcDbPlotSettings
  1

  2
HP_Deskjet_460
  4

  6

 40
0.0
 41
0.0
 42
0.0
 43
0.0
 44
0.0
 45
0.0
 46
0.0
 47
0.0
 48
0.0
 49
0.0
140
0.0
141
0.0
142
1.0
143
1.0
 70
  1712
 72
     0
 73
     0
 74
     0
  7

 75
     0
147
1.0
 76
     0
 77
     2
 78
   300
148
0.0
149
0.0
100
AcDbLayout
  1
Model
 70
     1
 71
     0
 10
0.0
 20
0.0
 11
12.0
 21
9.0
 12
0.0
 22
0.0
 32
0.0
 14
0.0
 24
0.0
 34
0.0
 15
0.0
 25
0.0
 35
0.0
146
0.0
 13
0.0
 23
0.0
 33
0.0
 16
1.0
 26
0.0
 36
0.0
 17
0.0
 27
1.0
 37
0.0
 76
     0
330
6F
331
74
  0
MATERIAL
  5
19
102
{ACAD_XDICTIONARY
360
1A
102
}
102
{ACAD_REACTORS
330
10
102
}
330
10
100
AcDbMaterial
  1
ByBlock
 72
     0
 43
0.0208333333333333
 43
0.0
 43
0.0
 43
0.0
 43
0.0
 43
0.0208333333333333
 43
0.0
 43
0.0
 43
0.0
 43
0.0
 43
1.0
 43
0.0
 43
0.0
 43
0.0
 43
0.0
 43
1.0
 77
     0
 47
0.0208333333333333
 47
0.0
 47
0.0
 47
0.0
 47
0.0
 47
0.0208333333333333
 47
0.0
 47
0.0
 47
0.0
 47
0.0
 47
1.0
 47
0.0
 47
0.0
 47
0.0
 47
0.0
 47
1.0
171
     0
 49
0.0208333333333333
 49
0.0
 49
0.0
 49
0.0
 49
0.0
 49
0.0208333333333333
 49
0.0
 49
0.0
 49
0.0
 49
0.0
 49
1.0
 49
0.0
 49
0.0
 49
0.0
 49
0.0
 49
1.0
175
     0
142
0.0208333333333333
142
0.0
142
0.0
142
0.0
142
0.0
142
0.0208333333333333
142
0.0
142
0.0
142
0.0
142
0.0
142
1.0
142
0.0
142
0.0
142
0.0
142
0.0
142
1.0
179
     0
144
0.0208333333333333
144
0.0
144
0.0
144
0.0
144
0.0
144
0.0208333333333333
144
0.0
144
0.0
144
0.0
144
0.0
144
1.0
144
0.0
144
0.0
144
0.0
144
0.0
144
1.0
147
0.0208333333333333
147
0.0
147
0.0
147
0.0
147
0.0
147
0.0208333333333333
147
0.0
147
0.0
147
0.0
147
0.0
147
1.0
147
0.0
147
0.0
147
0.0
147
0.0
147
1.0
  0
MATERIAL
  5
11
102
{ACAD_XDICTIONARY
360
12
102
}
102
{ACAD_REACTORS
330
10
102
}
330
10
100
AcDbMaterial
  1
ByLayer
 72
     0
 43
0.0208333333333333
 43
0.0
 43
0.0
 43
0.0
 43
0.0
 43
0.0208333333333333
 43
0.0
 43
0.0
 43
0.0
 43
0.0
 43
1.0
 43
0.0
 43
0.0
 43
0.0
 43
0.0
 43
1.0
 77
     0
 47
0.0208333333333333
 47
0.0
 47
0.0
 47
0.0
 47
0.0
 47
0.0208333333333333
 47
0.0
 47
0.0
 47
0.0
 47
0.0
 47
1.0
 47
0.0
 47
0.0
 47
0.0
 47
0.0
 47
1.0
171
     0
 49
0.0208333333333333
 49
0.0
 49
0.0
 49
0.0
 49
0.0
 49
0.0208333333333333
 49
0.0
 49
0.0
 49
0.0
 49
0.0
 49
1.0
 49
0.0
 49
0.0
 49
0.0
 49
0.0
 49
1.0
175
     0
142
0.0208333333333333
142
0.0
142
0.0
142
0.0
142
0.0
142
0.0208333333333333
142
0.0
142
0.0
142
0.0
142
0.0
142
1.0
142
0.0
142
0.0
142
0.0
142
0.0
142
1.0
179
     0
144
0.0208333333333333
144
0.0
144
0.0
144
0.0
144
0.0
144
0.0208333333333333
144
0.0
144
0.0
144
0.0
144
0.0
144
1.0
144
0.0
144
0.0
144
0.0
144
0.0
144
1.0
147
0.0208333333333333
147
0.0
147
0.0
147
0.0
147
0.0
147
0.0208333333333333
147
0.0
147
0.0
147
0.0
147
0.0
147
1.0
147
0.0
147
0.0
147
0.0
147
0.0
147
1.0
  0
MATERIAL
  5
21
102
{ACAD_XDICTIONARY
360
22
102
}
102
{ACAD_REACTORS
330
10
102
}
330
10
100
AcDbMaterial
  1
Global
 72
     0
 43
0.0208333333333333
 43
0.0
 43
0.0
 43
0.0
 43
0.0
 43
0.0208333333333333
 43
0.0
 43
0.0
 43
0.0
 43
0.0
 43
1.0
 43
0.0
 43
0.0
 43
0.0
 43
0.0
 43
1.0
 77
     0
 47
0.0208333333333333
 47
0.0
 47
0.0
 47
0.0
 47
0.0
 47
0.0208333333333333
 47
0.0
 47
0.0
 47
0.0
 47
0.0
 47
1.0
 47
0.0
 47
0.0
 47
0.0
 47
0.0
 47
1.0
171
     0
 49
0.0208333333333333
 49
0.0
 49
0.0
 49
0.0
 49
0.0
 49
0.0208333333333333
 49
0.0
 49
0.0
 49
0.0
 49
0.0
 49
1.0
 49
0.0
 49
0.0
 49
0.0
 49
0.0
 49
1.0
175
     0
142
0.0208333333333333
142
0.0
142
0.0
142
0.0
142
0.0
142
0.0208333333333333
142
0.0
142
0.0
142
0.0
142
0.0
142
1.0
142
0.0
142
0.0
142
0.0
142
0.0
142
1.0
179
     0
144
0.0208333333333333
144
0.0
144
0.0
144
0.0
144
0.0
144
0.0208333333333333
144
0.0
144
0.0
144
0.0
144
0.0
144
1.0
144
0.0
144
0.0
144
0.0
144
0.0
144
1.0
147
0.0208333333333333
147
0.0
147
0.0
147
0.0
147
0.0
147
0.0208333333333333
147
0.0
147
0.0
147
0.0
147
0.0
147
1.0
147
0.0
147
0.0
147
0.0
147
0.0
147
1.0
  0
MLEADERSTYLE
  5
66
102
{ACAD_REACTORS
330
65
102
}
330
65
100
AcDbMLeaderStyle
179
     2
170
     2
171
     1
172
     0
 90
        2
 40
0.0
 41
0.0
173
     1
 91
-1056964608
340
5A
 92
       -2
290
     1
 42
0.09
291
     1
 43
0.36
  3
Standard
 44
0.18
300

342
55
174
     1
178
     6
175
     1
176
     0
 93
-1056964608
 45
0.18
292
     0
297
     0
 46
0.18
 94
-1056964608
 47
1.0
 49
1.0
140
1.0
293
     1
141
0.0
294
     1
177
     0
142
1.0
295
     0
296
     0
143
0.125
271
     0
272
     9
273
     9
298
     0
  0
MLINESTYLE
  5
5F
102
{ACAD_REACTORS
330
5E
102
}
330
5E
100
AcDbMlineStyle
  2
STANDARD
 70
     0
  3

 62
   256
 51
90.0
 52
90.0
 71
     2
 49
0.5
 62
   256
  6
BYLAYER
 49
-0.5
 62
   256
  6
BYLAYER
  0
ACDBPLACEHOLDER
  5
F
102
{ACAD_REACTORS
330
E
102
}
330
E
  0
SCALE
  5
43
102
{ACAD_REACTORS
330
42
102
}
330
42
100
AcDbScale
 70
     0
300
1:1
140
1.0
141
1.0
290
     1
  0
SCALE
  5
44
102
{ACAD_REACTORS
330
42
102
}
330
42
100
AcDbScale
 70
     0
300
1/128" = 1'-0"
140
0.0078125
141
12.0
290
     0
  0
SCALE
  5
45
102
{ACAD_REACTORS
330
42
102
}
330
42
100
AcDbScale
 70
     0
300
1/64" = 1'-0"
140
0.015625
141
12.0
290
     0
  0
SCALE
  5
46
102
{ACAD_REACTORS
330
42
102
}
330
42
100
AcDbScale
 70
     0
300
1/32" = 1'-0"
140
0.03125
141
12.0
290
     0
  0
SCALE
  5
47
102
{ACAD_REACTORS
330
42
102
}
330
42
100
AcDbScale
 70
     0
300
1/16" = 1'-0"
140
0.0625
141
12.0
290
     0
  0
SCALE
  5
48
102
{ACAD_REACTORS
330
42
102
}
330
42
100
AcDbScale
 70
     0
300
3/32" = 1'-0"
140
0.09375
141
12.0
290
     0
  0
SCALE
  5
49
102
{ACAD_REACTORS
330
42
102
}
330
42
100
AcDbScale
 70
     0
300
1/8" = 1'-0"
140
0.125
141
12.0
290
     0
  0
SCALE
  5
4A
102
{ACAD_REACTORS
330
42
102
}
330
42
100
AcDbScale
 70
     0
300
3/16" = 1'-0"
140
0.1875
141
12.0
290
     0
  0
SCALE
  5
4B
102
{ACAD_REACTORS
330
42
102
}
330
42
100
AcDbScale
 70
     0
300
1/4" = 1'-0"
140
0.25
141
12.0
290
     0
  0
SCALE
  5
4C
102
{ACAD_REACTORS
330
42
102
}
330
42
100
AcDbScale
 70
     0
300
3/8" = 1'-0"
140
0.375
141
12.0
290
     0
  0
SCALE
  5
4D
102
{ACAD_REACTORS
330
42
102
}
330
42
100
AcDbScale
 70
     0
300
1/2" = 1'-0"
140
0.5
141
12.0
290
     0
  0
SCALE
  5
4E
102
{ACAD_REACTORS
330
42
102
}
330
42
100
AcDbScale
 70
     0
300
3/4" = 1'-0"
140
0.75
141
12.0
290
     0
  0
SCALE
  5
4F
102
{ACAD_REACTORS
330
42
102
}
330
42
100
AcDbScale
 70
     0
300
1" = 1'-0"
140
1.0
141
12.0
290
     0
  0
SCALE
  5
50
102
{ACAD_REACTORS
330
42
102
}
330
42
100
AcDbScale
 70
     0
300
1-1/2" = 1'-0"
140
1.5
141
12.0
290
     0
  0
SCALE
  5
51
102
{ACAD_REACTORS
330
42
102
}
330
42
100
AcDbScale
 70
     0
300
3" = 1'-0"
140
3.0
141
12.0
290
     0
  0
SCALE
  5
52
102
{ACAD_REACTORS
330
42
102
}
330
42
100
AcDbScale
 70
     0
300
6" = 1'-0"
140
6.0
141
12.0
290
     0
  0
SCALE
  5
53
102
{ACAD_REACTORS
330
42
102
}
330
42
100
AcDbScale
 70
     0
300
1'-0" = 1'-0"
140
12.0
141
12.0
290
     0
  0
ACDBSECTIONVIEWSTYLE
  5
68
102
{ACAD_XDICTIONARY
360
3EA
102
}
102
{ACAD_REACTORS
330
67
102
}
330
67
100
AcDbModelDocViewStyle
 70
     0
  3
Imperial24
290
     0
100
AcDbSectionViewStyle
 70
     0
 71
     0
 90
       78
 71
     1
340
55
 62
   256
 40
0.24
340
0
340
0
 62
   256
 40
0.24
300
I, O, Q, S, X, Z
 40
0.48
 90
        3
 40
0.18
 90
        1
 71
     2
340
5C
 90
       25
 62
   256
340
5C
 90
       50
 62
   256
 40
0.24
 40
0.0
 40
0.24
 71
     3
340
55
 62
   256
 40
0.24
 90
        1
 40
0.75
 90
        1
300
%<\AcVar ViewType \f "%tc1">% %<\AcVar ViewSectionStartId>%-%<\AcVar ViewSectionEndId>%\PSCALE %<\AcVar ViewScale \f "%sn">%
 71
     4
 62
   256
 62
   257
300
ANSI31
 40
1.0
 90
        0
290
     0
290
     0
 90
        6
 40
0.0
 40
1.570796326794896
 40
0.2617993877991494
 40
1.308996938995747
 40
-0.2617993877991494
 40
1.832595714594046
  0
TABLESTYLE
  5
64
102
{ACAD_XDICTIONARY
360
3E8
102
}
102
{ACAD_REACTORS
330
63
102
}
330
63
100
AcDbTableStyle
280
     0
  3
Standard
 70
     0
 71
     0
 40
0.06
 41
0.06
280
     0
281
     0
  7
Standard
140
0.18
170
     2
 62
     0
 63
     7
283
     0
 90
      512
 91
        0
  1

274
    -2
284
     1
 64
     0
275
    -2
285
     1
 65
     0
276
    -2
286
     1
 66
     0
277
    -2
287
     1
 67
     0
278
    -2
288
     1
 68
     0
279
    -2
289
     1
 69
     0
  7
Standard
140
0.25
170
     5
 62
     0
 63
     7
283
     0
 90
      512
 91
        0
  1

274
    -2
284
     1
 64
     0
275
    -2
285
     1
 65
     0
276
    -2
286
     1
 66
     0
277
    -2
287
     1
 67
     0
278
    -2
288
     1
 68
     0
279
    -2
289
     1
 69
     0
  7
Standard
140
0.18
170
     5
 62
     0
 63
     7
283
     0
 90
      512
 91
        0
  1

274
    -2
284
     1
 64
     0
275
    -2
285
     1
 65
     0
276
    -2
286
     1
 66
     0
277
    -2
287
     1
 67
     0
278
    -2
288
     1
 68
     0
279
    -2
289
     1
 69
     0
  0
VISUALSTYLE
  5
2F
102
{ACAD_REACTORS
330
29
102
}
330
29
100
AcDbVisualStyle
  2
2dWireframe
 70
     4
177
     3
291
     0
 70
    58
 90
        0
176
     1
 90
        2
176
     1
 90
        0
176
     1
 90
        0
176
     1
 40
0.6
176
     1
 40
30.0
176
     1
 62
     7
420
 16777215
176
     1
 90
        1
176
     1
 90
        4
176
     1
 62
     7
176
     1
 62
   257
176
     1
 90
        1
176
     1
 90
        1
176
     1
 40
1.0
176
     1
 90
        0
176
     1
 62
   257
176
     1
 40
1.0
176
     1
 90
        1
176
     1
 90
        6
176
     1
 90
        2
176
     1
 62
     7
176
     1
 90
        5
176
     1
 90
        0
176
     1
 90
        0
176
     1
290
     0
176
     1
 90
        1
176
     1
 40
0.0
176
     1
 90
        0
176
     1
290
     1
176
     1
290
     1
176
     1
290
     0
176
     1
290
     0
176
     1
290
     0
176
     1
290
     0
176
     1
290
     0
176
     1
290
     0
176
     1
290
     0
176
     1
 90
       50
176
     1
 40
0.0
176
     1
 40
1.0
176
     1
 90
        0
176
     1
 62
    18
420
        0
176
     1
 90
       50
176
     1
 90
        3
176
     1
 62
     5
420
      255
176
     1
290
     0
176
     1
 90
       50
176
     1
 90
       50
176
     1
 90
       50
176
     1
290
     0
176
     1
 90
       50
176
     1
 62
   256
176
     0
 40
1.0
176
     0
 90
        2
176
     1
  1
strokes_ogs.tif
176
     1
290
     0
176
     1
 40
1.0
176
     1
 40
1.0
176
     1
  0
VISUALSTYLE
  5
2E
102
{ACAD_REACTORS
330
29
102
}
330
29
100
AcDbVisualStyle
  2
Basic
 70
     7
177
     3
291
     1
 70
    58
 90
        1
176
     1
 90
        0
176
     1
 90
        1
176
     1
 90
        0
176
     1
 40
0.6
176
     1
 40
30.0
176
     1
 62
     7
420
 16777215
176
     1
 90
        0
176
     1
 90
        4
176
     1
 62
     7
176
     1
 62
   257
176
     1
 90
        1
176
     1
 90
        1
176
     1
 40
1.0
176
     1
 90
        8
176
     1
 62
     7
176
     1
 40
1.0
176
     1
 90
        1
176
     1
 90
        6
176
     1
 90
        2
176
     1
 62
     7
176
     1
 90
        5
176
     1
 90
        0
176
     1
 90
        0
176
     1
290
     0
176
     1
 90
        1
176
     1
 40
0.0
176
     1
 90
        0
176
     1
290
     0
176
     1
290
     1
176
     1
290
     1
176
     1
290
     0
176
     1
290
     0
176
     1
290
     0
176
     1
290
     0
176
     1
290
     0
176
     1
290
     0
176
     1
 90
       50
176
     1
 40
0.0
176
     1
 40
1.0
176
     1
 90
        0
176
     1
 62
    18
420
        0
176
     1
 90
       50
176
     1
 90
        3
176
     1
 62
     5
420
      255
176
     1
290
     0
176
     1
 90
       50
176
     1
 90
       50
176
     1
 90
       50
176
     1
290
     0
176
     1
 90
       50
176
     1
 62
   256
176
     0
 40
1.0
176
     0
 90
        2
176
     1
  1
strokes_ogs.tif
176
     1
290
     0
176
     1
 40
1.0
176
     1
 40
1.0
176
     1
  0
VISUALSTYLE
  5
35
102
{ACAD_REACTORS
330
29
102
}
330
29
100
AcDbVisualStyle
  2
Brighten
 70
    12
177
     3
291
     1
 70
    58
 90
        2
176
     1
 90
        2
176
     1
 90
        0
176
     1
 90
        0
176
     1
 40
0.6
176
     1
 40
30.0
176
     1
 62
     7
420
 16777215
176
     1
 90
        1
176
     1
 90
        4
176
     1
 62
     7
176
     1
 62
   257
176
     1
 90
        1
176
     1
 90
        1
176
     1
 40
1.0
176
     1
 90
        8
176
     1
 62
     7
176
     1
 40
1.0
176
     1
 90
        1
176
     1
 90
        6
176
     1
 90
        2
176
     1
 62
     7
176
     1
 90
        5
176
     1
 90
        0
176
     1
 90
        0
176
     1
290
     0
176
     1
 90
        1
176
     1
 40
50.0
176
     1
 90
        0
176
     1
290
     0
176
     1
290
     1
176
     1
290
     1
176
     1
290
     0
176
     1
290
     0
176
     1
290
     0
176
     1
290
     0
176
     1
290
     0
176
     1
290
     0
176
     1
 90
       50
176
     1
 40
0.0
176
     1
 40
1.0
176
     1
 90
        0
176
     1
 62
    18
420
        0
176
     1
 90
       50
176
     1
 90
        3
176
     1
 62
     5
420
      255
176
     1
290
     0
176
     1
 90
       50
176
     1
 90
       50
176
     1
 90
       50
176
     1
290
     0
176
     1
 90
       50
176
     1
 62
   256
176
     0
 40
1.0
176
     0
 90
        2
176
     1
  1
strokes_ogs.tif
176
     1
290
     0
176
     1
 40
1.0
176
     1
 40
1.0
176
     1
  0
VISUALSTYLE
  5
39
102
{ACAD_REACTORS
330
29
102
}
330
29
100
AcDbVisualStyle
  2
ColorChange
 70
    16
177
     3
291
     1
 70
    58
 90
        2
176
     1
 90
        2
176
     1
 90
        3
176
     1
 90
        0
176
     1
 40
0.6
176
     1
 40
30.0
176
     1
 62
     8
420
  8421504
176
     1
 90
        1
176
     1
 90
        4
176
     1
 62
     7
176
     1
 62
   257
176
     1
 90
        1
176
     1
 90
        1
176
     1
 40
1.0
176
     1
 90
        8
176
     1
 62
     8
420
  8421504
176
     1
 40
1.0
176
     1
 90
        1
176
     1
 90
        6
176
     1
 90
        2
176
     1
 62
     7
176
     1
 90
        5
176
     1
 90
        0
176
     1
 90
        0
176
     1
290
     0
176
     1
 90
        1
176
     1
 40
0.0
176
     1
 90
        0
176
     1
290
     0
176
     1
290
     1
176
     1
290
     1
176
     1
290
     0
176
     1
290
     0
176
     1
290
     0
176
     1
290
     0
176
     1
290
     0
176
     1
290
     0
176
     1
 90
       50
176
     1
 40
0.0
176
     1
 40
1.0
176
     1
 90
        0
176
     1
 62
    18
420
        0
176
     1
 90
       50
176
     1
 90
        3
176
     1
 62
     5
420
      255
176
     1
290
     0
176
     1
 90
       50
176
     1
 90
       50
176
     1
 90
       50
176
     1
290
     0
176
     1
 90
       50
176
     1
 62
   256
176
     0
 40
1.0
176
     0
 90
        2
176
     1
  1
strokes_ogs.tif
176
     1
290
     0
176
     1
 40
1.0
176
     1
 40
1.0
176
     1
  0
VISUALSTYLE
  5
32
102
{ACAD_REACTORS
330
29
102
}
330
29
100
AcDbVisualStyle
  2
Conceptual
 70
     9
177
     3
291
     0
 70
    58
 90
        3
176
     1
 90
        2
176
     1
 90
        0
176
     1
 90
        0
176
     1
 40
0.6
176
     1
 40
30.0
176
     1
 62
     7
420
 16777215
176
     1
 90
        2
176
     1
 90
        2
176
     1
 62
     7
176
     1
 62
   257
176
     1
 90
        1
176
     1
 90
        1
176
     1
 40
179.0
176
     1
 90
        8
176
     1
 62
     7
176
     1
 40
1.0
176
     1
 90
        1
176
     1
 90
        6
176
     1
 90
        2
176
     1
 62
     7
176
     1
 90
        3
176
     1
 90
        0
176
     1
 90
        0
176
     1
290
     0
176
     1
 90
        1
176
     1
 40
0.0
176
     1
 90
        0
176
     1
290
     0
176
     1
290
     1
176
     1
290
     1
176
     1
290
     0
176
     1
290
     0
176
     1
290
     0
176
     1
290
     0
176
     1
290
     0
176
     1
290
     0
176
     1
 90
       50
176
     1
 40
0.0
176
     1
 40
1.0
176
     1
 90
        0
176
     1
 62
    18
420
        0
176
     1
 90
       50
176
     1
 90
        3
176
     1
 62
     5
420
      255
176
     1
290
     0
176
     1
 90
       50
176
     1
 90
       50
176
     1
 90
       50
176
     1
290
     0
176
     1
 90
       50
176
     1
 62
   256
176
     0
 40
1.0
176
     0
 90
        2
176
     1
  1
strokes_ogs.tif
176
     1
290
     0
176
     1
 40
1.0
176
     1
 40
1.0
176
     1
  0
VISUALSTYLE
  5
34
102
{ACAD_REACTORS
330
29
102
}
330
29
100
AcDbVisualStyle
  2
Dim
 70
    11
177
     3
291
     1
 70
    58
 90
        2
176
     1
 90
        2
176
     1
 90
        0
176
     1
 90
        0
176
     1
 40
0.6
176
     1
 40
30.0
176
     1
 62
     7
420
 16777215
176
     1
 90
        1
176
     1
 90
        4
176
     1
 62
     7
176
     1
 62
   257
176
     1
 90
        1
176
     1
 90
        1
176
     1
 40
1.0
176
     1
 90
        8
176
     1
 62
     7
176
     1
 40
1.0
176
     1
 90
        1
176
     1
 90
        6
176
     1
 90
        2
176
     1
 62
     7
176
     1
 90
        5
176
     1
 90
        0
176
     1
 90
        0
176
     1
290
     0
176
     1
 90
        1
176
     1
 40
-50.0
176
     1
 90
        0
176
     1
290
     0
176
     1
290
     1
176
     1
290
     1
176
     1
290
     0
176
     1
290
     0
176
     1
290
     0
176
     1
290
     0
176
     1
290
     0
176
     1
290
     0
176
     1
 90
       50
176
     1
 40
0.0
176
     1
 40
1.0
176
     1
 90
        0
176
     1
 62
    18
420
        0
176
     1
 90
       50
176
     1
 90
        3
176
     1
 62
     5
420
      255
176
     1
290
     0
176
     1
 90
       50
176
     1
 90
       50
176
     1
 90
       50
176
     1
290
     0
176
     1
 90
       50
176
     1
 62
   256
176
     0
 40
1.0
176
     0
 90
        2
176
     1
  1
strokes_ogs.tif
176
     1
290
     0
176
     1
 40
1.0
176
     1
 40
1.0
176
     1
  0
VISUALSTYLE
  5
41
102
{ACAD_REACTORS
330
29
102
}
330
29
100
AcDbVisualStyle
  2
EdgeColorOff
 70
    22
177
     3
291
     1
 70
    58
 90
        2
176
     0
 90
        2
176
     0
 90
        0
176
     0
 90
        0
176
     0
 40
0.6
176
     0
 40
30.0
176
     0
 62
     7
420
 16777215
176
     0
 90
        1
176
     0
 90
        4
176
     0
 62
     7
176
     0
 62
   257
176
     0
 90
        1
176
     0
 90
        1
176
     0
 40
1.0
176
     0
 90
        8
176
     2
 62
     7
176
     0
 40
1.0
176
     0
 90
        1
176
     0
 90
        6
176
     0
 90
        2
176
     0
 62
     7
176
     0
 90
        5
176
     0
 90
        0
176
     0
 90
        0
176
     0
290
     0
176
     0
 90
        1
176
     0
 40
0.0
176
     0
 90
        0
176
     0
290
     0
176
     1
290
     1
176
     1
290
     1
176
     1
290
     0
176
     1
290
     0
176
     1
290
     0
176
     1
290
     0
176
     1
290
     0
176
     1
290
     0
176
     1
 90
       50
176
     0
 40
0.0
176
     0
 40
1.0
176
     0
 90
        0
176
     0
 62
    18
420
        0
176
     0
 90
       50
176
     0
 90
        3
176
     0
 62
     5
420
      255
176
     0
290
     0
176
     1
 90
       50
176
     0
 90
       50
176
     0
 90
       50
176
     0
290
     0
176
     1
 90
       50
176
     0
 62
   256
176
     0
 40
1.0
176
     0
 90
        2
176
     0
  1
strokes_ogs.tif
176
     0
290
     0
176
     1
 40
1.0
176
     0
 40
1.0
176
     0
  0
VISUALSTYLE
  5
38
102
{ACAD_REACTORS
330
29
102
}
330
29
100
AcDbVisualStyle
  2
Facepattern
 70
    15
177
     3
291
     1
 70
    58
 90
        2
176
     1
 90
        2
176
     1
 90
        0
176
     1
 90
        0
176
     1
 40
0.6
176
     1
 40
30.0
176
     1
 62
     7
420
 16777215
176
     1
 90
        1
176
     1
 90
        4
176
     1
 62
     7
176
     1
 62
   257
176
     1
 90
        1
176
     1
 90
        1
176
     1
 40
1.0
176
     1
 90
        8
176
     1
 62
     7
176
     1
 40
1.0
176
     1
 90
        1
176
     1
 90
        6
176
     1
 90
        2
176
     1
 62
     7
176
     1
 90
        5
176
     1
 90
        0
176
     1
 90
        0
176
     1
290
     0
176
     1
 90
        1
176
     1
 40
0.0
176
     1
 90
        0
176
     1
290
     0
176
     1
290
     1
176
     1
290
     1
176
     1
290
     0
176
     1
290
     0
176
     1
290
     0
176
     1
290
     0
176
     1
290
     0
176
     1
290
     0
176
     1
 90
       50
176
     1
 40
0.0
176
     1
 40
1.0
176
     1
 90
        0
176
     1
 62
    18
420
        0
176
     1
 90
       50
176
     1
 90
        3
176
     1
 62
     5
420
      255
176
     1
290
     0
176
     1
 90
       50
176
     1
 90
       50
176
     1
 90
       50
176
     1
290
     0
176
     1
 90
       50
176
     1
 62
   256
176
     0
 40
1.0
176
     0
 90
        2
176
     1
  1
strokes_ogs.tif
176
     1
290
     0
176
     1
 40
1.0
176
     1
 40
1.0
176
     1
  0
VISUALSTYLE
  5
2A
102
{ACAD_REACTORS
330
29
102
}
330
29
100
AcDbVisualStyle
  2
Flat
 70
     0
177
     3
291
     1
 70
    58
 90
        2
176
     1
 90
        1
176
     1
 90
        1
176
     1
 90
        2
176
     1
 40
0.6
176
     1
 40
30.0
176
     1
 62
     7
420
 16777215
176
     1
 90
        0
176
     1
 90
        0
176
     1
 62
     7
176
     1
 62
   257
176
     1
 90
        1
176
     1
 90
        1
176
     1
 40
1.0
176
     1
 90
        8
176
     1
 62
     7
176
     1
 40
1.0
176
     1
 90
        1
176
     1
 90
        6
176
     1
 90
        2
176
     1
 62
     7
176
     1
 90
        5
176
     1
 90
        0
176
     1
 90
        0
176
     1
290
     0
176
     1
 90
       13
176
     1
 40
0.0
176
     1
 90
        0
176
     1
290
     0
176
     1
290
     1
176
     1
290
     1
176
     1
290
     0
176
     1
290
     0
176
     1
290
     0
176
     1
290
     0
176
     1
290
     0
176
     1
290
     0
176
     1
 90
       50
176
     1
 40
0.0
176
     1
 40
1.0
176
     1
 90
        0
176
     1
 62
    18
420
        0
176
     1
 90
       50
176
     1
 90
        3
176
     1
 62
     5
420
      255
176
     1
290
     0
176
     1
 90
       50
176
     1
 90
       50
176
     1
 90
       50
176
     1
290
     0
176
     1
 90
       50
176
     1
 62
   256
176
     0
 40
1.0
176
     0
 90
        2
176
     1
  1
strokes_ogs.tif
176
     1
290
     0
176
     1
 40
1.0
176
     1
 40
1.0
176
     1
  0
VISUALSTYLE
  5
2B
102
{ACAD_REACTORS
330
29
102
}
330
29
100
AcDbVisualStyle
  2
FlatWithEdges
 70
     1
177
     3
291
     1
 70
    58
 90
        2
176
     1
 90
        1
176
     1
 90
        1
176
     1
 90
        2
176
     1
 40
0.6
176
     1
 40
30.0
176
     1
 62
     7
420
 16777215
176
     1
 90
        1
176
     1
 90
        0
176
     1
 62
     7
176
     1
 62
   257
176
     1
 90
        1
176
     1
 90
        1
176
     1
 40
1.0
176
     1
 90
        0
176
     1
 62
   257
176
     1
 40
1.0
176
     1
 90
        1
176
     1
 90
        6
176
     1
 90
        2
176
     1
 62
     7
176
     1
 90
        5
176
     1
 90
        0
176
     1
 90
        0
176
     1
290
     0
176
     1
 90
       13
176
     1
 40
0.0
176
     1
 90
        0
176
     1
290
     0
176
     1
290
     1
176
     1
290
     1
176
     1
290
     0
176
     1
290
     0
176
     1
290
     0
176
     1
290
     0
176
     1
290
     0
176
     1
290
     0
176
     1
 90
       50
176
     1
 40
0.0
176
     1
 40
1.0
176
     1
 90
        0
176
     1
 62
    18
420
        0
176
     1
 90
       50
176
     1
 90
        3
176
     1
 62
     5
420
      255
176
     1
290
     0
176
     1
 90
       50
176
     1
 90
       50
176
     1
 90
       50
176
     1
290
     0
176
     1
 90
       50
176
     1
 62
   256
176
     0
 40
1.0
176
     0
 90
        2
176
     1
  1
strokes_ogs.tif
176
     1
290
     0
176
     1
 40
1.0
176
     1
 40
1.0
176
     1
  0
VISUALSTYLE
  5
2C
102
{ACAD_REACTORS
330
29
102
}
330
29
100
AcDbVisualStyle
  2
Gouraud
 70
     2
177
     3
291
     1
 70
    58
 90
        2
176
     1
 90
        2
176
     1
 90
        1
176
     1
 90
        2
176
     1
 40
0.6
176
     1
 40
30.0
176
     1
 62
     7
420
 16777215
176
     1
 90
        0
176
     1
 90
        0
176
     1
 62
     7
176
     1
 62
   257
176
     1
 90
        1
176
     1
 90
        1
176
     1
 40
1.0
176
     1
 90
        0
176
     1
 62
     7
176
     1
 40
1.0
176
     1
 90
        1
176
     1
 90
        6
176
     1
 90
        2
176
     1
 62
     7
176
     1
 90
        5
176
     1
 90
        0
176
     1
 90
        0
176
     1
290
     0
176
     1
 90
       13
176
     1
 40
0.0
176
     1
 90
        0
176
     1
290
     0
176
     1
290
     1
176
     1
290
     1
176
     1
290
     0
176
     1
290
     0
176
     1
290
     0
176
     1
290
     0
176
     1
290
     0
176
     1
290
     0
176
     1
 90
       50
176
     1
 40
0.0
176
     1
 40
1.0
176
     1
 90
        0
176
     1
 62
    18
420
        0
176
     1
 90
       50
176
     1
 90
        3
176
     1
 62
     5
420
      255
176
     1
290
     0
176
     1
 90
       50
176
     1
 90
       50
176
     1
 90
       50
176
     1
290
     0
176
     1
 90
       50
176
     1
 62
   256
176
     0
 40
1.0
176
     0
 90
        2
176
     1
  1
strokes_ogs.tif
176
     1
290
     0
176
     1
 40
1.0
176
     1
 40
1.0
176
     1
  0
VISUALSTYLE
  5
2D
102
{ACAD_REACTORS
330
29
102
}
330
29
100
AcDbVisualStyle
  2
GouraudWithEdges
 70
     3
177
     3
291
     1
 70
    58
 90
        2
176
     1
 90
        2
176
     1
 90
        1
176
     1
 90
        2
176
     1
 40
0.6
176
     1
 40
30.0
176
     1
 62
     7
420
 16777215
176
     1
 90
        1
176
     1
 90
        0
176
     1
 62
     7
176
     1
 62
   257
176
     1
 90
        1
176
     1
 90
        1
176
     1
 40
1.0
176
     1
 90
        0
176
     1
 62
   257
176
     1
 40
1.0
176
     1
 90
        1
176
     1
 90
        6
176
     1
 90
        2
176
     1
 62
     7
176
     1
 90
        5
176
     1
 90
        0
176
     1
 90
        0
176
     1
290
     0
176
     1
 90
       13
176
     1
 40
0.0
176
     1
 90
        0
176
     1
290
     0
176
     1
290
     1
176
     1
290
     1
176
     1
290
     0
176
     1
290
     0
176
     1
290
     0
176
     1
290
     0
176
     1
290
     0
176
     1
290
     0
176
     1
 90
       50
176
     1
 40
0.0
176
     1
 40
1.0
176
     1
 90
        0
176
     1
 62
    18
420
        0
176
     1
 90
       50
176
     1
 90
        3
176
     1
 62
     5
420
      255
176
     1
290
     0
176
     1
 90
       50
176
     1
 90
       50
176
     1
 90
       50
176
     1
290
     0
176
     1
 90
       50
176
     1
 62
   256
176
     0
 40
1.0
176
     0
 90
        2
176
     1
  1
strokes_ogs.tif
176
     1
290
     0
176
     1
 40
1.0
176
     1
 40
1.0
176
     1
  0
VISUALSTYLE
  5
31
102
{ACAD_REACTORS
330
29
102
}
330
29
100
AcDbVisualStyle
  2
Hidden
 70
     6
177
     3
291
     0
 70
    58
 90
        1
176
     1
 90
        2
176
     1
 90
        2
176
     1
 90
        0
176
     1
 40
0.6
176
     1
 40
30.0
176
     1
 62
     7
420
 16777215
176
     1
 90
        2
176
     1
 90
        2
176
     1
 62
     7
176
     1
 62
   257
176
     1
 90
        2
176
     1
 90
        1
176
     1
 40
40.0
176
     1
 90
        0
176
     1
 62
   257
176
     1
 40
1.0
176
     1
 90
        1
176
     1
 90
        6
176
     1
 90
        2
176
     1
 62
     7
176
     1
 90
        3
176
     1
 90
        0
176
     1
 90
        0
176
     1
290
     0
176
     1
 90
        1
176
     1
 40
0.0
176
     1
 90
        0
176
     1
290
     0
176
     1
290
     1
176
     1
290
     1
176
     1
290
     0
176
     1
290
     0
176
     1
290
     0
176
     1
290
     0
176
     1
290
     0
176
     1
290
     0
176
     1
 90
       50
176
     1
 40
0.0
176
     1
 40
1.0
176
     1
 90
        0
176
     1
 62
    18
420
        0
176
     1
 90
       50
176
     1
 90
        3
176
     1
 62
     5
420
      255
176
     1
290
     0
176
     1
 90
       50
176
     1
 90
       50
176
     1
 90
       50
176
     1
290
     0
176
     1
 90
       50
176
     1
 62
   256
176
     0
 40
1.0
176
     0
 90
        2
176
     1
  1
strokes_ogs.tif
176
     1
290
     0
176
     1
 40
1.0
176
     1
 40
1.0
176
     1
  0
VISUALSTYLE
  5
3F
102
{ACAD_REACTORS
330
29
102
}
330
29
100
AcDbVisualStyle
  2
JitterOff
 70
    20
177
     3
291
     1
 70
    58
 90
        2
176
     0
 90
        2
176
     0
 90
        0
176
     0
 90
        0
176
     0
 40
0.6
176
     0
 40
30.0
176
     0
 62
     7
420
 16777215
176
     0
 90
        1
176
     0
 90
        4
176
     0
 62
     7
176
     0
 62
   257
176
     0
 90
        1
176
     0
 90
        1
176
     0
 40
1.0
176
     0
 90
       10
176
     2
 62
     7
176
     0
 40
1.0
176
     0
 90
        1
176
     0
 90
        6
176
     0
 90
        2
176
     0
 62
     7
176
     0
 90
        5
176
     0
 90
        0
176
     0
 90
        0
176
     0
290
     0
176
     0
 90
        1
176
     0
 40
0.0
176
     0
 90
        0
176
     0
290
     0
176
     1
290
     1
176
     1
290
     1
176
     1
290
     0
176
     1
290
     0
176
     1
290
     0
176
     1
290
     0
176
     1
290
     0
176
     1
290
     0
176
     1
 90
       50
176
     0
 40
0.0
176
     0
 40
1.0
176
     0
 90
        0
176
     0
 62
    18
420
        0
176
     0
 90
       50
176
     0
 90
        3
176
     0
 62
     5
420
      255
176
     0
290
     0
176
     1
 90
       50
176
     0
 90
       50
176
     0
 90
       50
176
     0
290
     0
176
     1
 90
       50
176
     0
 62
   256
176
     0
 40
1.0
176
     0
 90
        2
176
     0
  1
strokes_ogs.tif
176
     0
290
     0
176
     1
 40
1.0
176
     0
 40
1.0
176
     0
  0
VISUALSTYLE
  5
37
102
{ACAD_REACTORS
330
29
102
}
330
29
100
AcDbVisualStyle
  2
Linepattern
 70
    14
177
     3
291
     1
 70
    58
 90
        2
176
     1
 90
        2
176
     1
 90
        0
176
     1
 90
        0
176
     1
 40
0.6
176
     1
 40
30.0
176
     1
 62
     7
420
 16777215
176
     1
 90
        1
176
     1
 90
        4
176
     1
 62
     7
176
     1
 62
   257
176
     1
 90
        7
176
     1
 90
        7
176
     1
 40
1.0
176
     1
 90
        8
176
     1
 62
     7
176
     1
 40
1.0
176
     1
 90
        1
176
     1
 90
        6
176
     1
 90
        2
176
     1
 62
     7
176
     1
 90
        5
176
     1
 90
        0
176
     1
 90
        0
176
     1
290
     0
176
     1
 90
        1
176
     1
 40
0.0
176
     1
 90
        0
176
     1
290
     0
176
     1
290
     1
176
     1
290
     1
176
     1
290
     0
176
     1
290
     0
176
     1
290
     0
176
     1
290
     0
176
     1
290
     0
176
     1
290
     0
176
     1
 90
       50
176
     1
 40
0.0
176
     1
 40
1.0
176
     1
 90
        0
176
     1
 62
    18
420
        0
176
     1
 90
       50
176
     1
 90
        3
176
     1
 62
     5
420
      255
176
     1
290
     0
176
     1
 90
       50
176
     1
 90
       50
176
     1
 90
       50
176
     1
290
     0
176
     1
 90
       50
176
     1
 62
   256
176
     0
 40
1.0
176
     0
 90
        2
176
     1
  1
strokes_ogs.tif
176
     1
290
     0
176
     1
 40
1.0
176
     1
 40
1.0
176
     1
  0
VISUALSTYLE
  5
40
102
{ACAD_REACTORS
330
29
102
}
330
29
100
AcDbVisualStyle
  2
OverhangOff
 70
    21
177
     3
291
     1
 70
    58
 90
        2
176
     0
 90
        2
176
     0
 90
        0
176
     0
 90
        0
176
     0
 40
0.6
176
     0
 40
30.0
176
     0
 62
     7
420
 16777215
176
     0
 90
        1
176
     0
 90
        4
176
     0
 62
     7
176
     0
 62
   257
176
     0
 90
        1
176
     0
 90
        1
176
     0
 40
1.0
176
     0
 90
        9
176
     2
 62
     7
176
     0
 40
1.0
176
     0
 90
        1
176
     0
 90
        6
176
     0
 90
        2
176
     0
 62
     7
176
     0
 90
        5
176
     0
 90
        0
176
     0
 90
        0
176
     0
290
     0
176
     0
 90
        1
176
     0
 40
0.0
176
     0
 90
        0
176
     0
290
     0
176
     1
290
     1
176
     1
290
     1
176
     1
290
     0
176
     1
290
     0
176
     1
290
     0
176
     1
290
     0
176
     1
290
     0
176
     1
290
     0
176
     1
 90
       50
176
     0
 40
0.0
176
     0
 40
1.0
176
     0
 90
        0
176
     0
 62
    18
420
        0
176
     0
 90
       50
176
     0
 90
        3
176
     0
 62
     5
420
      255
176
     0
290
     0
176
     1
 90
       50
176
     0
 90
       50
176
     0
 90
       50
176
     0
290
     0
176
     1
 90
       50
176
     0
 62
   256
176
     0
 40
1.0
176
     0
 90
        2
176
     0
  1
strokes_ogs.tif
176
     0
290
     0
176
     1
 40
1.0
176
     0
 40
1.0
176
     0
  0
VISUALSTYLE
  5
33
102
{ACAD_REACTORS
330
29
102
}
330
29
100
AcDbVisualStyle
  2
Realistic
 70
     8
177
     3
291
     0
 70
    58
 90
        2
176
     1
 90
        3
176
     1
 90
        0
176
     1
 90
        2
176
     1
 40
0.6
176
     1
 40
30.0
176
     1
 62
     7
420
 16777215
176
     1
 90
        0
176
     1
 90
        0
176
     1
 62
     7
176
     1
 62
   257
176
     1
 90
        1
176
     1
 90
        1
176
     1
 40
1.0
176
     1
 90
        8
176
     1
 62
   257
176
     1
 40
1.0
176
     1
 90
        1
176
     1
 90
        6
176
     1
 90
        2
176
     1
 62
     7
176
     1
 90
        3
176
     1
 90
        0
176
     1
 90
        0
176
     1
290
     0
176
     1
 90
       13
176
     1
 40
0.0
176
     1
 90
        0
176
     1
290
     0
176
     1
290
     1
176
     1
290
     1
176
     1
290
     0
176
     1
290
     0
176
     1
290
     0
176
     1
290
     0
176
     1
290
     0
176
     1
290
     0
176
     1
 90
       50
176
     1
 40
0.0
176
     1
 40
1.0
176
     1
 90
        0
176
     1
 62
    18
420
        0
176
     1
 90
       50
176
     1
 90
        3
176
     1
 62
     5
420
      255
176
     1
290
     0
176
     1
 90
       50
176
     1
 90
       50
176
     1
 90
       50
176
     1
290
     0
176
     1
 90
       50
176
     1
 62
   256
176
     0
 40
1.0
176
     0
 90
        2
176
     1
  1
strokes_ogs.tif
176
     1
290
     0
176
     1
 40
1.0
176
     1
 40
1.0
176
     1
  0
VISUALSTYLE
  5
3E
102
{ACAD_REACTORS
330
29
102
}
330
29
100
AcDbVisualStyle
  2
Shaded
 70
    27
177
     3
291
     0
 70
    58
 90
        2
176
     1
 90
        2
176
     1
 90
        1
176
     1
 90
        2
176
     1
 40
0.6
176
     1
 40
30.0
176
     1
 62
     7
420
 16777215
176
     1
 90
        0
176
     1
 90
        4
176
     1
 62
     7
176
     1
 62
   257
176
     1
 90
        1
176
     1
 90
        1
176
     1
 40
1.0
176
     1
 90
        8
176
     1
 62
   257
176
     1
 40
1.0
176
     1
 90
        1
176
     1
 90
        6
176
     1
 90
        2
176
     1
 62
     8
420
  7895160
176
     1
 90
        3
176
     1
 90
        0
176
     1
 90
        0
176
     1
290
     0
176
     1
 90
        5
176
     1
 40
0.0
176
     1
 90
        0
176
     1
290
     0
176
     1
290
     1
176
     1
290
     1
176
     1
290
     0
176
     1
290
     0
176
     1
290
     0
176
     1
290
     0
176
     1
290
     0
176
     1
290
     0
176
     1
 90
       50
176
     1
 40
0.0
176
     1
 40
1.0
176
     1
 90
        0
176
     1
 62
    18
420
        0
176
     1
 90
       50
176
     1
 90
        3
176
     1
 62
     5
420
      255
176
     1
290
     0
176
     1
 90
       50
176
     1
 90
       50
176
     1
 90
       50
176
     1
290
     0
176
     1
 90
       50
176
     1
 62
   256
176
     0
 40
1.0
176
     0
 90
        2
176
     1
  1
strokes_ogs.tif
176
     1
290
     0
176
     1
 40
1.0
176
     1
 40
1.0
176
     1
  0
VISUALSTYLE
  5
3D
102
{ACAD_REACTORS
330
29
102
}
330
29
100
AcDbVisualStyle
  2
Shaded with edges
 70
    26
177
     3
291
     0
 70
    58
 90
        2
176
     1
 90
        2
176
     1
 90
        1
176
     1
 90
        2
176
     1
 40
0.6
176
     1
 40
30.0
176
     1
 62
     7
420
 16777215
176
     1
 90
        1
176
     1
 90
       10
176
     1
 62
     7
176
     1
 62
   257
176
     1
 90
        2
176
     1
 90
        1
176
     1
 40
1.0
176
     1
 90
        8
176
     1
 62
   257
176
     1
 40
1.0
176
     1
 90
        1
176
     1
 90
        6
176
     1
 90
        2
176
     1
 62
     7
176
     1
 90
        3
176
     1
 90
        0
176
     1
 90
        0
176
     1
290
     0
176
     1
 90
        5
176
     1
 40
0.0
176
     1
 90
        0
176
     1
290
     0
176
     1
290
     1
176
     1
290
     1
176
     1
290
     0
176
     1
290
     0
176
     1
290
     0
176
     1
290
     0
176
     1
290
     0
176
     1
290
     0
176
     1
 90
       50
176
     1
 40
0.0
176
     1
 40
1.0
176
     1
 90
        0
176
     1
 62
    18
420
        0
176
     1
 90
       50
176
     1
 90
        3
176
     1
 62
     5
420
      255
176
     1
290
     0
176
     1
 90
       50
176
     1
 90
       50
176
     1
 90
       50
176
     1
290
     0
176
     1
 90
       50
176
     1
 62
   256
176
     0
 40
1.0
176
     0
 90
        2
176
     1
  1
strokes_ogs.tif
176
     1
290
     0
176
     1
 40
1.0
176
     1
 40
1.0
176
     1
  0
VISUALSTYLE
  5
3A
102
{ACAD_REACTORS
330
29
102
}
330
29
100
AcDbVisualStyle
  2
Shades of Gray
 70
    23
177
     3
291
     0
 70
    58
 90
        2
176
     1
 90
        2
176
     1
 90
        3
176
     1
 90
        0
176
     1
 40
0.6
176
     1
 40
30.0
176
     1
 62
     7
420
 16777215
176
     1
 90
        2
176
     1
 90
        2
176
     1
 62
     7
176
     1
 62
     7
176
     1
 90
        1
176
     1
 90
        1
176
     1
 40
40.0
176
     1
 90
        8
176
     1
 62
     7
176
     1
 40
1.0
176
     1
 90
        1
176
     1
 90
        6
176
     1
 90
        2
176
     1
 62
     7
176
     1
 90
        3
176
     1
 90
        0
176
     1
 90
        0
176
     1
290
     0
176
     1
 90
        1
176
     1
 40
0.0
176
     1
 90
        0
176
     1
290
     0
176
     1
290
     1
176
     1
290
     1
176
     1
290
     0
176
     1
290
     0
176
     1
290
     0
176
     1
290
     0
176
     1
290
     0
176
     1
290
     0
176
     1
 90
       50
176
     1
 40
0.0
176
     1
 40
1.0
176
     1
 90
        0
176
     1
 62
    18
420
        0
176
     1
 90
       50
176
     1
 90
        3
176
     1
 62
     5
420
      255
176
     1
290
     0
176
     1
 90
       50
176
     1
 90
       50
176
     1
 90
       50
176
     1
290
     0
176
     1
 90
       50
176
     1
 62
   256
176
     0
 40
1.0
176
     0
 90
        2
176
     1
  1
strokes_ogs.tif
176
     1
290
     0
176
     1
 40
1.0
176
     1
 40
1.0
176
     1
  0
VISUALSTYLE
  5
3B
102
{ACAD_REACTORS
330
29
102
}
330
29
100
AcDbVisualStyle
  2
Sketchy
 70
    24
177
     3
291
     0
 70
    58
 90
        1
176
     1
 90
        2
176
     1
 90
        2
176
     1
 90
        0
176
     1
 40
0.6
176
     1
 40
30.0
176
     1
 62
     7
420
 16777215
176
     1
 90
        2
176
     1
 90
        2
176
     1
 62
     7
176
     1
 62
     7
176
     1
 90
        1
176
     1
 90
        1
176
     1
 40
40.0
176
     1
 90
       11
176
     1
 62
     7
176
     1
 40
1.0
176
     1
 90
        1
176
     1
 90
        6
176
     1
 90
        2
176
     1
 62
     7
176
     1
 90
        6
176
     1
 90
        0
176
     1
 90
        0
176
     1
290
     0
176
     1
 90
        1
176
     1
 40
0.0
176
     1
 90
        0
176
     1
290
     0
176
     1
290
     1
176
     1
290
     1
176
     1
290
     0
176
     1
290
     0
176
     1
290
     0
176
     1
290
     0
176
     1
290
     0
176
     1
290
     0
176
     1
 90
       50
176
     1
 40
0.0
176
     1
 40
1.0
176
     1
 90
        0
176
     1
 62
    18
420
        0
176
     1
 90
       50
176
     1
 90
        3
176
     1
 62
     5
420
      255
176
     1
290
     0
176
     1
 90
       50
176
     1
 90
       50
176
     1
 90
       50
176
     1
290
     0
176
     1
 90
       50
176
     1
 62
   256
176
     0
 40
1.0
176
     0
 90
        2
176
     1
  1
strokes_ogs.tif
176
     1
290
     0
176
     1
 40
1.0
176
     1
 40
1.0
176
     1
  0
VISUALSTYLE
  5
36
102
{ACAD_REACTORS
330
29
102
}
330
29
100
AcDbVisualStyle
  2
Thicken
 70
    13
177
     3
291
     1
 70
    58
 90
        2
176
     1
 90
        2
176
     1
 90
        0
176
     1
 90
        0
176
     1
 40
0.6
176
     1
 40
30.0
176
     1
 62
     7
420
 16777215
176
     1
 90
        1
176
     1
 90
        4
176
     1
 62
     7
176
     1
 62
   257
176
     1
 90
        1
176
     1
 90
        1
176
     1
 40
1.0
176
     1
 90
       12
176
     1
 62
     7
176
     1
 40
1.0
176
     1
 90
        1
176
     1
 90
        6
176
     1
 90
        2
176
     1
 62
     7
176
     1
 90
        5
176
     1
 90
        0
176
     1
 90
        0
176
     1
290
     0
176
     1
 90
        1
176
     1
 40
0.0
176
     1
 90
        0
176
     1
290
     0
176
     1
290
     1
176
     1
290
     1
176
     1
290
     0
176
     1
290
     0
176
     1
290
     0
176
     1
290
     0
176
     1
290
     0
176
     1
290
     0
176
     1
 90
       50
176
     1
 40
0.0
176
     1
 40
1.0
176
     1
 90
        0
176
     1
 62
    18
420
        0
176
     1
 90
       50
176
     1
 90
        3
176
     1
 62
     5
420
      255
176
     1
290
     0
176
     1
 90
       50
176
     1
 90
       50
176
     1
 90
       50
176
     1
290
     0
176
     1
 90
       50
176
     1
 62
   256
176
     0
 40
1.0
176
     0
 90
        2
176
     1
  1
strokes_ogs.tif
176
     1
290
     0
176
     1
 40
1.0
176
     1
 40
1.0
176
     1
  0
VISUALSTYLE
  5
30
102
{ACAD_REACTORS
330
29
102
}
330
29
100
AcDbVisualStyle
  2
Wireframe
 70
     5
177
     3
291
     0
 70
    58
 90
        0
176
     1
 90
        2
176
     1
 90
        0
176
     1
 90
        0
176
     1
 40
0.6
176
     1
 40
30.0
176
     1
 62
     7
420
 16777215
176
     1
 90
        1
176
     1
 90
        4
176
     1
 62
     7
176
     1
 62
   257
176
     1
 90
        1
176
     1
 90
        1
176
     1
 40
1.0
176
     1
 90
        0
176
     1
 62
   257
176
     1
 40
1.0
176
     1
 90
        1
176
     1
 90
        6
176
     1
 90
        2
176
     1
 62
     7
176
     1
 90
        3
176
     1
 90
        0
176
     1
 90
        0
176
     1
290
     0
176
     1
 90
        1
176
     1
 40
0.0
176
     1
 90
        0
176
     1
290
     0
176
     1
290
     1
176
     1
290
     1
176
     1
290
     0
176
     1
290
     0
176
     1
290
     0
176
     1
290
     0
176
     1
290
     0
176
     1
290
     0
176
     1
 90
       50
176
     1
 40
0.0
176
     1
 40
1.0
176
     1
 90
        0
176
     1
 62
    18
420
        0
176
     1
 90
       50
176
     1
 90
        3
176
     1
 62
     5
420
      255
176
     1
290
     0
176
     1
 90
       50
176
     1
 90
       50
176
     1
 90
       50
176
     1
290
     0
176
     1
 90
       50
176
     1
 62
   256
176
     0
 40
1.0
176
     0
 90
        2
176
     1
  1
strokes_ogs.tif
176
     1
290
     0
176
     1
 40
1.0
176
     1
 40
1.0
176
     1
  0
VISUALSTYLE
  5
3C
102
{ACAD_REACTORS
330
29
102
}
330
29
100
AcDbVisualStyle
  2
X-Ray
 70
    25
177
     3
291
     0
 70
    58
 90
        2
176
     1
 90
        2
176
     1
 90
        1
176
     1
 90
        1
176
     1
 40
0.5
176
     1
 40
30.0
176
     1
 62
     7
420
 16777215
176
     1
 90
        1
176
     1
 90
        0
176
     1
 62
     7
176
     1
 62
   257
176
     1
 90
        1
176
     1
 90
        1
176
     1
 40
1.0
176
     1
 90
        8
176
     1
 62
     7
176
     1
 40
1.0
176
     1
 90
        1
176
     1
 90
        6
176
     1
 90
        2
176
     1
 62
     7
176
     1
 90
        3
176
     1
 90
        0
176
     1
 90
        0
176
     1
290
     0
176
     1
 90
       13
176
     1
 40
0.0
176
     1
 90
        0
176
     1
290
     0
176
     1
290
     1
176
     1
290
     1
176
     1
290
     0
176
     1
290
     0
176
     1
290
     0
176
     1
290
     0
176
     1
290
     0
176
     1
290
     0
176
     1
 90
       50
176
     1
 40
0.0
176
     1
 40
1.0
176
     1
 90
        0
176
     1
 62
    18
420
        0
176
     1
 90
       50
176
     1
 90
        3
176
     1
 62
     5
420
      255
176
     1
290
     0
176
     1
 90
       50
176
     1
 90
       50
176
     1
 90
       50
176
     1
290
     0
176
     1
 90
       50
176
     1
 62
   256
176
     0
 40
1.0
176
     0
 90
        2
176
     1
  1
strokes_ogs.tif
176
     1
290
     0
176
     1
 40
1.0
176
     1
 40
1.0
176
     1
  0
DICTIONARYVAR
  5
2DA
102
{ACAD_REACTORS
330
24E
102
}
330
24E
100
DictionaryVariables
280
     0
  1
1:1
  0
DICTIONARYVAR
  5
2D6
102
{ACAD_REACTORS
330
24E
102
}
330
24E
100
DictionaryVariables
280
     0
  1
STANDARD
  0
DICTIONARYVAR
  5
2D5
102
{ACAD_REACTORS
330
24E
102
}
330
24E
100
DictionaryVariables
280
     0
  1
STANDARD
  0
DICTIONARYVAR
  5
2D7
102
{ACAD_REACTORS
330
24E
102
}
330
24E
100
DictionaryVariables
280
     0
  1
Imperial24
  0
DICTIONARYVAR
  5
2D8
102
{ACAD_REACTORS
330
24E
102
}
330
24E
100
DictionaryVariables
280
     0
  1
Imperial24
  0
DICTIONARYVAR
  5
2DC
102
{ACAD_REACTORS
330
24E
102
}
330
24E
100
DictionaryVariables
280
     0
  1
1
  0
DICTIONARYVAR
  5
2DD
102
{ACAD_REACTORS
330
24E
102
}
330
24E
100
DictionaryVariables
280
     0
  1
15
  0
DICTIONARYVAR
  5
2DB
102
{ACAD_REACTORS
330
24E
102
}
330
24E
100
DictionaryVariables
280
     0
  1
0
  0
DICTIONARYVAR
  5
2D9
102
{ACAD_REACTORS
330
24E
102
}
330
24E
100
DictionaryVariables
280
     0
  1
0
  0
DICTIONARY
  5
3EC
330
6A
100
AcDbDictionary
280
     1
281
     1
  3
ACAD_XREC_ROUNDTRIP
360
3ED
  0
DICTIONARY
  5
1A
330
19
100
AcDbDictionary
280
     1
281
     1
  3
BUMPTILE
360
1C
  3
DIFFUSETILE
360
1B
  3
OPACITYTILE
360
1F
  3
REFLECTIONTILE
360
1E
  3
REFRACTIONTILE
360
20
  3
SPECULARTILE
360
1D
  0
DICTIONARY
  5
12
330
11
100
AcDbDictionary
280
     1
281
     1
  3
BUMPTILE
360
14
  3
DIFFUSETILE
360
13
  3
OPACITYTILE
360
17
  3
REFLECTIONTILE
360
16
  3
REFRACTIONTILE
360
18
  3
SPECULARTILE
360
15
  0
DICTIONARY
  5
22
330
21
100
AcDbDictionary
280
     1
281
     1
  3
BUMPTILE
360
24
  3
DIFFUSETILE
360
23
  3
OPACITYTILE
360
27
  3
REFLECTIONTILE
360
26
  3
REFRACTIONTILE
360
28
  3
SPECULARTILE
360
25
  0
DICTIONARY
  5
3EA
330
68
100
AcDbDictionary
280
     1
281
     1
  3
ACAD_XREC_ROUNDTRIP
360
3EB
  0
DICTIONARY
  5
3E8
330
64
100
AcDbDictionary
280
     1
281
     1
  3
ACAD_ROUNDTRIP_2008_TABLESTYLE_CELLSTYLEMAP
360
3E9
  0
XRECORD
  5
3ED
102
{ACAD_REACTORS
330
3EC
102
}
330
3EC
100
AcDbXrecord
280
     1
102
DISPLAYNAME
  1
Imperial24
102
FLAGS
 90
        0
  0
XRECORD
  5
1C
102
{ACAD_REACTORS
330
1A
102
}
330
1A
100
AcDbXrecord
280
     1
270
     1
271
     1
  0
XRECORD
  5
1B
102
{ACAD_REACTORS
330
1A
102
}
330
1A
100
AcDbXrecord
280
     1
270
     1
271
     1
  0
XRECORD
  5
1F
102
{ACAD_REACTORS
330
1A
102
}
330
1A
100
AcDbXrecord
280
     1
270
     1
271
     1
  0
XRECORD
  5
1E
102
{ACAD_REACTORS
330
1A
102
}
330
1A
100
AcDbXrecord
280
     1
270
     1
271
     1
  0
XRECORD
  5
20
102
{ACAD_REACTORS
330
1A
102
}
330
1A
100
AcDbXrecord
280
     1
270
     1
271
     1
  0
XRECORD
  5
1D
102
{ACAD_REACTORS
330
1A
102
}
330
1A
100
AcDbXrecord
280
     1
270
     1
271
     1
  0
XRECORD
  5
14
102
{ACAD_REACTORS
330
12
102
}
330
12
100
AcDbXrecord
280
     1
270
     1
271
     1
  0
XRECORD
  5
13
102
{ACAD_REACTORS
330
12
102
}
330
12
100
AcDbXrecord
280
     1
270
     1
271
     1
  0
XRECORD
  5
17
102
{ACAD_REACTORS
330
12
102
}
330
12
100
AcDbXrecord
280
     1
270
     1
271
     1
  0
XRECORD
  5
16
102
{ACAD_REACTORS
330
12
102
}
330
12
100
AcDbXrecord
280
     1
270
     1
271
     1
  0
XRECORD
  5
18
102
{ACAD_REACTORS
330
12
102
}
330
12
100
AcDbXrecord
280
     1
270
     1
271
     1
  0
XRECORD
  5
15
102
{ACAD_REACTORS
330
12
102
}
330
12
100
AcDbXrecord
280
     1
270
     1
271
     1
  0
XRECORD
  5
24
102
{ACAD_REACTORS
330
22
102
}
330
22
100
AcDbXrecord
280
     1
270
     1
271
     1
  0
XRECORD
  5
23
102
{ACAD_REACTORS
330
22
102
}
330
22
100
AcDbXrecord
280
     1
270
     1
271
     1
  0
XRECORD
  5
27
102
{ACAD_REACTORS
330
22
102
}
330
22
100
AcDbXrecord
280
     1
270
     1
271
     1
  0
XRECORD
  5
26
102
{ACAD_REACTORS
330
22
102
}
330
22
100
AcDbXrecord
280
     1
270
     1
271
     1
  0
XRECORD
  5
28
102
{ACAD_REACTORS
330
22
102
}
330
22
100
AcDbXrecord
280
     1
270
     1
271
     1
  0
XRECORD
  5
25
102
{ACAD_REACTORS
330
22
102
}
330
22
100
AcDbXrecord
280
     1
270
     1
271
     1
  0
XRECORD
  5
3EB
102
{ACAD_REACTORS
330
3EA
102
}
330
3EA
100
AcDbXrecord
280
     1
102
DISPLAYNAME
  1
Imperial24
102
FLAGS
 90
        0
  0
CELLSTYLEMAP
  5
3E9
102
{ACAD_REACTORS
330
3E8
102
}
330
3E8
100
AcDbCellStyleMap
 90
        3
300
CELLSTYLE
  1
TABLEFORMAT_BEGIN
 90
        5
170
     1
 91
        0
 92
    32768
 62
   257
 93
        1
300
CONTENTFORMAT
  1
CONTENTFORMAT_BEGIN
 90
        0
 91
        0
 92
      512
 93
        0
300

 40
0.0
140
1.0
 94
        5
 62
     0
340
55
144
0.25
309
CONTENTFORMAT_END
171
     0
 94
        0
309
TABLEFORMAT_END
  1
CELLSTYLE_BEGIN
 90
        1
 91
        1
300
_TITLE
309
CELLSTYLE_END
300
CELLSTYLE
  1
TABLEFORMAT_BEGIN
 90
        5
170
     1
 91
        0
 92
        0
 62
   257
 93
        1
300
CONTENTFORMAT
  1
CONTENTFORMAT_BEGIN
 90
        0
 91
        0
 92
      512
 93
        0
300

 40
0.0
140
1.0
 94
        5
 62
     0
340
55
144
0.18
309
CONTENTFORMAT_END
171
     0
 94
        0
309
TABLEFORMAT_END
  1
CELLSTYLE_BEGIN
 90
        2
 91
        1
300
_HEADER
309
CELLSTYLE_END
300
CELLSTYLE
  1
TABLEFORMAT_BEGIN
 90
        5
170
     1
 91
        0
 92
        0
 62
   257
 93
        1
300
CONTENTFORMAT
  1
CONTENTFORMAT_BEGIN
 90
        0
 91
        0
 92
      512
 93
        0
300

 40
0.0
140
1.0
 94
        2
 62
     0
340
55
144
0.18
309
CONTENTFORMAT_END
171
     0
 94
        0
309
TABLEFORMAT_END
  1
CELLSTYLE_BEGIN
 90
        3
 91
        2
300
_DATA
309
CELLSTYLE_END
  0
ENDSEC
  0
SECTION
  2
ACDSDATA
 70
     2
 71
     6
  0
ACDSSCHEMA
 90
        0
  1
AcDb_Thumbnail_Schema
  2
AcDbDs::ID
280
    10
 91
        8
  2
Thumbnail_Data
280
    15
 91
        0
101
ACDSRECORD
 95
        0
 90
        1
  2
AcDbDs::TreatedAsObjectData
280
     1
291
     1
101
ACDSRECORD
 95
        0
 90
        2
  2
AcDbDs::Legacy
280
     1
291
     1
101
ACDSRECORD
  1
AcDbDs::ID
 90
        3
  2
AcDs:Indexable
280
     1
291
     1
101
ACDSRECORD
  1
AcDbDs::ID
 90
        4
  2
AcDbDs::HandleAttribute
280
     7
282
     1
  0
ACDSSCHEMA
 90
        1
  1
AcDbDs::TreatedAsObjectDataSchema
  2
AcDbDs::TreatedAsObjectData
280
     1
 91
        0
  0
ACDSSCHEMA
 90
        2
  1
AcDbDs::LegacySchema
  2
AcDbDs::Legacy
280
     1
 91
        0
  0
ACDSSCHEMA
 90
        3
  1
AcDbDs::IndexedPropertySchema
  2
AcDs:Indexable
280
     1
 91
        0
  0
ACDSSCHEMA
 90
        4
  1
AcDbDs::HandleAttributeSchema
  2
AcDbDs::HandleAttribute
280
     7
 91
        1
284
     1
  0
ACDSRECORD
 90
        0
  2
AcDbDs::ID
280
    10
320
72
  2
Thumbnail_Data
280
    15
 94
     2302
310
89504E470D0A1A0A0000000D4948445200000100000000B208030000009AD9E19E00000300504C54452128300000000000000000000000000000000000000000000000000000000000000000330000660000990000CC0000FF0033000033330033660033990033CC0033FF0066000066330066660066990066CC0066FF0099
310
000099330099660099990099CC0099FF00CC0000CC3300CC6600CC9900CCCC00CCFF00FF0000FF3300FF6600FF9900FFCC00FFFF3300003300333300663300993300CC3300FF3333003333333333663333993333CC3333FF3366003366333366663366993366CC3366FF3399003399333399663399993399CC3399FF33CC00
310
33CC3333CC6633CC9933CCCC33CCFF33FF0033FF3333FF6633FF9933FFCC33FFFF6600006600336600666600996600CC6600FF6633006633336633666633996633CC6633FF6666006666336666666666996666CC6666FF6699006699336699666699996699CC6699FF66CC0066CC3366CC6666CC9966CCCC66CCFF66FF0066
310
FF3366FF6666FF9966FFCC66FFFF9900009900339900669900999900CC9900FF9933009933339933669933999933CC9933FF9966009966339966669966999966CC9966FF9999009999339999669999999999CC9999FF99CC0099CC3399CC6699CC9999CCCC99CCFF99FF0099FF3399FF6699FF9999FFCC99FFFFCC0000CC00
310
33CC0066CC0099CC00CCCC00FFCC3300CC3333CC3366CC3399CC33CCCC33FFCC6600CC6633CC6666CC6699CC66CCCC66FFCC9900CC9933CC9966CC9999CC99CCCC99FFCCCC00CCCC33CCCC66CCCC99CCCCCCCCCCFFCCFF00CCFF33CCFF66CCFF99CCFFCCCCFFFFFF0000FF0033FF0066FF0099FF00CCFF00FFFF3300FF3333
310
FF3366FF3399FF33CCFF33FFFF6600FF6633FF6666FF6699FF66CCFF66FFFF9900FF9933FF9966FF9999FF99CCFF99FFFFCC00FFCC33FFCC66FFCC99FFCCCCFFCCFFFFFF00FFFF33FFFF66FFFF99FFFFCCFFFFFF0000000D0D0D1A1A1A2828283535354343435050505D5D5D6B6B6B787878868686939393A1A1A1AEAEAEBB
310
BBBBC9C9C9D6D6D6E4E4E4F1F1F1FFFFFF000000000000000000000000000000000000000000000000000000000000544354A8000002184944415478DAED9CC16E84300C05F3FFFFFBEE955AED6AA1016C43D5D89E396DBB34E54D482051C81800000000000000000000000000000000000000000000F0A7E84DD3FCD38F2D
310
F3F73480000420A0B5009DFE880004D47F0AFCF554D8B9FEA74E1A557F3705F2ABE992BF456FA89BDF57CF5FBD19E8B183AAE4572B033AFF95AA4F926916557DA606A7519B4E882200010840000210800004200001084000021080000420000108400002108000042000010840000210800004200001084000021080000434
310
C8AFEEF1D558C17774D5BA0AE4BEF855AB219893BC0F54ADBEC098E3E330D5EA0E6569049BA8AA754790E1B5381DF71A26055A3BFFD57B913A8F73AD40AB0B70BE192B6FC0C402A6A72E67442DDF048E0C1CC492AF9635120870D5AAF34DFAA4024E2E6A7F83492060778E176DDADB656610E078BC91A7C7D748274037B70B
310
983C35A610F03A5739FEC43A6EC821C03CCE778C1D345209B00E0C3D5327ABE7DFB47D8DE704FC4C9E25B800023BC4C95DF8BA8381D0F6607601D39BECB2D56F6FDE11BB2B5E048AF66FB1E29520BFED2CA37DA5320830DDE483C5F712A09154C05077018647FD60E10818450C44BB8934022E07FC45F21F4F023D26C053EA
310
BF1AD06E2AE0E6169A9A4D302C3A1AD8CC5EE81901DBE2B4F67282DD3E71B264B409D0C1FF589CD7C92A2E20FF0292AB9D12AF05145836108FA0E60B09C53AC2D13BFF0000000000000000000000000080205FA9A7AFAFE58E39C40000000049454E44AE42608260820114D370C53B51C94D82D6038E8756AD42A8DE8BC1F4
310
DC1E40BFB96BB0C9105B01CE00DAA3EAB799F6A9D9036BA2DA7AA73FE5ED1A44ECB4579642F030008E7D816F25A8CDB8945500864DD2FDBB06F5C700EA046017BFF7B31AA5C7203E0A7049C7FD2A818CAB123006F07B6A2BDA73D18700E467589BB783D618A3DA3137CBCB5B439575FA6328008FB3820B00E65FF69A0B88EF
310
3717B85D059F9FD9AF01307F44B89C543CC07423804BB3B4EF04DCAA005C4EE90180D963E21BF18BBB00D036022F00974C10C2728C861DEAF3B93EC9D4676D4CDA0580CE5D010021F7F75A1B3C2C07D7BFEF3DF3FD39DDE5A87DD9DC6B69ACB209709A21CFD0431FFF5617E15A01B635F043F83837873080FD2EED8F00F05C
310
1C476500C0E1C77101282A00A489BA1B406D2370572166F8315D01CEED4FBB4BD94F70197534DB04986E8B9758FFFCDD17C6D1AA1AC33161BA01DC6666A1E53C0E7B0394F2BA7F2BD80F0FAE007865F84704F803BCF79F4AAEA9B92D005E7BF9C54ED1211B2B790B92DF7200B92F7FC91E3EEF38C2C2C2C2C26252FE016004
310
E65D75DD76C90000000049454E44AE426082AECB7E877A8D8F6758B52682051FB0B04BA04577321BBB8F231E541BF119334DC857F3336E98906FCB75FC01FAB7CDC3297BE387368DA182B54739A2F96F117096FECDCE45B4AAFE8F93C159D173CF0CD841FD136CB5BB6F613ECDFF51BFAEFA707CEBE778F170745FD41BFBA1
310
12891A636B878C94114DFCC3E71D2F50E0BBEF286295558F4F33D5DAB5994B5B70C96BB8D1AEBB65C7C4CFB6F67E6745FE2DAC35B37AECA2FCA33E60FDE85E18D41C46BD31C87ACA7ECAA77CCAA78C945F6E4D1272E4C3B3B70000000049454E44AE42608219AF056DFB22A74FD7C2843D04B0ADF538F13D04703408EAC8BF
310
45308A03C59793C5F5EC1D34F757975FC8228A8B7F68F53C9E662078B82ADF13D2A49E45F7D555055F330C0CF7D729FE0AA3C8D0FF6162757E1E5F4F260330068C67A6F1B65C196C146700306AF15E9FB4C0D0862260E07FD0EEAA15622EABAD1B98C43D328A112B5C5B4240535AA60F0AAE21A026B7307F4CC31030A89889
310
631401268C7C8C1278D6ADF8E8983379FDF7F1568F335D21972208543D335DFC750820A2B9AC29159B8F205851ED1D5BC7B2310C81CB5D1FEBBCF70931326A74CE147044A63BF587B9CFB01F82BBC10D1D639B11F25A7EE17EB89CCFD8B75F687A95547ADD8481A739514200CFF55CCFF55CCFF55CCFF55C53AE5FC6EA1E0F
310
7C7C47570000000049454E44AE426082
  0
ENDSEC
  0
EOF
